<?xml version="1.0" encoding="UTF-8"?>
<svg xmlns="http://www.w3.org/2000/svg" id="Layer_1" data-name="Layer 1" viewBox="0 0 24 24" width="512" height="512"><path d="M11.854,18.561c.195,.195,.195,.512,0,.707l-4.293,4.293c-.283,.283-.66,.439-1.061,.439s-.777-.156-1.061-.439L1.146,19.268c-.195-.195-.195-.512,0-.707s.512-.195,.707,0l4.146,4.146V.5c0-.276,.224-.5,.5-.5s.5,.224,.5,.5V22.707l4.146-4.146c.195-.195,.512-.195,.707,0ZM22.854,4.732L18.561,.439c-.566-.566-1.555-.566-2.121,0l-4.293,4.293c-.195,.195-.195,.512,0,.707s.512,.195,.707,0L17,1.293V23.5c0,.276,.224,.5,.5,.5s.5-.224,.5-.5V1.293l4.146,4.146c.098,.098,.226,.146,.354,.146s.256-.049,.354-.146c.195-.195,.195-.512,0-.707Z"/></svg>
