<svg width="76" height="90" viewBox="0 0 76 90" fill="none" xmlns="http://www.w3.org/2000/svg">
<path d="M39.8598 75.2073L30.9247 89.9999L24.1562 87.33L25.1174 85.3026L30.2128 87.4368L37.355 75.2073H39.8598Z" fill="#242424"/>
<path d="M29.5681 15.0144L29.5924 15.0225L30.1085 12.8235H30.094L26.9678 12.8187H26.9662L23.5391 12.8154L26.628 13.9416H26.6296L29.5681 15.0144Z" fill="#242424"/>
<path d="M50.8216 14.3348L50.828 14.3203L51.7989 12.2976L51.7924 12.296L47.4041 11.3235L45.3848 10.877L47.0255 11.9206L50.8216 14.3348Z" fill="#242424"/>
<path d="M47.7673 22.7537L47.7721 22.7569L48.4938 20.6162L48.4825 20.6145L43.4712 20.1307H43.4696L41.9551 19.9851L43.3191 20.634L47.7673 22.7537Z" fill="#242424"/>
<path d="M58.1621 14.7213L58.5035 14.676L64.6717 13.8443L58.7106 12.545L58.3757 12.4722L58.1621 14.7213Z" fill="#242424"/>
<path d="M55.4066 23.7343L55.3516 23.8605L61.8045 25.0886L56.2771 21.799L56.2674 21.7942L55.4066 23.7343Z" fill="#242424"/>
<path d="M34.3632 21.9883L34.3535 21.9834L33.7354 24.1581L33.7629 24.1597L39.6462 24.4413H39.6479L40.2967 24.472L39.7207 24.2309L34.3632 21.9883Z" fill="#242424"/>
<path d="M37.104 10.0095L36.6914 12.2312L42.1525 11.9836L43.2544 11.9334L42.1541 11.5888L37.104 10.0095Z" fill="#242424"/>
<path d="M30.9587 4.97888L32.5234 3.34784L32.5073 3.33813L32.504 3.33651L26.873 0L30.9458 4.96269V4.96431L30.9587 4.97888Z" fill="#242424"/>
<path d="M38.5574 27.3637L38.6787 27.0595C38.7418 26.8977 38.8049 26.7359 38.8664 26.5741L38.9813 26.2748L39.1609 25.799L39.2677 25.5078C39.326 25.346 39.3842 25.1842 39.4392 25.0369C39.4732 24.9415 39.5072 24.8476 39.5396 24.7538L39.6512 24.4301L33.7662 24.147C33.386 25.4981 33.0057 26.8249 32.6465 28.0611H38.2661C38.2969 27.9883 38.326 27.9139 38.3567 27.8411L38.5574 27.3637Z" fill="#758963"/>
<path d="M36.4539 13.4579C36.0429 15.6245 35.2419 18.7717 34.3633 21.9885L39.7208 24.2312C39.7451 24.16 39.7677 24.0904 39.792 24.0208L39.9538 23.55C39.9813 23.4674 40.0072 23.3881 40.0331 23.3024C40.0865 23.1406 40.1383 22.9788 40.1949 22.817C40.2175 22.7474 40.2386 22.6762 40.2596 22.6066C40.313 22.4448 40.3648 22.27 40.4214 22.1034L40.4635 21.9642C40.7116 21.1293 40.9306 20.3202 41.1204 19.5371L41.1496 19.4222C41.1868 19.2604 41.2224 19.1115 41.258 18.9578L41.3017 18.7685C41.334 18.6245 41.3648 18.4837 41.3955 18.3413C41.4101 18.2701 41.4263 18.1989 41.4408 18.1277C41.4683 17.9934 41.4958 17.8591 41.5217 17.7264C41.5379 17.6504 41.5525 17.5743 41.567 17.4983C41.5913 17.3705 41.6156 17.2426 41.6382 17.1164C41.6528 17.0387 41.6674 16.9546 41.6803 16.8834C41.7029 16.7588 41.724 16.6358 41.7434 16.5129L41.7822 16.2815C41.8 16.1601 41.8195 16.0404 41.8373 15.9206C41.8486 15.8446 41.8599 15.7669 41.8696 15.6893C41.8879 15.5728 41.9041 15.4563 41.9182 15.3398L41.9473 15.1132C41.9618 14.9983 41.9748 14.8834 41.9877 14.7702L42.012 14.5485C42.0233 14.4369 42.0363 14.3236 42.046 14.2136L42.0654 13.9983C42.0751 13.8883 42.0848 13.7767 42.0929 13.6747L42.1075 13.4708C42.1075 13.3608 42.122 13.2508 42.1285 13.1472L42.1382 12.9579C42.1382 12.8463 42.1495 12.7346 42.1544 12.6343C42.1544 12.5793 42.1544 12.5259 42.1544 12.4725C42.1544 12.356 42.1544 12.2395 42.1625 12.1246C42.1625 12.0955 42.1625 12.0696 42.1625 12.0405V11.9984L36.7014 12.2476L37.1011 10.0098L42.1544 11.5939C42.1544 11.3285 42.1544 11.0696 42.1382 10.8139V10.6845C42.1382 10.5874 42.1269 10.4903 42.122 10.3949L42.1123 10.2233C42.1123 10.1327 42.0978 10.0437 42.0913 9.95473C42.0913 9.89486 42.0816 9.83337 42.0751 9.77351C42.0751 9.68775 42.0589 9.6117 42.0508 9.52108L42.0314 9.335C42.0217 9.25571 42.0104 9.17319 42.0007 9.09714L41.9764 8.90944L41.9424 8.68129L41.9133 8.49683L41.8745 8.27839L41.8405 8.09554C41.8275 8.02435 41.813 7.95477 41.7984 7.88519L41.7596 7.7072C41.745 7.63924 41.7305 7.57128 41.7143 7.50493L41.6706 7.33019C41.6544 7.26546 41.6382 7.20074 41.6204 7.13601C41.6026 7.07129 41.5897 7.02275 41.5735 6.97421C41.5573 6.92566 41.5395 6.84961 41.5201 6.78812C41.5007 6.72663 41.4861 6.67647 41.4683 6.62631C41.4505 6.57615 41.4311 6.50658 41.4117 6.44832C41.3923 6.39007 41.3745 6.33991 41.3567 6.28652C41.3389 6.23312 41.3162 6.17325 41.2968 6.12471L41.2337 5.9629C41.2143 5.9095 41.1949 5.85772 41.1738 5.80109C41.1528 5.74445 41.1269 5.68944 41.1026 5.63928L41.0444 5.4985C41.0039 5.40951 40.9635 5.32213 40.9214 5.23475C40.8988 5.18783 40.8761 5.14091 40.8518 5.0956C40.8276 5.05029 40.7952 4.98072 40.7661 4.92408C40.737 4.86745 40.7208 4.84318 40.6997 4.80273C40.6787 4.76227 40.6447 4.70078 40.6156 4.65223C40.5865 4.60369 40.5687 4.57133 40.5444 4.53088L40.4603 4.39172C40.436 4.35289 40.4101 4.31406 40.3842 4.27523C40.3583 4.23639 40.3276 4.18785 40.2984 4.14416L40.2192 4.03251C40.19 3.99044 40.1609 3.94837 40.1302 3.90792C40.0994 3.86746 40.0768 3.83672 40.0493 3.80274L39.957 3.68462L39.8745 3.5843L39.7774 3.47265C39.7499 3.44029 39.7224 3.40954 39.6933 3.3788L39.5946 3.27201L39.5088 3.18463L39.4053 3.0843L39.3179 3.0034C39.2839 2.97104 39.2483 2.9403 39.2127 2.90955L39.1237 2.8335L39.0137 2.74451L38.9263 2.67655L38.8098 2.5924L38.724 2.53254C38.6836 2.50341 38.6415 2.47752 38.6011 2.45163L38.5185 2.39823L38.3794 2.31895L38.3082 2.27849C38.2386 2.23966 38.1674 2.20406 38.0962 2.17008C37.9959 2.12154 37.8956 2.07947 37.7953 2.03902L37.7435 2.0196C37.6415 1.98077 37.5396 1.94679 37.4377 1.91604H37.4199C37.2033 1.85316 36.982 1.80824 36.7581 1.78174C38.6075 2.41765 37.6868 6.95641 36.4539 13.4579Z" fill="#758963"/>
<path d="M29.568 15.0128L26.6296 13.9417C26.6182 13.9789 26.6069 14.0145 26.5972 14.0517C26.5875 14.0889 26.5826 14.1051 26.5746 14.131C26.5114 14.3607 26.4483 14.5921 26.3885 14.8267V14.8478C25.4678 18.4383 24.6587 22.4269 23.9727 28.0725H27.3221C27.4435 27.0935 27.5761 26.0822 27.7024 25.2198C28.1069 22.435 28.7282 18.6988 29.568 15.0128Z" fill="#758963"/>
<path d="M30.093 12.8218C30.1706 12.5176 30.2548 12.2134 30.3308 11.9125C32.0913 5.37537 34.6851 2.34954 36.753 1.74761C35.6301 1.61331 34.4877 1.95148 33.3664 2.68448C33.2434 2.76377 33.122 2.84629 33.0007 2.94014H32.991C32.8292 3.0615 32.6674 3.19256 32.5056 3.3301L32.5217 3.33981L30.9522 4.97894V4.95952C30.9198 4.99674 30.8891 5.03395 30.8583 5.07279L30.8454 5.08897C30.6199 5.37375 30.3993 5.67418 30.1836 5.99025L30.1755 6.00157C30.0719 6.15367 29.97 6.30901 29.8681 6.46758L29.8373 6.51451C29.7386 6.67632 29.6415 6.82681 29.5444 6.987L29.5105 7.04363C29.4155 7.20544 29.3201 7.37048 29.2241 7.53876L29.1998 7.58406C29.004 7.93357 28.8131 8.29765 28.627 8.67305L28.606 8.71673C28.517 8.89634 28.4312 9.07918 28.3454 9.26365L28.3082 9.34132C28.2257 9.52417 28.1464 9.70701 28.0623 9.89471L28.0251 9.98047C27.9441 10.1698 27.8632 10.3607 27.7856 10.5549C27.7759 10.5775 27.7678 10.6002 27.7581 10.6245C27.5963 11.0306 27.4345 11.4497 27.2856 11.8769L27.2613 11.9464C27.1901 12.1519 27.1205 12.3574 27.051 12.5662L27.017 12.6697C27.0024 12.7167 26.9879 12.7652 26.9717 12.8137L30.093 12.8218Z" fill="#758963"/>
<path d="M43.3199 20.634V20.6583C43.2827 20.7894 43.2439 20.922 43.2066 21.0547C43.1824 21.1356 43.1581 21.2165 43.1354 21.3007C43.0977 21.4334 43.0605 21.5677 43.0238 21.7036C43.0011 21.7877 42.9769 21.8654 42.9542 21.9593C42.9186 22.0936 42.8814 22.2311 42.8458 22.3686L42.7779 22.6324L42.6711 23.0515C42.65 23.1388 42.6274 23.2295 42.6063 23.3185C42.5707 23.4608 42.5368 23.6049 42.5012 23.7505C42.4801 23.8395 42.4607 23.9285 42.4397 24.0175C42.4041 24.1663 42.3701 24.3152 42.3361 24.4673C42.3167 24.5531 42.2973 24.6421 42.2779 24.7294C42.2439 24.8912 42.2099 25.0401 42.1759 25.1987L42.1225 25.4511L42.0206 25.9479C42.006 26.0174 41.9931 26.0886 41.9785 26.1598C41.9413 26.3427 41.9057 26.5271 41.8701 26.7132C41.8136 26.9227 41.7741 27.1365 41.752 27.3524C41.7268 27.591 41.7203 27.8312 41.7326 28.0708H46.0788C46.5933 26.4171 47.1774 24.5773 47.7778 22.7521L43.3199 20.634Z" fill="#758963"/>
<path d="M48.4829 20.6129C49.3195 18.1485 50.1479 15.8719 50.8275 14.3201V14.333L47.025 11.9172L46.9376 12.0596C46.9085 12.1114 46.8778 12.1616 46.847 12.2117L46.7062 12.4512L46.614 12.613L46.4749 12.859C46.4457 12.914 46.415 12.969 46.3842 13.0208C46.3373 13.1049 46.292 13.1826 46.2451 13.2764C46.216 13.3331 46.1868 13.3897 46.1561 13.4463L46.0186 13.7117L45.9296 13.8848L45.792 14.1615C45.7645 14.2198 45.7354 14.278 45.7063 14.3363C45.661 14.4318 45.614 14.5272 45.5687 14.6243L45.4878 14.7991L45.3471 15.1033L45.2726 15.2651C45.2241 15.3735 45.1755 15.4819 45.1286 15.5887C45.1076 15.6372 45.0849 15.6874 45.0639 15.7376C45.0137 15.8557 44.9619 15.9754 44.9118 16.0968L44.873 16.189C44.6227 16.7985 44.3773 17.4387 44.1367 18.1097L44.093 18.231C44.0461 18.3637 43.9992 18.4996 43.9523 18.6356C43.9328 18.6938 43.9118 18.7521 43.8924 18.8119C43.8487 18.9414 43.805 19.0725 43.7629 19.2035L43.695 19.409C43.6529 19.5368 43.6125 19.6679 43.572 19.7974C43.5477 19.8718 43.5251 19.9446 43.5024 20.0207C43.4911 20.053 43.4814 20.087 43.4717 20.1194L48.4829 20.6129Z" fill="#758963"/>
<path d="M51.7921 12.2943C53.7338 8.39469 55.0283 6.74747 56.4085 6.48858L56.3794 6.47401C56.3357 6.44974 56.2904 6.42709 56.2435 6.40444L56.0817 6.33324L55.9474 6.27823C55.8859 6.25396 55.8212 6.23292 55.7581 6.2135L55.6432 6.17629C55.538 6.14716 55.4312 6.12127 55.3196 6.10023C55.2548 6.08891 55.1901 6.07758 55.1254 6.06949H55.0607C55.017 6.06949 54.9717 6.05817 54.928 6.05493H54.8471H54.7257H54.5218H54.4296C54.3908 6.05493 54.3519 6.05493 54.3131 6.05493H54.2176L54.1011 6.06626L54.0041 6.0792L53.8876 6.09538L53.7872 6.11156L53.6707 6.13422L53.5688 6.15525L53.4507 6.18276L53.3471 6.20864L53.2274 6.24263L53.1238 6.27337L53.0041 6.31382L52.8973 6.34943L52.7759 6.39473L52.6691 6.43518L52.5462 6.48696L52.4394 6.53226L52.3115 6.59214L52.2063 6.64068L52.0688 6.71188L51.9426 6.7766C51.8757 6.81219 51.8094 6.84941 51.7436 6.88824L51.6319 6.95459L51.5073 7.02902L51.3892 7.10507L51.2695 7.18274L51.1481 7.26526L51.0316 7.34617L50.907 7.4384L50.7921 7.52254L50.6659 7.62125L50.5527 7.71186L50.4248 7.81703L50.3116 7.91088L50.1821 8.02253L50.0705 8.12285L49.941 8.24259L49.8294 8.34615L49.6983 8.47397L49.5883 8.58239L49.4556 8.71669C49.42 8.7539 49.3828 8.79112 49.3472 8.82996L49.2129 8.97235C49.1773 9.01118 49.1433 9.05002 49.1077 9.08724C49.0721 9.12445 49.0155 9.18918 48.9702 9.24905C48.9249 9.30892 48.9038 9.3251 48.8715 9.36232C48.8391 9.39953 48.7744 9.47235 48.7274 9.52412C48.6805 9.5759 48.6676 9.59532 48.6385 9.63253C48.6093 9.66975 48.5365 9.7539 48.4766 9.81862L48.4119 9.89952C48.2124 10.1519 48.0133 10.4173 47.8149 10.6956L47.7712 10.7571L47.6093 10.9901L47.5333 11.1018L47.3828 11.3283L51.7921 12.2943Z" fill="#758963"/>
<path d="M58.5041 14.6681L58.1627 14.715L58.3763 12.4659L58.7113 12.5387C58.8083 9.62614 58.0397 7.39802 56.4087 6.48218C55.0301 6.74107 53.7388 8.38829 51.7923 12.2879L50.8214 14.3121C50.1418 15.8639 49.3134 18.1405 48.4768 20.6049H48.4881L47.781 22.7586C47.1807 24.5838 46.5966 26.4236 46.082 28.0773H53.2453C53.9492 26.7601 54.7016 25.2909 55.4201 23.7392L56.2825 21.7974C56.5112 21.2699 56.7323 20.7381 56.9459 20.202C57.6692 18.421 58.1919 16.5649 58.5041 14.6681Z" fill="#B9D2C1"/>
<path d="M39.5361 24.757C39.5733 24.6518 39.6122 24.545 39.6478 24.4333L39.5361 24.757Z" fill="#B9D2C1"/>
<path d="M42.1548 11.5936C42.1548 11.3283 42.1549 11.0694 42.1387 10.8137C42.1484 11.0694 42.1548 11.3283 42.1548 11.5936Z" fill="#B9D2C1"/>
<path d="M74.2264 43.2826L70.2573 47.2C71.1359 45.1483 71.3123 42.1564 71.3123 42.1564L70.1796 41.9639C70.1796 41.9639 69.2476 44.6321 68.3997 48.2194C64.2006 51.7192 59.7139 54.8586 54.9873 57.6044L56.141 59.3843C62.4904 55.3584 69.3964 49.6757 69.3964 49.6757C71.5841 49.9752 73.7994 50.0165 75.9966 49.7987L75.8348 48.3424L71.2152 48.1806C72.6035 47.1644 75.3365 44.4444 75.3365 44.4444L74.2264 43.2826Z" fill="#242424"/>
<path d="M71.6527 28.0725H4.6377L7.42244 38.5497L10.0179 38.5157L16.9255 75.206H57.5607L67.643 37.7584L69.7401 37.7325L71.6527 28.0725Z" fill="#E47D25"/>
<path d="M22.8144 47.5816C22.9179 46.9894 22.693 45.7354 21.9212 45.3454C21.0361 44.8972 19.9131 45.2273 19.5215 46.6836C19.13 48.1399 20.3921 49.2143 21.3014 49.0136C22.2108 48.813 22.7335 48.0444 22.8144 47.5816Z" fill="#242424"/>
<path d="M60.5652 28.0464L58.2772 37.8536L10.0176 38.5138L10.1713 39.3374L54.5297 42.8066L47.279 75.2041L57.5653 75.1993L67.6476 37.7614L69.7398 37.7323L71.6524 28.0723L60.5652 28.0464Z" fill="#CB6628"/>
<path d="M12.6681 52.5913C9.57749 50.2224 7.64063 48.4652 7.64063 48.4635C6.89631 44.8568 6.03387 42.1643 6.03387 42.1643L4.9012 42.3261C4.9012 42.3261 4.99829 45.3228 5.8219 47.3956L1.95789 43.3763L0.802568 44.4992C0.802568 44.4992 3.4611 47.2888 4.82354 48.3406L0.200642 48.3875L0 49.8341C2.19098 50.1098 4.40678 50.1272 6.60182 49.8859C6.60182 49.8859 9.45452 52.3615 13.1632 55.245L12.6681 52.5913Z" fill="#242424"/>
<path d="M26.4634 75.2073L18.9716 89.0129L12.2031 86.343L13.1643 84.3139L18.2596 86.4498L23.9586 75.2073H26.4634Z" fill="#242424"/>
<path d="M40.0367 56.1496C37.9048 55.1252 35.6843 54.2966 33.4025 53.674C29.5854 52.6885 25.422 52.4701 24.0353 54.3212C22.2295 56.7241 25.7424 62.9586 32.6112 62.088C38.6176 61.3227 40.0367 56.1496 40.0367 56.1496Z" fill="#242424"/>
<path d="M33.7354 24.1565L34.3503 21.9834H34.36C35.2386 18.7666 36.0395 15.6194 36.4505 13.4528C37.6835 6.95132 38.6042 2.41257 36.7499 1.74268C34.6852 2.34946 32.0849 5.3753 30.3309 11.9172C30.25 12.2182 30.1691 12.5224 30.0931 12.8266H30.1076L29.5914 15.0272L29.5672 15.0175C28.7274 18.7035 28.1109 22.4365 27.6967 25.2245C27.5704 26.0869 27.4378 27.0982 27.3164 28.0772H32.6432C33.0024 26.8409 33.3826 25.5141 33.7629 24.163L33.7354 24.1565Z" fill="#B9D2C1"/>
<path d="M41.4907 45.5608C41.0749 46.0301 40.591 47.263 41.0619 48.03C41.6023 48.9086 42.7933 49.0252 43.9356 47.9475C45.078 46.8698 44.2495 45.2129 43.3272 44.8909C42.4049 44.5689 41.8143 45.1951 41.4907 45.5608Z" fill="#242424"/>
</svg>
