<svg xmlns="http://www.w3.org/2000/svg" width="90" height="132" viewBox="0 0 90 132" fill="none">
  <path d="M59.765 109.21C59.765 109.21 55.5944 111.041 55.8805 114.401C56.2309 118.515 56.8606 124.999 56.8606 124.999L59.4477 128.295L51.8471 128.169L53.8466 124.949C53.8466 124.949 53.634 117.767 53.159 113.328C52.6284 108.371 57.1239 106.147 57.1239 106.147L59.765 109.21Z" fill="#242424"/>
  <path d="M41.3301 110.826C41.3301 110.826 37.5058 112.599 37.6521 115.587C37.8312 119.247 38.1834 125.011 38.1834 125.011L40.408 127.867L33.554 128.008L35.4655 125.067C35.4655 125.067 35.5129 118.666 35.2322 114.72C34.9185 110.315 39.049 108.18 39.049 108.18L41.3301 110.826Z" fill="#242424"/>
  <path d="M73.4041 68.3938L83.9589 92.0326L75.0939 97.1953L73.6874 94.357L80.5005 90.5828L72.1886 72.472L73.4041 68.3938Z" fill="#242424"/>
  <path d="M16.1642 69.0777L5.60947 92.7165L14.4744 97.8792L15.8809 95.0409L9.06787 91.2667L17.3797 73.1559L16.1642 69.0777Z" fill="#242424"/>
  <path d="M77.2852 39.6684H10.2593L16.0262 112.85H67.7511L77.2852 39.6684Z" fill="#FFCC05"/>
  <path d="M79.3371 39.6685H64.8899L61.5547 112.85H74.1965L79.3371 39.6685Z" fill="#FCB912"/>
  <path d="M23.1555 64.0708C23.1555 64.0708 27.4541 58.4925 31.4889 58.5463C36.4294 58.6121 44.3601 65.6042 44.3601 65.6042L44.7048 64.0744L43.0777 61.0384C43.0777 61.0384 36.7602 55.317 31.4759 55.1203C25.5767 54.9003 20.6324 60.9368 20.6324 60.9368L23.1555 64.0708Z" fill="#242424"/>
  <path d="M52.9856 68.5808L63.6373 69.8374L69.4266 70.7041L69.4266 68.5372C69.4266 68.5372 69.4267 68.5808 62.8103 67.6704C52.9856 66.4476 52.9856 66.3703 52.9856 66.3703L52.9856 68.5808Z" fill="#242424"/>
  <path d="M32.9609 91.3664C32.9609 92.2332 43.1413 92.6664 46.6071 92.6665C50.0728 92.6666 59.3462 92.9041 59.426 92.2332C59.5058 91.5622 58.5635 90.489 46.607 90.0662C36.146 89.6965 32.9609 90.4997 32.9609 91.3664Z" fill="#242424"/>
  <path d="M58.8629 75.1453C58.6721 73.9959 59.0814 71.5611 60.4834 70.8047C62.09 69.939 64.1307 70.5772 64.8414 73.4019C65.5521 76.2267 63.2597 78.3098 61.595 77.9228C59.9303 77.5357 59.015 76.0494 58.8629 75.1453Z" fill="#242424"/>
  <path d="M40.0271 65.5877C42.0748 66.8159 44.4513 70.0458 42.1345 72.0516C39.4815 74.3524 33.6374 74.6594 28.0324 71.8363C22.4274 69.0131 26.4929 64.6587 31.0217 63.8332C35.5505 63.0078 38.4428 64.6307 40.0271 65.5877Z" fill="#242424"/>
  <path d="M14.3633 94.3835L14.3631 97.803C22.0387 101.565 24.4325 98.4872 24.4325 98.4872L23.4066 97.803C23.4066 97.803 23.0646 99.1713 18.2433 97.1148C18.2433 97.1148 22.7225 98.2171 23.0644 97.1148L22.066 95.0672C22.066 95.0672 21.3546 96.4351 17.5875 95.4012L21.0126 94.3833L20.6707 92.6735C20.6707 92.6735 19.3029 92.6735 14.3633 94.3835Z" fill="#242424"/>
  <path d="M32.4399 21.1729L32.4742 21.1843L33.202 18.0833H33.1815L28.7731 18.0765H28.7708L23.938 18.0719L28.2939 19.6601H28.2962L32.4399 21.1729Z" fill="#242424"/>
  <path d="M62.4114 20.2144L62.4206 20.1938L63.7896 17.3416L63.7805 17.3393L57.5923 15.968L54.7446 15.3382L57.0584 16.8099L62.4114 20.2144Z" fill="#242424"/>
  <path d="M58.1053 32.0865L58.1122 32.0911L59.1299 29.0723L59.1139 29.07L52.0472 28.3877H52.0449L49.9092 28.1824L51.8327 29.0974L58.1053 32.0865Z" fill="#242424"/>
  <path d="M72.7637 20.7597L73.2451 20.6958L81.9433 19.523L73.5372 17.6907L73.0649 17.588L72.7637 20.7597Z" fill="#242424"/>
  <path d="M68.8779 33.4693L68.8003 33.6473L77.9001 35.3792L70.1055 30.7403L70.0918 30.7335L68.8779 33.4693Z" fill="#242424"/>
  <path d="M39.2027 31.0073L39.189 31.0004L38.3174 34.0671L38.3562 34.0694L46.6527 34.4665H46.655L47.57 34.5098L46.7577 34.1698L39.2027 31.0073Z" fill="#242424"/>
  <path d="M43.0682 14.1152L42.4863 17.2481L50.1874 16.899L51.7412 16.8283L50.1896 16.3423L43.0682 14.1152Z" fill="#242424"/>
  <path d="M34.4021 7.02106L36.6086 4.72101L36.5858 4.70732L36.5812 4.70504L28.6406 0L34.3839 6.99823V7.00052L34.4021 7.02106Z" fill="#242424"/>
  <path d="M45.1176 38.5875L45.2887 38.1585C45.3777 37.9303 45.4667 37.7021 45.5534 37.4739L45.7154 37.0518L45.9687 36.381L46.1193 35.9702C46.2014 35.7421 46.2836 35.5139 46.3612 35.3063C46.4091 35.1716 46.457 35.0393 46.5026 34.9069L46.6601 34.4506L38.3612 34.0513C37.825 35.9566 37.2888 37.8276 36.7822 39.5709H44.7069C44.7502 39.4682 44.7913 39.3633 44.8347 39.2606L45.1176 38.5875Z" fill="#758963"/>
  <path d="M42.1512 18.9777C41.5716 22.033 40.4421 26.471 39.2031 31.0072L46.7581 34.1698C46.7923 34.0694 46.8243 33.9713 46.8585 33.8732L47.0867 33.2092C47.1255 33.0928 47.162 32.981 47.1985 32.86C47.2738 32.6319 47.3468 32.4037 47.4267 32.1755C47.4586 32.0774 47.4883 31.977 47.518 31.8789C47.5933 31.6507 47.6663 31.4043 47.7461 31.1692L47.8055 30.973C48.1553 29.7956 48.4641 28.6547 48.7319 27.5503L48.7729 27.3883C48.8254 27.1601 48.8756 26.9502 48.9258 26.7335L48.9874 26.4665C49.0331 26.2634 49.0764 26.0649 49.1198 25.8641C49.1403 25.7637 49.1631 25.6633 49.1837 25.5629C49.2224 25.3735 49.2612 25.1841 49.2977 24.997C49.3206 24.8898 49.3411 24.7825 49.3616 24.6753C49.3959 24.495 49.4301 24.3148 49.462 24.1368C49.4826 24.0273 49.5031 23.9086 49.5214 23.8082C49.5533 23.6325 49.583 23.4591 49.6103 23.2857L49.6651 22.9594C49.6902 22.7882 49.7176 22.6194 49.7427 22.4505C49.7587 22.3433 49.7746 22.2338 49.7883 22.1242C49.8142 21.96 49.837 21.7957 49.8568 21.6314L49.8979 21.3119C49.9184 21.1499 49.9366 20.9879 49.9549 20.8282L49.9891 20.5156C50.0051 20.3581 50.0233 20.1984 50.037 20.0433L50.0644 19.7398C50.0781 19.5846 50.0918 19.4272 50.1032 19.2834L50.1237 18.9959C50.1237 18.8408 50.1443 18.6856 50.1534 18.5396L50.1671 18.2726C50.1671 18.1151 50.1831 17.9577 50.1899 17.8162C50.1899 17.7387 50.1899 17.6634 50.1899 17.5881C50.1899 17.4238 50.1899 17.2595 50.2013 17.0975C50.2013 17.0564 50.2013 17.0199 50.2013 16.9788V16.9195L42.5003 17.2709L43.0639 14.1152L50.1899 16.349C50.1899 15.9748 50.1899 15.6097 50.1671 15.2492V15.0667C50.1671 14.9298 50.1511 14.7929 50.1443 14.6583L50.1306 14.4164C50.1306 14.2886 50.1101 14.1631 50.1009 14.0376C50.1009 13.9532 50.0872 13.8665 50.0781 13.782C50.0781 13.6611 50.0553 13.5539 50.0439 13.4261L50.0165 13.1637C50.0028 13.0519 49.9868 12.9355 49.9732 12.8283L49.9389 12.5636L49.891 12.2418L49.8499 11.9817L49.7952 11.6737L49.7472 11.4158C49.729 11.3154 49.7085 11.2173 49.6879 11.1192L49.6332 10.8682C49.6126 10.7724 49.5921 10.6765 49.5693 10.583L49.5077 10.3365C49.4848 10.2453 49.462 10.154 49.4369 10.0627C49.4118 9.97146 49.3936 9.90301 49.3708 9.83455C49.3479 9.7661 49.3228 9.65885 49.2955 9.57214C49.2681 9.48544 49.2475 9.4147 49.2224 9.34396C49.1973 9.27323 49.17 9.17512 49.1426 9.09297C49.1152 9.01083 49.0901 8.94009 49.065 8.8648C49.0399 8.7895 49.008 8.70507 48.9806 8.63662L48.8916 8.40844C48.8642 8.33314 48.8368 8.26012 48.8072 8.18026C48.7775 8.1004 48.741 8.02282 48.7068 7.95208L48.6246 7.75357C48.5676 7.62807 48.5105 7.50485 48.4512 7.38163C48.4192 7.31546 48.3873 7.24929 48.3531 7.1854C48.3189 7.12151 48.2732 7.0234 48.2322 6.94354C48.1911 6.86367 48.1683 6.82945 48.1386 6.7724C48.1089 6.71536 48.061 6.62864 48.0199 6.56018C47.9789 6.49173 47.9538 6.44609 47.9195 6.38905L47.8009 6.19282C47.7667 6.13806 47.7301 6.0833 47.6936 6.02854C47.6571 5.97377 47.6138 5.90532 47.5727 5.84371L47.4609 5.68627C47.4198 5.62694 47.3788 5.56761 47.3354 5.51057C47.292 5.45352 47.2601 5.41016 47.2213 5.36225L47.0913 5.19568L46.9749 5.05421L46.838 4.89677C46.7992 4.85113 46.7604 4.80777 46.7193 4.76442L46.5801 4.61383L46.4592 4.49062L46.3132 4.34913L46.19 4.23504C46.142 4.18941 46.0918 4.14606 46.0416 4.10271L45.9161 3.99546L45.761 3.86996L45.6378 3.77413L45.4735 3.65548L45.3525 3.57105C45.2955 3.52998 45.2362 3.49347 45.1791 3.45696L45.0627 3.38166L44.8665 3.26985L44.7661 3.21281C44.668 3.15805 44.5676 3.10785 44.4672 3.05993C44.3257 2.99148 44.1843 2.93215 44.0428 2.87511L43.9698 2.84773C43.826 2.79297 43.6823 2.74504 43.5385 2.70169H43.5134C43.2081 2.61302 42.8959 2.54967 42.5802 2.5123C45.1882 3.40904 43.8899 9.80946 42.1512 18.9777Z" fill="#758963"/>
  <path d="M32.4402 21.1704L28.2965 19.6599C28.2805 19.7123 28.2646 19.7625 28.2509 19.815C28.2372 19.8675 28.2303 19.8903 28.2189 19.9268C28.1299 20.2508 28.0409 20.5771 27.9565 20.908V20.9376C26.6582 26.0009 25.5173 31.6255 24.5498 39.5867H29.2731C29.4442 38.2062 29.6313 36.7801 29.8093 35.5639C30.3798 31.6369 31.256 26.3683 32.4402 21.1704Z" fill="#758963"/>
  <path d="M33.1813 18.081C33.2909 17.6521 33.4095 17.2231 33.5168 16.7987C35.9993 7.58024 39.657 3.31332 42.5732 2.46449C40.9896 2.2751 39.3787 2.75199 37.7974 3.78564C37.624 3.89745 37.4528 4.01382 37.2817 4.14617H37.268C37.0398 4.3173 36.8117 4.50212 36.5835 4.69607L36.6063 4.70976L34.393 7.02121V6.99383C34.3473 7.04631 34.304 7.0988 34.2606 7.15356L34.2424 7.17637C33.9245 7.57797 33.6134 8.00162 33.3091 8.44733L33.2977 8.4633C33.1517 8.67779 33.0079 8.89684 32.8642 9.12046L32.8208 9.18662C32.6816 9.4148 32.5447 9.62702 32.4078 9.85292L32.3599 9.93277C32.226 10.161 32.0914 10.3937 31.956 10.631L31.9218 10.6949C31.6457 11.1877 31.3765 11.7012 31.114 12.2305L31.0844 12.2921C30.9589 12.5454 30.838 12.8033 30.717 13.0634L30.6645 13.1729C30.5482 13.4308 30.4364 13.6886 30.3177 13.9533L30.2652 14.0742C30.1511 14.3412 30.037 14.6104 29.9275 14.8842C29.9138 14.9162 29.9024 14.9481 29.8887 14.9824C29.6606 15.5551 29.4324 16.1461 29.2225 16.7485L29.1882 16.8466C29.0878 17.1364 28.9897 17.4262 28.8916 17.7205L28.8437 17.8665C28.8231 17.9327 28.8026 18.0012 28.7798 18.0696L33.1813 18.081Z" fill="#758963"/>
  <path d="M51.8328 29.0975V29.1318C51.7803 29.3166 51.7256 29.5037 51.6731 29.6908C51.6389 29.8049 51.6046 29.919 51.5727 30.0376C51.5195 30.2247 51.467 30.4141 51.4153 30.6058C51.3833 30.7244 51.3491 30.834 51.3171 30.9663C51.2669 31.1557 51.2145 31.3497 51.1643 31.5436L51.0684 31.9155L50.9178 32.5065C50.8882 32.6297 50.8562 32.7575 50.8266 32.883C50.7764 33.0838 50.7284 33.2869 50.6782 33.4923C50.6486 33.6178 50.6212 33.7433 50.5915 33.8688C50.5413 34.0787 50.4934 34.2886 50.4455 34.5031C50.4181 34.624 50.3907 34.7495 50.3634 34.8727C50.3154 35.1009 50.2675 35.3108 50.2196 35.5345L50.1443 35.8904L50.0006 36.5909C49.98 36.689 49.9618 36.7894 49.9412 36.8898C49.8888 37.1477 49.8385 37.4078 49.7883 37.6702C49.7087 37.9657 49.653 38.2671 49.6218 38.5715C49.5863 38.908 49.5771 39.2467 49.5944 39.5846H55.7233C56.4489 37.2526 57.2726 34.6583 58.1191 32.0844L51.8328 29.0975Z" fill="#758963"/>
  <path d="M59.1136 29.0678C60.2933 25.5927 61.4615 22.3822 62.4199 20.194V20.2122L57.0577 16.8055L56.9345 17.0063C56.8934 17.0793 56.85 17.1501 56.8067 17.2208L56.6082 17.5585L56.4781 17.7867L56.2819 18.1335C56.2408 18.2111 56.1974 18.2887 56.1541 18.3617C56.0879 18.4803 56.024 18.5899 55.9579 18.7222C55.9168 18.8021 55.8757 18.8819 55.8324 18.9618L55.6384 19.336L55.5129 19.5802L55.319 19.9703C55.2802 20.0525 55.2391 20.1346 55.198 20.2168C55.1341 20.3514 55.068 20.486 55.0041 20.6229L54.89 20.8694L54.6915 21.2983L54.5865 21.5265C54.518 21.6794 54.4496 21.8323 54.3834 21.9829C54.3538 22.0513 54.3218 22.1221 54.2922 22.1928C54.2214 22.3594 54.1484 22.5282 54.0777 22.6994L54.0229 22.8294C53.67 23.6889 53.3239 24.5917 52.9847 25.5379L52.9231 25.709C52.8569 25.8961 52.7907 26.0878 52.7246 26.2795C52.6972 26.3616 52.6675 26.4438 52.6401 26.5282C52.5785 26.7107 52.5169 26.8956 52.4576 27.0804L52.3618 27.3702C52.3024 27.5504 52.2454 27.7353 52.1883 27.9178C52.1541 28.0228 52.1222 28.1255 52.0902 28.2327C52.0743 28.2783 52.0606 28.3262 52.0469 28.3719L59.1136 29.0678Z" fill="#758963"/>
  <path d="M63.7804 17.3371C66.5185 11.838 68.3439 9.51512 70.2903 9.15003L70.2492 9.12949C70.1876 9.09526 70.1237 9.06332 70.0576 9.03137L69.8294 8.93097L69.64 8.8534C69.5533 8.81917 69.462 8.78951 69.373 8.76212L69.211 8.70965C69.0627 8.66857 68.9121 8.63206 68.7547 8.6024C68.6634 8.58642 68.5721 8.57045 68.4809 8.55904H68.3896C68.328 8.55904 68.2641 8.54308 68.2025 8.53851H68.0884H67.9172H67.6297H67.4997C67.4449 8.53851 67.3902 8.53851 67.3354 8.53851H67.2008L67.0365 8.55449L66.8996 8.57273L66.7353 8.59556L66.5938 8.61837L66.4295 8.65032L66.2858 8.67998L66.1192 8.71877L65.9732 8.75527L65.8043 8.80319L65.6583 8.84655L65.4894 8.90359L65.3388 8.9538L65.1677 9.01768L65.0171 9.07473L64.8437 9.14775L64.6931 9.21163L64.5128 9.29607L64.3645 9.36452L64.1706 9.46492L63.9926 9.55618C63.8983 9.60638 63.8047 9.65886 63.7119 9.71362L63.5545 9.80719L63.3788 9.91214L63.2122 10.0194L63.0434 10.1289L62.8722 10.2453L62.7079 10.3594L62.5322 10.4894L62.3702 10.6081L62.1923 10.7473L62.0325 10.8751L61.8523 11.0234L61.6925 11.1557L61.51 11.3132L61.3526 11.4546L61.17 11.6235L61.0126 11.7695L60.8277 11.9498L60.6726 12.1027L60.4855 12.292C60.4353 12.3445 60.3828 12.397 60.3326 12.4518L60.1432 12.6526C60.093 12.7073 60.0451 12.7621 59.9949 12.8146C59.9447 12.8671 59.8648 12.9583 59.8009 13.0428C59.737 13.1272 59.7074 13.15 59.6617 13.2025C59.6161 13.255 59.5248 13.3576 59.4587 13.4307C59.3925 13.5037 59.3742 13.5311 59.3332 13.5835C59.2921 13.636 59.1894 13.7547 59.105 13.8459L59.0137 13.96C58.7323 14.316 58.4516 14.6902 58.1717 15.0827L58.1101 15.1694L57.882 15.498L57.7747 15.6554L57.5625 15.9748L63.7804 17.3371Z" fill="#758963"/>
  <path d="M73.2453 20.6846L72.7638 20.7507L73.065 17.5791L73.5374 17.6818C73.6743 13.5745 72.5904 10.4325 70.2904 9.14102C68.3463 9.50611 66.5254 11.829 63.7804 17.3281L62.4114 20.1826C61.453 22.3708 60.2847 25.5813 59.1051 29.0565H59.121L58.1239 32.0935C57.2774 34.6674 56.4536 37.2618 55.728 39.5937H65.8295C66.8221 37.7364 67.8831 35.6645 68.8962 33.4763L70.1124 30.7381C70.4349 29.9943 70.7467 29.2443 71.0479 28.4883C72.068 25.9767 72.805 23.3594 73.2453 20.6846Z" fill="#B9D2C1"/>
  <path d="M52.0902 28.2487C52.0743 28.2944 52.0606 28.34 52.0469 28.3879C52.0606 28.3423 52.0743 28.2944 52.0902 28.2487Z" fill="#B9D2C1"/>
  <path d="M52.1909 27.9339C52.248 27.7514 52.305 27.5666 52.3643 27.3863C52.3027 27.5666 52.2457 27.7582 52.1909 27.9339Z" fill="#B9D2C1"/>
  <path d="M52.9854 25.5537C53.3231 24.606 53.6691 23.7032 54.0236 22.8452C53.6707 23.7062 53.3246 24.6091 52.9854 25.5537Z" fill="#B9D2C1"/>
  <path d="M50.208 35.5344C50.2559 35.3062 50.3038 35.0917 50.3518 34.8727C50.3038 35.0917 50.2559 35.3108 50.208 35.5344Z" fill="#B9D2C1"/>
  <path d="M49.4302 10.0561C49.4553 10.1473 49.4781 10.2386 49.5009 10.3299C49.4781 10.2386 49.453 10.1473 49.4302 10.0561Z" fill="#B9D2C1"/>
  <path d="M48.1313 6.73132C48.161 6.78837 48.1952 6.84541 48.2249 6.90246C48.1929 6.84541 48.161 6.78837 48.1313 6.73132Z" fill="#B9D2C1"/>
  <path d="M32.4009 9.85967C32.5378 9.63149 32.6747 9.40331 32.8139 9.19339C32.6747 9.41016 32.5378 9.63149 32.4009 9.85967Z" fill="#B9D2C1"/>
  <path d="M31.9492 10.6446C32.0831 10.4073 32.2177 10.1746 32.3531 9.94641C32.2185 10.1677 32.0816 10.4005 31.9492 10.6446Z" fill="#B9D2C1"/>
  <path d="M31.1074 12.2419C31.3698 11.7125 31.6391 11.1991 31.9152 10.7063C31.6391 11.1946 31.3698 11.708 31.1074 12.2419Z" fill="#B9D2C1"/>
  <path d="M30.3105 13.9602C30.4246 13.6955 30.5387 13.4376 30.6574 13.1798C30.541 13.4376 30.4246 13.6955 30.3105 13.9602Z" fill="#B9D2C1"/>
  <path d="M33.3022 8.45434C33.6065 8.01015 33.9176 7.5865 34.2355 7.18338C33.9176 7.58497 33.6065 8.00863 33.3022 8.45434Z" fill="#B9D2C1"/>
  <path d="M32.8569 9.12719C33.0007 8.89901 33.1444 8.68452 33.2905 8.47003C33.1444 8.68452 33.0007 8.90357 32.8569 9.12719Z" fill="#B9D2C1"/>
  <path d="M50.1852 17.0748C50.1852 17.2368 50.1852 17.4011 50.1738 17.5654C50.1784 17.4011 50.183 17.2368 50.1852 17.0748Z" fill="#B9D2C1"/>
  <path d="M29.9204 14.8911C30.0322 14.6173 30.1486 14.3481 30.2581 14.0811C30.144 14.3481 30.0322 14.6173 29.9204 14.8911Z" fill="#B9D2C1"/>
  <path d="M46.498 34.9116C46.5505 34.7632 46.6053 34.6126 46.6555 34.4552L46.498 34.9116Z" fill="#B9D2C1"/>
  <path d="M45.5489 37.4785C45.4622 37.7067 45.3732 37.9349 45.2842 38.1631C45.3732 37.9303 45.4622 37.7044 45.5489 37.4785Z" fill="#B9D2C1"/>
  <path d="M47.4127 32.1825C47.342 32.4107 47.269 32.6389 47.1846 32.867C47.269 32.6343 47.342 32.4061 47.4127 32.1825Z" fill="#B9D2C1"/>
  <path d="M48.9736 8.59116C49.001 8.66874 49.0284 8.7486 49.0581 8.81933C49.0284 8.75773 48.9965 8.67786 48.9736 8.59116Z" fill="#B9D2C1"/>
  <path d="M46.3566 35.311C46.279 35.5392 46.1969 35.7514 46.1147 35.975C46.1969 35.7445 46.279 35.53 46.3566 35.311Z" fill="#B9D2C1"/>
  <path d="M37.268 4.15759C37.0383 4.32949 36.8102 4.51202 36.5835 4.70521C36.8117 4.51354 37.0399 4.32873 37.268 4.15759Z" fill="#B9D2C1"/>
  <path d="M28.2934 19.6599C28.2797 19.7101 28.2637 19.7625 28.25 19.815C28.2637 19.7625 28.2797 19.7123 28.2956 19.6599H28.2934Z" fill="#B9D2C1"/>
  <path d="M37.2817 4.14852C37.4529 4.02074 37.624 3.8998 37.7974 3.78799C37.624 3.90208 37.4529 4.02759 37.2817 4.14852Z" fill="#B9D2C1"/>
  <path d="M50.1898 16.3492C50.1898 15.9749 50.1898 15.6099 50.167 15.2493C50.1807 15.6099 50.1898 15.9749 50.1898 16.3492Z" fill="#B9D2C1"/>
  <path d="M46.7144 4.72345C46.7554 4.7668 46.7942 4.81016 46.833 4.8558C46.7919 4.81016 46.7531 4.7668 46.7144 4.72345Z" fill="#B9D2C1"/>
  <path d="M47.7233 31.1808C47.6526 31.409 47.5795 31.6532 47.4951 31.8905C47.5795 31.6486 47.6526 31.409 47.7233 31.1808Z" fill="#B9D2C1"/>
  <path d="M28.8372 17.8734C28.8166 17.9396 28.7938 18.008 28.771 18.0765C28.7961 18.008 28.8166 17.9464 28.8372 17.8734Z" fill="#B9D2C1"/>
  <path d="M34.3932 6.9938L34.2632 7.15582C34.3065 7.10105 34.3499 7.04857 34.3955 6.99609L34.3932 6.9938Z" fill="#B9D2C1"/>
  <path d="M50.1376 18.5283C50.1376 18.6834 50.1193 18.8386 50.1079 18.9846C50.1125 18.8386 50.1216 18.6834 50.1376 18.5283Z" fill="#B9D2C1"/>
  <path d="M49.9658 12.8215C49.9795 12.9333 49.9955 13.0497 50.0092 13.1569C49.9955 13.0451 49.9795 12.9265 49.9658 12.8215Z" fill="#B9D2C1"/>
  <path d="M50.0938 14.0308C50.0938 14.1563 50.1143 14.2818 50.1234 14.4095C50.1143 14.2818 50.1029 14.1563 50.0938 14.0308Z" fill="#B9D2C1"/>
  <path d="M49.9316 20.8374C49.9133 20.9971 49.895 21.1591 49.8745 21.3211C49.895 21.1591 49.9087 20.9971 49.9316 20.8374Z" fill="#B9D2C1"/>
  <path d="M49.4388 24.146C49.4068 24.324 49.3726 24.5042 49.3384 24.6845C49.3726 24.5042 49.4068 24.3354 49.4388 24.146Z" fill="#B9D2C1"/>
  <path d="M48.9034 26.7428C48.8532 26.9709 48.803 27.1763 48.7505 27.3976C48.803 27.1763 48.8532 26.9595 48.9034 26.7428Z" fill="#B9D2C1"/>
  <path d="M49.587 23.295C49.5597 23.4684 49.53 23.6418 49.498 23.8175C49.53 23.651 49.5597 23.4684 49.587 23.295Z" fill="#B9D2C1"/>
  <path d="M48.7091 27.5595C48.4399 28.6639 48.1311 29.8048 47.7827 30.9822C48.1356 29.8033 48.4444 28.6624 48.7091 27.5595Z" fill="#B9D2C1"/>
  <path d="M28.8848 17.7182C28.9829 17.4239 29.081 17.1341 29.1814 16.8443C29.081 17.1432 28.9829 17.433 28.8848 17.7182Z" fill="#B9D2C1"/>
  <path d="M50.0371 13.4195C50.0485 13.5381 50.0622 13.6476 50.0713 13.7754C50.0622 13.6545 50.0485 13.5381 50.0371 13.4195Z" fill="#B9D2C1"/>
  <path d="M50.0803 19.2813C50.0803 19.4365 50.0552 19.5939 50.0415 19.7377C50.0552 19.5939 50.0689 19.4365 50.0803 19.2813Z" fill="#B9D2C1"/>
  <path d="M50.1669 17.7936C50.1669 17.9465 50.1532 18.1039 50.144 18.2499C50.1532 18.1039 50.16 17.9465 50.1669 17.7936Z" fill="#B9D2C1"/>
  <path d="M38.3175 34.0651L39.1845 31.0006H39.1982C40.4372 26.4644 41.5667 22.0264 42.1463 18.971C43.885 9.80283 45.1834 3.40242 42.5684 2.45776C39.6569 3.31343 35.99 7.58037 33.5166 16.8056C33.4025 17.23 33.2884 17.659 33.1812 18.088H33.2017L32.4738 21.1912L32.4396 21.1775C31.2553 26.3754 30.386 31.6395 29.8018 35.571C29.6239 36.7872 29.4368 38.2133 29.2656 39.5938H36.7773C37.2838 37.8505 37.82 35.9795 38.3563 34.0742L38.3175 34.0651Z" fill="#B9D2C1"/>
  <path d="M32.4399 21.1729L32.4742 21.1843L33.202 18.0833H33.1815L28.7731 18.0765H28.7708L23.938 18.0719L28.2939 19.6601H28.2962L32.4399 21.1729Z" fill="#242424"/>
  <path d="M62.4114 20.2144L62.4206 20.1938L63.7896 17.3416L63.7805 17.3393L57.5923 15.968L54.7446 15.3382L57.0584 16.8099L62.4114 20.2144Z" fill="#242424"/>
  <path d="M58.1053 32.0865L58.1122 32.0911L59.1299 29.0723L59.1139 29.07L52.0472 28.3877H52.0449L49.9092 28.1824L51.8327 29.0974L58.1053 32.0865Z" fill="#242424"/>
  <path d="M72.7637 20.7597L73.2451 20.6958L81.9433 19.523L73.5372 17.6907L73.0649 17.588L72.7637 20.7597Z" fill="#242424"/>
  <path d="M68.8779 33.4693L68.8003 33.6473L77.9001 35.3792L70.1055 30.7403L70.0918 30.7335L68.8779 33.4693Z" fill="#242424"/>
  <path d="M39.2027 31.0073L39.189 31.0004L38.3174 34.0671L38.3562 34.0694L46.6527 34.4665H46.655L47.57 34.5098L46.7577 34.1698L39.2027 31.0073Z" fill="#242424"/>
  <path d="M43.0682 14.1152L42.4863 17.2481L50.1874 16.899L51.7412 16.8283L50.1896 16.3423L43.0682 14.1152Z" fill="#242424"/>
  <path d="M34.4021 7.02106L36.6086 4.72101L36.5858 4.70732L36.5812 4.70504L28.6406 0L34.3839 6.99823V7.00052L34.4021 7.02106Z" fill="#242424"/>
  <path d="M42.1512 18.9777C41.5716 22.033 40.4421 26.471 39.2031 31.0072L46.7581 34.1698C46.7923 34.0694 46.8243 33.9713 46.8585 33.8732L47.0867 33.2092C47.1255 33.0928 47.162 32.981 47.1985 32.86C47.2738 32.6319 47.3468 32.4037 47.4267 32.1755C47.4586 32.0774 47.4883 31.977 47.518 31.8789C47.5933 31.6507 47.6663 31.4043 47.7461 31.1692L47.8055 30.973C48.1553 29.7956 48.4641 28.6547 48.7319 27.5503L48.7729 27.3883C48.8254 27.1601 48.8756 26.9502 48.9258 26.7335L48.9874 26.4665C49.0331 26.2634 49.0764 26.0649 49.1198 25.8641C49.1403 25.7637 49.1631 25.6633 49.1837 25.5629C49.2224 25.3735 49.2612 25.1841 49.2977 24.997C49.3206 24.8898 49.3411 24.7825 49.3616 24.6753C49.3959 24.495 49.4301 24.3148 49.462 24.1368C49.4826 24.0273 49.5031 23.9086 49.5214 23.8082C49.5533 23.6325 49.583 23.4591 49.6103 23.2857L49.6651 22.9594C49.6902 22.7882 49.7176 22.6194 49.7427 22.4505C49.7587 22.3433 49.7746 22.2338 49.7883 22.1242C49.8142 21.96 49.837 21.7957 49.8568 21.6314L49.8979 21.3119C49.9184 21.1499 49.9366 20.9879 49.9549 20.8282L49.9891 20.5156C50.0051 20.3581 50.0233 20.1984 50.037 20.0433L50.0644 19.7398C50.0781 19.5846 50.0918 19.4272 50.1032 19.2834L50.1237 18.9959C50.1237 18.8408 50.1443 18.6856 50.1534 18.5396L50.1671 18.2726C50.1671 18.1151 50.1831 17.9577 50.1899 17.8162C50.1899 17.7387 50.1899 17.6634 50.1899 17.5881C50.1899 17.4238 50.1899 17.2595 50.2013 17.0975C50.2013 17.0564 50.2013 17.0199 50.2013 16.9788V16.9195L42.5003 17.2709L43.0639 14.1152L50.1899 16.349C50.1899 15.9748 50.1899 15.6097 50.1671 15.2492V15.0667C50.1671 14.9298 50.1511 14.7929 50.1443 14.6583L50.1306 14.4164C50.1306 14.2886 50.1101 14.1631 50.1009 14.0376C50.1009 13.9532 50.0872 13.8665 50.0781 13.782C50.0781 13.6611 50.0553 13.5539 50.0439 13.4261L50.0165 13.1637C50.0028 13.0519 49.9868 12.9355 49.9732 12.8283L49.9389 12.5636L49.891 12.2418L49.8499 11.9817L49.7952 11.6737L49.7472 11.4158C49.729 11.3154 49.7085 11.2173 49.6879 11.1192L49.6332 10.8682C49.6126 10.7724 49.5921 10.6765 49.5693 10.583L49.5077 10.3365C49.4848 10.2453 49.462 10.154 49.4369 10.0627C49.4118 9.97146 49.3936 9.90301 49.3708 9.83455C49.3479 9.7661 49.3228 9.65885 49.2955 9.57214C49.2681 9.48544 49.2475 9.4147 49.2224 9.34396C49.1973 9.27323 49.17 9.17512 49.1426 9.09297C49.1152 9.01083 49.0901 8.94009 49.065 8.8648C49.0399 8.7895 49.008 8.70507 48.9806 8.63662L48.8916 8.40844C48.8642 8.33314 48.8368 8.26012 48.8072 8.18026C48.7775 8.1004 48.741 8.02282 48.7068 7.95208L48.6246 7.75357C48.5676 7.62807 48.5105 7.50485 48.4512 7.38163C48.4192 7.31546 48.3873 7.24929 48.3531 7.1854C48.3189 7.12151 48.2732 7.0234 48.2322 6.94354C48.1911 6.86367 48.1683 6.82945 48.1386 6.7724C48.1089 6.71536 48.061 6.62864 48.0199 6.56018C47.9789 6.49173 47.9538 6.44609 47.9195 6.38905L47.8009 6.19282C47.7667 6.13806 47.7301 6.0833 47.6936 6.02854C47.6571 5.97377 47.6138 5.90532 47.5727 5.84371L47.4609 5.68627C47.4198 5.62694 47.3788 5.56761 47.3354 5.51057C47.292 5.45352 47.2601 5.41016 47.2213 5.36225L47.0913 5.19568L46.9749 5.05421L46.838 4.89677C46.7992 4.85113 46.7604 4.80777 46.7193 4.76442L46.5801 4.61383L46.4592 4.49062L46.3132 4.34913L46.19 4.23504C46.142 4.18941 46.0918 4.14606 46.0416 4.10271L45.9161 3.99546L45.761 3.86996L45.6378 3.77413L45.4735 3.65548L45.3525 3.57105C45.2955 3.52998 45.2362 3.49347 45.1791 3.45696L45.0627 3.38166L44.8665 3.26985L44.7661 3.21281C44.668 3.15805 44.5676 3.10785 44.4672 3.05993C44.3257 2.99148 44.1843 2.93215 44.0428 2.87511L43.9698 2.84773C43.826 2.79297 43.6823 2.74504 43.5385 2.70169H43.5134C43.2081 2.61302 42.8959 2.54967 42.5802 2.5123C45.1882 3.40904 43.8899 9.80946 42.1512 18.9777Z" fill="#758963"/>
  <path d="M32.4402 21.1704L28.2965 19.6599C28.2805 19.7123 28.2646 19.7625 28.2509 19.815C28.2372 19.8675 28.2303 19.8903 28.2189 19.9268C28.1299 20.2508 28.0409 20.5771 27.9565 20.908V20.9376C26.6582 26.0009 25.5173 31.6255 24.5498 39.5867H29.2731C29.4442 38.2062 29.6313 36.7801 29.8093 35.5639C30.3798 31.6369 31.256 26.3683 32.4402 21.1704Z" fill="#758963"/>
  <path d="M33.1813 18.081C33.2909 17.6521 33.4095 17.2231 33.5168 16.7987C35.9993 7.58024 39.657 3.31332 42.5732 2.46449C40.9896 2.2751 39.3787 2.75199 37.7974 3.78564C37.624 3.89745 37.4528 4.01382 37.2817 4.14617H37.268C37.0398 4.3173 36.8117 4.50212 36.5835 4.69607L36.6063 4.70976L34.393 7.02121V6.99383C34.3473 7.04631 34.304 7.0988 34.2606 7.15356L34.2424 7.17637C33.9245 7.57797 33.6134 8.00162 33.3091 8.44733L33.2977 8.4633C33.1517 8.67779 33.0079 8.89684 32.8642 9.12046L32.8208 9.18662C32.6816 9.4148 32.5447 9.62702 32.4078 9.85292L32.3599 9.93277C32.226 10.161 32.0914 10.3937 31.956 10.631L31.9218 10.6949C31.6457 11.1877 31.3765 11.7012 31.114 12.2305L31.0844 12.2921C30.9589 12.5454 30.838 12.8033 30.717 13.0634L30.6645 13.1729C30.5482 13.4308 30.4364 13.6886 30.3177 13.9533L30.2652 14.0742C30.1511 14.3412 30.037 14.6104 29.9275 14.8842C29.9138 14.9162 29.9024 14.9481 29.8887 14.9824C29.6606 15.5551 29.4324 16.1461 29.2225 16.7485L29.1882 16.8466C29.0878 17.1364 28.9897 17.4262 28.8916 17.7205L28.8437 17.8665C28.8231 17.9327 28.8026 18.0012 28.7798 18.0696L33.1813 18.081Z" fill="#758963"/>
  <path d="M51.8328 29.0975V29.1318C51.7803 29.3166 51.7256 29.5037 51.6731 29.6908C51.6389 29.8049 51.6046 29.919 51.5727 30.0376C51.5195 30.2247 51.467 30.4141 51.4153 30.6058C51.3833 30.7244 51.3491 30.834 51.3171 30.9663C51.2669 31.1557 51.2145 31.3497 51.1643 31.5436L51.0684 31.9155L50.9178 32.5065C50.8882 32.6297 50.8562 32.7575 50.8266 32.883C50.7764 33.0838 50.7284 33.2869 50.6782 33.4923C50.6486 33.6178 50.6212 33.7433 50.5915 33.8688C50.5413 34.0787 50.4934 34.2886 50.4455 34.5031C50.4181 34.624 50.3907 34.7495 50.3634 34.8727C50.3154 35.1009 50.2675 35.3108 50.2196 35.5345L50.1443 35.8904L50.0006 36.5909C49.98 36.689 49.9618 36.7894 49.9412 36.8898C49.8888 37.1477 49.8385 37.4078 49.7883 37.6702C49.7087 37.9657 49.653 38.2671 49.6218 38.5715C49.5863 38.908 49.5771 39.2467 49.5944 39.5846H55.7233C56.4489 37.2526 57.2726 34.6583 58.1191 32.0844L51.8328 29.0975Z" fill="#758963"/>
  <path d="M59.1136 29.0678C60.2933 25.5927 61.4615 22.3822 62.4199 20.194V20.2122L57.0577 16.8055L56.9345 17.0063C56.8934 17.0793 56.85 17.1501 56.8067 17.2208L56.6082 17.5585L56.4781 17.7867L56.2819 18.1335C56.2408 18.2111 56.1974 18.2887 56.1541 18.3617C56.0879 18.4803 56.024 18.5899 55.9579 18.7222C55.9168 18.8021 55.8757 18.8819 55.8324 18.9618L55.6384 19.336L55.5129 19.5802L55.319 19.9703C55.2802 20.0525 55.2391 20.1346 55.198 20.2168C55.1341 20.3514 55.068 20.486 55.0041 20.6229L54.89 20.8694L54.6915 21.2983L54.5865 21.5265C54.518 21.6794 54.4496 21.8323 54.3834 21.9829C54.3538 22.0513 54.3218 22.1221 54.2922 22.1928C54.2214 22.3594 54.1484 22.5282 54.0777 22.6994L54.0229 22.8294C53.67 23.6889 53.3239 24.5917 52.9847 25.5379L52.9231 25.709C52.8569 25.8961 52.7907 26.0878 52.7246 26.2795C52.6972 26.3616 52.6675 26.4438 52.6401 26.5282C52.5785 26.7107 52.5169 26.8956 52.4576 27.0804L52.3618 27.3702C52.3024 27.5504 52.2454 27.7353 52.1883 27.9178C52.1541 28.0228 52.1222 28.1255 52.0902 28.2327C52.0743 28.2783 52.0606 28.3262 52.0469 28.3719L59.1136 29.0678Z" fill="#758963"/>
  <path d="M63.7804 17.3371C66.5185 11.838 68.3439 9.51512 70.2903 9.15003L70.2492 9.12949C70.1876 9.09526 70.1237 9.06332 70.0576 9.03137L69.8294 8.93097L69.64 8.8534C69.5533 8.81917 69.462 8.78951 69.373 8.76212L69.211 8.70965C69.0627 8.66857 68.9121 8.63206 68.7547 8.6024C68.6634 8.58642 68.5721 8.57045 68.4809 8.55904H68.3896C68.328 8.55904 68.2641 8.54308 68.2025 8.53851H68.0884H67.9172H67.6297H67.4997C67.4449 8.53851 67.3902 8.53851 67.3354 8.53851H67.2008L67.0365 8.55449L66.8996 8.57273L66.7353 8.59556L66.5938 8.61837L66.4295 8.65032L66.2858 8.67998L66.1192 8.71877L65.9732 8.75527L65.8043 8.80319L65.6583 8.84655L65.4894 8.90359L65.3388 8.9538L65.1677 9.01768L65.0171 9.07473L64.8437 9.14775L64.6931 9.21163L64.5128 9.29607L64.3645 9.36452L64.1706 9.46492L63.9926 9.55618C63.8983 9.60638 63.8047 9.65886 63.7119 9.71362L63.5545 9.80719L63.3788 9.91214L63.2122 10.0194L63.0434 10.1289L62.8722 10.2453L62.7079 10.3594L62.5322 10.4894L62.3702 10.6081L62.1923 10.7473L62.0325 10.8751L61.8523 11.0234L61.6925 11.1557L61.51 11.3132L61.3526 11.4546L61.17 11.6235L61.0126 11.7695L60.8277 11.9498L60.6726 12.1027L60.4855 12.292C60.4353 12.3445 60.3828 12.397 60.3326 12.4518L60.1432 12.6526C60.093 12.7073 60.0451 12.7621 59.9949 12.8146C59.9447 12.8671 59.8648 12.9583 59.8009 13.0428C59.737 13.1272 59.7074 13.15 59.6617 13.2025C59.6161 13.255 59.5248 13.3576 59.4587 13.4307C59.3925 13.5037 59.3742 13.5311 59.3332 13.5835C59.2921 13.636 59.1894 13.7547 59.105 13.8459L59.0137 13.96C58.7323 14.316 58.4516 14.6902 58.1717 15.0827L58.1101 15.1694L57.882 15.498L57.7747 15.6554L57.5625 15.9748L63.7804 17.3371Z" fill="#758963"/>
  <path d="M73.2453 20.6846L72.7638 20.7507L73.065 17.5791L73.5374 17.6818C73.6743 13.5745 72.5904 10.4325 70.2904 9.14102C68.3463 9.50611 66.5254 11.829 63.7804 17.3281L62.4114 20.1826C61.453 22.3708 60.2847 25.5813 59.1051 29.0565H59.121L58.1239 32.0935C57.2774 34.6674 56.4536 37.2618 55.728 39.5937H65.8295C66.8221 37.7364 67.8831 35.6645 68.8962 33.4763L70.1124 30.7381C70.4349 29.9943 70.7467 29.2443 71.0479 28.4883C72.068 25.9767 72.805 23.3594 73.2453 20.6846Z" fill="#B9D2C1"/>
  <path d="M52.0902 28.2487C52.0743 28.2944 52.0606 28.34 52.0469 28.3879C52.0606 28.3423 52.0743 28.2944 52.0902 28.2487Z" fill="#B9D2C1"/>
  <path d="M52.1909 27.9339C52.248 27.7514 52.305 27.5666 52.3643 27.3863C52.3027 27.5666 52.2457 27.7582 52.1909 27.9339Z" fill="#B9D2C1"/>
  <path d="M52.9854 25.5537C53.3231 24.606 53.6691 23.7032 54.0236 22.8452C53.6707 23.7062 53.3246 24.6091 52.9854 25.5537Z" fill="#B9D2C1"/>
  <path d="M49.4302 10.0561C49.4553 10.1473 49.4781 10.2386 49.5009 10.3299C49.4781 10.2386 49.453 10.1473 49.4302 10.0561Z" fill="#B9D2C1"/>
  <path d="M48.1313 6.73132C48.161 6.78837 48.1952 6.84541 48.2249 6.90246C48.1929 6.84541 48.161 6.78837 48.1313 6.73132Z" fill="#B9D2C1"/>
  <path d="M32.4009 9.85967C32.5378 9.63149 32.6747 9.40331 32.8139 9.19339C32.6747 9.41016 32.5378 9.63149 32.4009 9.85967Z" fill="#B9D2C1"/>
  <path d="M31.9492 10.6446C32.0831 10.4073 32.2177 10.1746 32.3531 9.94641C32.2185 10.1677 32.0816 10.4005 31.9492 10.6446Z" fill="#B9D2C1"/>
  <path d="M31.1074 12.2419C31.3698 11.7125 31.6391 11.1991 31.9152 10.7063C31.6391 11.1946 31.3698 11.708 31.1074 12.2419Z" fill="#B9D2C1"/>
  <path d="M30.3105 13.9602C30.4246 13.6955 30.5387 13.4376 30.6574 13.1798C30.541 13.4376 30.4246 13.6955 30.3105 13.9602Z" fill="#B9D2C1"/>
  <path d="M33.3022 8.45434C33.6065 8.01015 33.9176 7.5865 34.2355 7.18338C33.9176 7.58497 33.6065 8.00863 33.3022 8.45434Z" fill="#B9D2C1"/>
  <path d="M32.8569 9.12719C33.0007 8.89901 33.1444 8.68452 33.2905 8.47003C33.1444 8.68452 33.0007 8.90357 32.8569 9.12719Z" fill="#B9D2C1"/>
  <path d="M50.1852 17.0748C50.1852 17.2368 50.1852 17.4011 50.1738 17.5654C50.1784 17.4011 50.183 17.2368 50.1852 17.0748Z" fill="#B9D2C1"/>
  <path d="M29.9204 14.8911C30.0322 14.6173 30.1486 14.3481 30.2581 14.0811C30.144 14.3481 30.0322 14.6173 29.9204 14.8911Z" fill="#B9D2C1"/>
  <path d="M47.4127 32.1825C47.342 32.4107 47.269 32.6389 47.1846 32.867C47.269 32.6343 47.342 32.4061 47.4127 32.1825Z" fill="#B9D2C1"/>
  <path d="M48.9736 8.59116C49.001 8.66874 49.0284 8.7486 49.0581 8.81933C49.0284 8.75773 48.9965 8.67786 48.9736 8.59116Z" fill="#B9D2C1"/>
  <path d="M37.268 4.15759C37.0383 4.32949 36.8102 4.51202 36.5835 4.70521C36.8117 4.51354 37.0399 4.32873 37.268 4.15759Z" fill="#B9D2C1"/>
  <path d="M28.2934 19.6599C28.2797 19.7101 28.2637 19.7625 28.25 19.815C28.2637 19.7625 28.2797 19.7123 28.2956 19.6599H28.2934Z" fill="#B9D2C1"/>
  <path d="M37.2817 4.14852C37.4529 4.02074 37.624 3.8998 37.7974 3.78799C37.624 3.90208 37.4529 4.02759 37.2817 4.14852Z" fill="#B9D2C1"/>
  <path d="M50.1898 16.3492C50.1898 15.9749 50.1898 15.6099 50.167 15.2493C50.1807 15.6099 50.1898 15.9749 50.1898 16.3492Z" fill="#B9D2C1"/>
  <path d="M46.7144 4.72345C46.7554 4.7668 46.7942 4.81016 46.833 4.8558C46.7919 4.81016 46.7531 4.7668 46.7144 4.72345Z" fill="#B9D2C1"/>
  <path d="M47.7233 31.1808C47.6526 31.409 47.5795 31.6532 47.4951 31.8905C47.5795 31.6486 47.6526 31.409 47.7233 31.1808Z" fill="#B9D2C1"/>
  <path d="M28.8372 17.8734C28.8166 17.9396 28.7938 18.008 28.771 18.0765C28.7961 18.008 28.8166 17.9464 28.8372 17.8734Z" fill="#B9D2C1"/>
  <path d="M34.3932 6.9938L34.2632 7.15582C34.3065 7.10105 34.3499 7.04857 34.3955 6.99609L34.3932 6.9938Z" fill="#B9D2C1"/>
  <path d="M50.1376 18.5283C50.1376 18.6834 50.1193 18.8386 50.1079 18.9846C50.1125 18.8386 50.1216 18.6834 50.1376 18.5283Z" fill="#B9D2C1"/>
  <path d="M49.9658 12.8215C49.9795 12.9333 49.9955 13.0497 50.0092 13.1569C49.9955 13.0451 49.9795 12.9265 49.9658 12.8215Z" fill="#B9D2C1"/>
  <path d="M50.0938 14.0308C50.0938 14.1563 50.1143 14.2818 50.1234 14.4095C50.1143 14.2818 50.1029 14.1563 50.0938 14.0308Z" fill="#B9D2C1"/>
  <path d="M49.9316 20.8374C49.9133 20.9971 49.895 21.1591 49.8745 21.3211C49.895 21.1591 49.9087 20.9971 49.9316 20.8374Z" fill="#B9D2C1"/>
  <path d="M49.4388 24.146C49.4068 24.324 49.3726 24.5042 49.3384 24.6845C49.3726 24.5042 49.4068 24.3354 49.4388 24.146Z" fill="#B9D2C1"/>
  <path d="M48.9034 26.7428C48.8532 26.9709 48.803 27.1763 48.7505 27.3976C48.803 27.1763 48.8532 26.9595 48.9034 26.7428Z" fill="#B9D2C1"/>
  <path d="M49.587 23.295C49.5597 23.4684 49.53 23.6418 49.498 23.8175C49.53 23.651 49.5597 23.4684 49.587 23.295Z" fill="#B9D2C1"/>
  <path d="M48.7091 27.5595C48.4399 28.6639 48.1311 29.8048 47.7827 30.9822C48.1356 29.8033 48.4444 28.6624 48.7091 27.5595Z" fill="#B9D2C1"/>
  <path d="M28.8848 17.7182C28.9829 17.4239 29.081 17.1341 29.1814 16.8443C29.081 17.1432 28.9829 17.433 28.8848 17.7182Z" fill="#B9D2C1"/>
  <path d="M50.0371 13.4195C50.0485 13.5381 50.0622 13.6476 50.0713 13.7754C50.0622 13.6545 50.0485 13.5381 50.0371 13.4195Z" fill="#B9D2C1"/>
  <path d="M50.0803 19.2813C50.0803 19.4365 50.0552 19.5939 50.0415 19.7377C50.0552 19.5939 50.0689 19.4365 50.0803 19.2813Z" fill="#B9D2C1"/>
  <path d="M50.1669 17.7936C50.1669 17.9465 50.1532 18.1039 50.144 18.2499C50.1532 18.1039 50.16 17.9465 50.1669 17.7936Z" fill="#B9D2C1"/>
  <path d="M38.3175 34.0651L39.1845 31.0006H39.1982C40.4372 26.4644 41.5667 22.0264 42.1463 18.971C43.885 9.80283 45.1834 3.40242 42.5684 2.45776C39.6569 3.31343 35.99 7.58037 33.5166 16.8056C33.4025 17.23 33.2884 17.659 33.1812 18.088H33.2017L32.4738 21.1912L32.4396 21.1775C31.2553 26.3754 30.386 31.6395 29.8018 35.571C29.6239 36.7872 29.4368 38.2133 29.2656 39.5938H36.7773C37.2838 37.8505 37.82 35.9795 38.3563 34.0742L38.3175 34.0651Z" fill="#B9D2C1"/>
</svg>