<svg width="101" height="107" viewBox="0 0 101 107" fill="none" xmlns="http://www.w3.org/2000/svg">
<path d="M98 0H0L8.43197 107H84.0599L98 0Z" fill="#FFCC05"/>
<path d="M101 0H79.8765L75 107H93.4839L101 0Z" fill="#FCB912"/>
<path d="M18.8555 35.6793C18.8555 35.6793 25.1405 27.5232 31.04 27.6018C38.2635 27.6981 49.8593 37.9213 49.8593 37.9213L50.3633 35.6845L47.9842 31.2455C47.9842 31.2455 38.7472 22.8802 31.0209 22.5926C22.3956 22.2709 15.1665 31.097 15.1665 31.097L18.8555 35.6793Z" fill="#242424"/>
<path d="M62.471 42.2733L78.0451 44.1105L86.5097 45.3779L86.5097 42.2095C86.5097 42.2095 86.5098 42.2733 76.8359 40.9422C62.471 39.1542 62.4709 39.0412 62.4709 39.0412L62.471 42.2733Z" fill="#242424"/>
<path d="M33.1922 75.5888C33.1922 76.8561 48.0773 77.4895 53.1447 77.4897C58.212 77.4899 71.7708 77.837 71.8875 76.8561C72.0041 75.8751 70.6264 74.3059 53.1445 73.6877C37.8492 73.1471 33.1922 74.3215 33.1922 75.5888Z" fill="#242424"/>
<path d="M71.0644 51.8714C70.7854 50.1909 71.3838 46.631 73.4337 45.525C75.7828 44.2592 78.7666 45.1923 79.8057 49.3225C80.8448 53.4526 77.493 56.4984 75.059 55.9325C72.625 55.3665 71.2868 53.1934 71.0644 51.8714Z" fill="#242424"/>
<path d="M43.5238 37.897C46.5178 39.6928 49.9925 44.4153 46.6051 47.348C42.7261 50.712 34.1813 51.161 25.9861 47.0331C17.7909 42.9053 23.7352 36.5386 30.3569 35.3317C36.9785 34.1249 41.2073 36.4978 43.5238 37.897Z" fill="#242424"/>
</svg>
