<svg width="34" height="42" viewBox="0 0 34 42" fill="none" xmlns="http://www.w3.org/2000/svg">
<g clip-path="url(#clip0_2071_534)">
<path fill-rule="evenodd" clip-rule="evenodd" d="M17.5305 17.1483V16.7505C17.4634 13.6004 20.9792 12.2269 20.9792 7.47754C20.9797 6.00029 20.6172 4.54557 19.9235 3.24158C19.2299 1.9376 18.2264 0.824368 17.0014 0C15.7757 0.823721 14.7714 1.93674 14.0772 3.24083C13.383 4.54491 13.0203 5.99996 13.021 7.47754C13.021 12.2269 16.5368 13.6004 16.4723 16.7505V17.1483C16.4535 18.9384 15.8385 19.9087 13.8241 22.3305C13.1716 23.0975 12.8102 24.0701 12.8035 25.0774C12.8035 26.1916 13.2457 27.2602 14.033 28.048C14.8203 28.8359 15.8881 29.2785 17.0014 29.2785C18.1148 29.2785 19.1826 28.8359 19.9698 28.048C20.7571 27.2602 21.1994 26.1916 21.1994 25.0774C21.1917 24.0699 20.8294 23.0972 20.1761 22.3305C18.1698 19.9087 17.5467 18.9384 17.5305 17.1483Z" fill="#758963"/>
<path fill-rule="evenodd" clip-rule="evenodd" d="M17.0014 33.5979C16.1712 33.5979 15.3595 33.8443 14.6692 34.3059C13.9788 34.7675 13.4408 35.4236 13.123 36.1913C12.8053 36.9589 12.7222 37.8036 12.8841 38.6186C13.0461 39.4335 13.4459 40.1821 14.033 40.7696C14.6201 41.3571 15.3681 41.7572 16.1824 41.9193C16.9968 42.0814 17.8408 41.9982 18.6079 41.6803C19.375 41.3623 20.0306 40.8238 20.4919 40.133C20.9532 39.4421 21.1994 38.6299 21.1994 37.799C21.1994 36.6848 20.7571 35.6162 19.9698 34.8284C19.1826 34.0405 18.1148 33.5979 17.0014 33.5979Z" fill="#3F5028"/>
<path fill-rule="evenodd" clip-rule="evenodd" d="M24.7553 24.4002V24.0454C24.6936 21.242 27.8226 20.0136 27.8226 15.7937C27.8234 14.4789 27.501 13.1841 26.8836 12.0235C26.2663 10.8629 25.373 9.87216 24.2826 9.13867C23.1922 9.87216 22.299 10.8629 21.6816 12.0235C21.0643 13.1841 20.7418 14.4789 20.7427 15.7937C20.7427 20.019 23.8717 21.242 23.8126 24.0454V24.4002C23.7938 25.9914 23.2486 26.8541 21.4571 29.0098C20.875 29.6911 20.5525 30.5566 20.5466 31.453C20.5466 32.4446 20.9402 33.3956 21.6409 34.0967C22.3415 34.7979 23.2918 35.1918 24.2826 35.1918C25.2735 35.1918 26.2237 34.7979 26.9244 34.0967C27.625 33.3956 28.0186 32.4446 28.0186 31.453C28.0128 30.5566 27.6902 29.6911 27.1081 29.0098C25.3167 26.8488 24.7688 25.9914 24.7553 24.4002Z" fill="#3F5028"/>
<path fill-rule="evenodd" clip-rule="evenodd" d="M10.19 24.4002V24.0454C10.1309 21.242 13.2573 20.0136 13.2573 15.7937C13.2581 14.4789 12.9357 13.1841 12.3183 12.0235C11.701 10.8629 10.8077 9.87216 9.71732 9.13867C8.62693 9.87216 7.73367 10.8629 7.11633 12.0235C6.49898 13.1841 6.17652 14.4789 6.17739 15.7937C6.17739 20.019 9.30639 21.242 9.2473 24.0454V24.4002C9.23118 25.9914 8.68327 26.8541 6.89182 29.0098C6.31168 29.6921 5.99027 30.5571 5.98401 31.453C5.97063 31.9523 6.05733 32.4491 6.239 32.9143C6.42067 33.3794 6.69362 33.8034 7.04173 34.1613C7.38985 34.5191 7.80608 34.8036 8.26586 34.9978C8.72563 35.192 9.21962 35.292 9.71866 35.292C10.2177 35.292 10.7117 35.192 11.1715 34.9978C11.6312 34.8036 12.0475 34.5191 12.3956 34.1613C12.7437 33.8034 13.0167 33.3794 13.1983 32.9143C13.38 32.4491 13.4667 31.9523 13.4533 31.453C13.4471 30.5571 13.1256 29.6921 12.5455 29.0098C10.7514 26.8488 10.2061 25.9914 10.19 24.4002Z" fill="#758963"/>
<path fill-rule="evenodd" clip-rule="evenodd" d="M3.25792 20.8441C2.61356 20.8441 1.98368 21.0353 1.44792 21.3936C0.912157 21.7518 0.494582 22.261 0.247998 22.8568C0.00141368 23.4525 -0.0631068 24.1081 0.0626007 24.7405C0.188308 25.373 0.498598 25.9539 0.954226 26.4099C1.40985 26.8658 1.99036 27.1763 2.62233 27.3021C3.25431 27.4279 3.90937 27.3634 4.50467 27.1166C5.09998 26.8698 5.6088 26.452 5.96678 25.9158C6.32477 25.3796 6.51584 24.7493 6.51584 24.1044C6.51584 23.2398 6.1726 22.4105 5.56162 21.799C4.95064 21.1876 4.12197 20.8441 3.25792 20.8441Z" fill="#758963"/>
<path fill-rule="evenodd" clip-rule="evenodd" d="M30.7421 20.8441C30.0977 20.8441 29.4678 21.0353 28.9321 21.3936C28.3963 21.7518 27.9787 22.261 27.7321 22.8568C27.4855 23.4525 27.421 24.1081 27.5467 24.7405C27.6724 25.373 27.9827 25.9539 28.4384 26.4099C28.894 26.8658 29.4745 27.1763 30.1065 27.3021C30.7384 27.4279 31.3935 27.3634 31.9888 27.1166C32.5841 26.8698 33.0929 26.452 33.4509 25.9158C33.8089 25.3796 34 24.7493 34 24.1044C34 23.2398 33.6567 22.4105 33.0457 21.799C32.4348 21.1876 31.6061 20.8441 30.7421 20.8441Z" fill="#3F5028"/>
<path fill-rule="evenodd" clip-rule="evenodd" d="M17.5305 17.1484V16.7506C17.4634 13.6004 20.9792 12.227 20.9792 7.47756C20.9812 5.9884 20.6119 4.52226 19.9048 3.21198C17.523 5.56563 15.4915 8.24952 13.8724 11.1814C14.9092 13.294 16.5126 14.6137 16.4696 16.7506V17.1484C16.4508 18.9385 15.8358 19.9088 13.8214 22.3305C13.1689 23.0975 12.8075 24.0702 12.8008 25.0775C12.8008 26.1917 13.2431 27.2602 14.0303 28.0481C14.8176 28.8359 15.8854 29.2785 16.9987 29.2785C18.1121 29.2785 19.1799 28.8359 19.9672 28.0481C20.7544 27.2602 21.1967 26.1917 21.1967 25.0775C21.189 24.0699 20.8267 23.0972 20.1734 22.3305C18.1698 19.9088 17.5467 18.9385 17.5305 17.1484Z" fill="#626C57"/>
<path fill-rule="evenodd" clip-rule="evenodd" d="M17.0014 33.5979C16.1712 33.5979 15.3595 33.8443 14.6692 34.3059C13.9788 34.7675 13.4408 35.4236 13.123 36.1913C12.8053 36.9589 12.7222 37.8036 12.8841 38.6186C13.0461 39.4335 13.4459 40.1821 14.033 40.7696C14.6201 41.3571 15.3681 41.7572 16.1824 41.9193C16.9968 42.0814 17.8408 41.9982 18.6079 41.6803C19.375 41.3623 20.0306 40.8238 20.4919 40.133C20.9532 39.4421 21.1994 38.6299 21.1994 37.799C21.1994 36.6848 20.7571 35.6162 19.9698 34.8284C19.1826 34.0405 18.1148 33.5979 17.0014 33.5979Z" fill="#626C57"/>
<path fill-rule="evenodd" clip-rule="evenodd" d="M24.7526 24.4002V24.0454C24.6936 21.242 27.8226 20.0136 27.8226 15.7937C27.8234 14.4789 27.501 13.1841 26.8836 12.0235C26.2663 10.8629 25.373 9.87216 24.2826 9.13867C23.1922 9.87216 22.299 10.8629 21.6816 12.0235C21.0643 13.1841 20.7418 14.4789 20.7427 15.7937C20.7427 20.019 23.8717 21.242 23.8126 24.0454V24.4002C23.7938 25.9914 23.2486 26.8541 21.4571 29.0098C20.875 29.6911 20.5525 30.5566 20.5466 31.453C20.5466 32.4446 20.9402 33.3956 21.6409 34.0967C22.3415 34.7979 23.2918 35.1918 24.2826 35.1918C25.2735 35.1918 26.2237 34.7979 26.9244 34.0967C27.625 33.3956 28.0186 32.4446 28.0186 31.453C28.0128 30.5566 27.6902 29.6911 27.1081 29.0098C25.3167 26.8488 24.7688 25.9914 24.7526 24.4002Z" fill="#626C57"/>
<path fill-rule="evenodd" clip-rule="evenodd" d="M10.19 24.4001V24.0453C10.1309 21.2419 13.2572 20.0136 13.2572 15.7937C13.2585 14.9189 13.1161 14.0499 12.8355 13.2214C9.64574 20.0634 8.75258 27.7543 10.2894 35.146C11.1705 35.01 11.9739 34.5628 12.5542 33.8854C13.1345 33.2081 13.4534 32.3452 13.4533 31.453C13.447 30.5571 13.1256 29.6921 12.5455 29.0097C10.7513 26.8487 10.2061 25.9913 10.19 24.4001Z" fill="#626C57"/>
<path fill-rule="evenodd" clip-rule="evenodd" d="M30.7421 20.8441C30.0977 20.8441 29.4678 21.0353 28.9321 21.3936C28.3963 21.7518 27.9787 22.261 27.7321 22.8568C27.4855 23.4525 27.421 24.1081 27.5467 24.7405C27.6724 25.373 27.9827 25.9539 28.4384 26.4099C28.894 26.8658 29.4745 27.1763 30.1065 27.3021C30.7384 27.4279 31.3935 27.3634 31.9888 27.1166C32.5841 26.8698 33.0929 26.452 33.4509 25.9158C33.8089 25.3796 34 24.7493 34 24.1044C34 23.2398 33.6567 22.4105 33.0457 21.799C32.4348 21.1876 31.6061 20.8441 30.7421 20.8441Z" fill="#3F5028"/>
<path fill-rule="evenodd" clip-rule="evenodd" d="M16.6494 29.2678C16.7649 29.2678 16.8831 29.2839 17.0013 29.2839C18.1146 29.2839 19.1824 28.8413 19.9697 28.0534C20.7569 27.2656 21.1992 26.197 21.1992 25.0828C21.192 24.1184 20.8598 23.1847 20.2565 22.4326C18.8041 24.5698 17.5943 26.8624 16.6494 29.2678Z" fill="#3F5028"/>
<path fill-rule="evenodd" clip-rule="evenodd" d="M17.0013 33.5979C16.3668 33.5967 15.7404 33.7401 15.1695 34.0172C14.6366 36.3052 14.3352 38.641 14.2698 40.9894C14.7837 41.43 15.3963 41.7397 16.0556 41.8922C16.7149 42.0446 17.4013 42.0354 18.0562 41.8651C18.7111 41.6949 19.3152 41.3688 19.8171 40.9145C20.3189 40.4602 20.7035 39.8913 20.9382 39.2562C21.1729 38.621 21.2508 37.9385 21.165 37.2668C21.0793 36.5951 20.8326 35.9541 20.446 35.3984C20.0593 34.8427 19.5441 34.3887 18.9443 34.0752C18.3446 33.7617 17.6779 33.598 17.0013 33.5979Z" fill="#3F5028"/>
<path fill-rule="evenodd" clip-rule="evenodd" d="M24.7526 24.4002V24.0454C24.6936 21.242 27.8226 20.0136 27.8226 15.7937C27.8228 15.3497 27.786 14.9065 27.7124 14.4686C25.6146 16.1032 23.7097 17.9716 22.0346 20.0378C22.886 21.4113 23.8448 22.481 23.8126 24.0454V24.4002C23.7938 25.9913 23.2486 26.8541 21.4571 29.0098C20.875 29.6911 20.5525 30.5566 20.5466 31.453C20.5466 32.4446 20.9402 33.3956 21.6409 34.0967C22.3415 34.7979 23.2918 35.1918 24.2826 35.1918C25.2735 35.1918 26.2237 34.7979 26.9244 34.0967C27.625 33.3956 28.0186 32.4446 28.0186 31.453C28.0128 30.5566 27.6902 29.6911 27.1081 29.0098C25.3167 26.8488 24.7688 25.9913 24.7526 24.4002Z" fill="#3F5028"/>
<path fill-rule="evenodd" clip-rule="evenodd" d="M30.7421 20.8441C30.0977 20.8441 29.4678 21.0353 28.9321 21.3936C28.3963 21.7518 27.9787 22.261 27.7321 22.8568C27.4855 23.4525 27.421 24.1081 27.5467 24.7405C27.6724 25.373 27.9827 25.9539 28.4384 26.4099C28.894 26.8658 29.4745 27.1763 30.1065 27.3021C30.7384 27.4279 31.3935 27.3634 31.9888 27.1166C32.5841 26.8698 33.0929 26.452 33.4509 25.9158C33.8089 25.3796 34 24.7493 34 24.1044C34 23.2398 33.6567 22.4105 33.0457 21.799C32.4348 21.1876 31.6061 20.8441 30.7421 20.8441Z" fill="#3F5028"/>
</g>
<defs>
<clipPath id="clip0_2071_534">
<rect width="34" height="42" fill="white"/>
</clipPath>
</defs>
</svg>
