<svg width="160" height="227" viewBox="0 0 160 227" fill="none" xmlns="http://www.w3.org/2000/svg">
<path d="M76.8604 93.2493H80.4568C85.6547 83.7444 107.948 43.4725 128.022 14.7775C128.022 14.7775 96.671 50.1817 76.8604 93.2493Z" fill="#3F5028"/>
<path d="M92.6104 77.5225C89.0906 83.4376 85.9379 88.8357 83.4023 93.2495H86.4316C87.3658 91.9584 88.39 90.5205 89.4943 88.9524C90.3309 85.0902 91.3711 81.2749 92.6104 77.5225Z" fill="#3F5028"/>
<path d="M120.875 30.9583C122.947 28.9577 125.121 27.0646 127.387 25.2867C130.056 19.7119 132.552 14.0536 134.797 8.38196C134.787 8.3953 128.882 17.9069 120.875 30.9583Z" fill="#3F5028"/>
<path d="M86.4316 93.2494H88.6569C88.9083 91.7992 89.1874 90.3668 89.4943 88.9523C88.39 90.5203 87.3658 91.9582 86.4316 93.2494Z" fill="#626C57"/>
<path d="M107.463 46.9691C111.364 41.1816 115.855 35.8148 120.865 30.9551C128.872 17.9037 134.787 8.39209 134.787 8.39209C132.542 14.0637 130.04 19.7353 127.377 25.2969C129.476 23.6554 131.538 22.2108 133.543 20.9397C136.157 14.2558 138.408 7.43549 140.285 0.508545C140.285 0.508545 111.126 10.1503 86.1713 54.6158C85.8376 55.243 85.454 55.9036 85.077 56.5975C82.3281 63.7722 78.98 70.7027 75.0682 77.3156C72.8096 82.5148 70.8382 87.8341 69.1631 93.2495H71.9021C75.2617 84.8389 84.8034 62.4026 97.9249 43.9798C117.402 16.5959 132.425 7.64811 132.425 7.64811C132.425 7.64811 122.907 15.545 103.31 42.2116C88.0362 62.9898 78.1776 84.6854 74.5711 93.2562H76.8832C96.6938 50.1886 128.044 14.7843 128.044 14.7843C107.97 43.4761 85.6742 83.7512 80.4796 93.2562H83.4255C85.9444 88.8423 89.0972 83.4443 92.6336 77.5291C97.2176 63.5302 103.713 52.4806 107.463 46.9691Z" fill="#626C57"/>
<path d="M140.295 114.181L132.739 123.776C134.073 119.079 133.653 112.526 133.653 112.526L131.157 112.416C131.157 112.416 129.86 118.475 129.015 126.482C120.841 135.231 111.944 143.277 102.419 150.533L105.422 154.076C118.123 143.597 131.584 129.361 131.584 129.361C136.421 129.415 141.247 128.901 145.964 127.83L145.216 124.717L135.127 125.611C137.87 123.025 143.068 116.37 143.068 116.37L140.295 114.181Z" fill="#242424"/>
<path d="M125.105 93.2528H21.2012L39.6239 195.168L101.955 194.912L125.105 93.2528Z" fill="white"/>
<path d="M62.8542 167.017C57.1126 167.744 52.7421 165.633 49.4893 162.597C54.3336 157.88 60.52 154.78 67.198 153.722C71.9956 152.931 76.1292 153.182 79.6623 154.056C76.5462 159.387 71.1081 165.969 62.8542 167.017Z" fill="#9A4D19"/>
<path d="M82.9552 146.933L41.3188 148.368C41.3188 148.368 46.5834 169.079 62.8577 167.017C77.0934 165.212 82.9552 146.933 82.9552 146.933Z" fill="#242424"/>
<path d="M82.5982 134.089C82.3714 132.787 82.8651 130.042 84.5566 129.188C86.495 128.207 88.9538 128.927 89.8112 132.12C90.6686 135.313 87.9062 137.662 85.8978 137.225C83.8894 136.788 82.775 135.099 82.5982 134.089Z" fill="#242424"/>
<path d="M41.6826 129.658C42.5934 130.685 43.6543 133.391 42.6234 135.069C41.439 136.994 38.8301 137.248 36.3279 134.886C33.8257 132.524 35.6406 128.881 37.6624 128.19C39.6842 127.499 40.9719 128.857 41.6826 129.658Z" fill="#242424"/>
<path d="M121.343 110.001H24.2246L25.0186 114.364H120.335L121.343 110.001Z" fill="#FFCC05"/>
<path d="M123.281 101.573H22.6963L23.4703 105.937H122.277L123.281 101.573Z" fill="#FFCC05"/>
<path d="M125.106 93.2528H101.072L88.6875 194.912H101.956L125.106 93.2528Z" fill="#E6E7E8"/>
<path d="M30.2859 143.497C22.1655 136.757 16.9409 131.463 16.9409 131.459C15.7499 123.479 14.1918 117.487 14.1918 117.487L11.703 117.707C11.703 117.707 11.5529 124.27 13.1009 128.904L5.13727 119.646L2.46828 121.961C2.46828 121.961 7.94639 128.383 10.8089 130.852L0.69005 130.392L0.0761719 133.531C4.83467 134.4 9.67871 134.707 14.5088 134.445C14.5088 134.445 22.1388 141.849 31.4069 149.712L30.2859 143.497Z" fill="#242424"/>
<path d="M118.917 44.5537C133.596 25.8707 142.804 19.8187 142.804 19.8187C142.804 19.8187 131.097 24.0424 114.733 44.5737C99.3597 63.8572 92.7139 88.2418 91.4795 93.2495H93.6647C95.8766 87.0341 105.328 61.8354 118.917 44.5537Z" fill="#626C57"/>
<path d="M52.969 193.694C52.969 193.694 51.4076 201.821 54.6038 205.507C58.5172 210.021 70.868 212.137 70.868 212.137L67.4116 226.726L62.9844 225.361L65.8436 214.352C65.8436 214.352 55.8716 212.781 51.5745 208.046C46.777 202.762 48.2382 193.701 48.2382 193.701L52.969 193.694Z" fill="#242424"/>
<path d="M74.1243 192.813C74.1243 192.813 72.5663 200.94 75.7591 204.627C79.6725 209.141 92.0233 211.256 92.0233 211.256L88.5669 225.845L84.1397 224.481L86.9989 213.471C86.9989 213.471 77.0268 211.9 72.7297 207.166C67.9322 201.881 69.3935 192.82 69.3935 192.82L74.1243 192.813Z" fill="#242424"/>
<path d="M132.402 7.64795C132.402 7.64795 117.389 16.5958 97.9016 43.9797C84.7969 62.4024 75.2552 84.8387 71.8789 93.2494H74.5479C78.1544 84.6852 88.013 62.9896 103.286 42.2048C122.877 15.5449 132.402 7.64795 132.402 7.64795Z" fill="#3F5028"/>
<path d="M90.2552 8.88232C90.2552 8.88232 77.9311 29.0866 65.6704 57.4581C60.8429 68.6312 54.8977 87.2174 52.9927 93.2493H54.9944C56.439 89.7363 60.0955 81.0287 66.004 68.1508C73.8876 51.0458 90.2552 8.88232 90.2552 8.88232Z" fill="#626C57"/>
<path d="M101.395 93.2495H104.064C111.04 84.3217 141.07 45.0974 153.968 15.3715C153.958 15.3848 116.512 68.668 101.395 93.2495Z" fill="#626C57"/>
<path d="M94.5186 2.55042C94.5186 2.55042 50.0631 22.8248 43.7275 93.2496H47.5442C48.6518 86.4203 52.7321 63.2701 59.0676 50.5757C70.9346 26.7983 87.4257 9.99692 87.4257 9.99692C87.4257 9.99692 73.7738 28.0126 63.2312 51.2863C56.7689 65.5521 51.2207 86.7339 49.586 93.2496H52.999C54.8906 87.2177 60.8358 68.6314 65.6767 57.4584C77.9374 29.1003 90.2615 8.88261 90.2615 8.88261C90.2615 8.88261 73.8939 51.0461 66.037 68.151C60.1252 81.0289 56.4687 89.7365 55.0274 93.2496H57.9833C60.1252 88.7023 65.967 76.3449 74.371 58.923C85.107 36.6635 92.1198 6.21028 92.1198 6.21028C86.3147 54.4824 65.4565 85.2793 59.4779 93.263H63.8151C68.0123 88.2801 71.7801 82.9509 75.0782 77.3324C78.99 70.7195 82.3381 63.789 85.087 56.6143C90.6252 42.1783 94.8522 24.0592 94.5186 2.55042Z" fill="#758963"/>
<path d="M74.3613 58.9228C65.9573 76.3447 60.1155 88.7022 57.9736 93.2495H59.4683C65.4468 85.2692 86.3051 54.4689 92.1101 6.19678C92.1101 6.19678 85.0973 36.6634 74.3613 58.9228Z" fill="#626C57"/>
<path d="M7.53613 199.619C7.57617 199.746 7.60952 199.872 7.64621 200.003C7.60952 199.879 7.57617 199.746 7.53613 199.619Z" fill="#B9D2C1"/>
<path d="M87.4328 9.9967C87.4328 9.9967 70.9417 26.798 59.0747 50.5755C52.7358 63.2532 48.6589 86.4201 47.5513 93.2494H49.5931C51.2278 86.7337 56.776 65.5586 63.2383 51.2861C73.7808 28.0191 87.4328 9.9967 87.4328 9.9967Z" fill="#626C57"/>
<path d="M149.934 17.3865C149.934 17.3865 134.02 29.814 118.3 52.0634C111.347 61.9087 102.619 75.6941 96.4141 93.2461H98.4158C100.951 88.6487 109.949 72.6748 122.34 54.629C129.736 43.8696 138.945 31.1919 149.934 17.3865Z" fill="#626C57"/>
<path d="M127.378 25.3001C125.111 27.078 122.938 28.971 120.865 30.9717C115.856 35.8314 111.364 41.1981 107.464 46.9857C103.714 52.4972 97.218 63.5468 92.6107 77.539C91.3714 81.2915 90.3312 85.1068 89.4946 88.969C89.1877 90.3836 88.9086 91.8159 88.6572 93.2661H91.4797C92.7241 88.2617 99.3599 63.8738 114.733 44.5902C131.098 24.059 142.804 19.8353 142.804 19.8353C142.804 19.8353 133.61 25.8939 118.917 44.5702C105.328 61.852 95.8768 87.0507 93.6649 93.2794H96.414C102.633 75.7274 111.347 61.9421 118.3 52.0968C134.02 29.8173 149.934 17.3865 149.934 17.3865C138.944 31.1885 129.736 43.8663 122.343 54.629C109.952 72.6748 100.955 88.6587 98.419 93.2461H101.395C116.512 68.6679 153.958 15.3847 153.958 15.3847C141.06 45.1107 111.03 84.335 104.054 93.2627H108.428C121.156 78.4231 150.548 41.8846 159.202 11.5814C159.202 11.5814 147.859 11.865 133.543 20.9563C131.551 22.214 129.476 23.6586 127.378 25.3001Z" fill="#758963"/>
</svg>
