<svg width="32" height="32" viewBox="0 0 32 32" fill="none" xmlns="http://www.w3.org/2000/svg">
<g clip-path="url(#clip0_2002_551)">
<path d="M0 0.0245777V2.48422H4.88177C5.13856 2.48784 5.38767 2.57299 5.59365 2.72756C5.79963 2.88212 5.95197 3.09822 6.02899 3.3451L8.29901 23.834C8.41638 24.7254 8.84868 25.5444 9.51667 26.1407C10.1847 26.737 11.0436 27.0708 11.9359 27.0807H26.8497V24.621H11.9359C11.6403 24.6172 11.3561 24.5054 11.1361 24.3064C10.9161 24.1073 10.7753 23.8346 10.7399 23.5388L10.5934 22.1614H26.0687C26.9115 22.157 27.7274 21.8616 28.3803 21.3245C29.0332 20.7874 29.4837 20.0411 29.6568 19.2098L32.0976 7.40352H8.93364L8.42105 2.70559C8.20252 1.9306 7.73826 1.24899 7.09916 0.764873C6.46007 0.280759 5.68129 0.0207555 4.88177 0.0245777H0ZM24.4089 27.0807C23.9261 27.0807 23.4542 27.2249 23.0528 27.4952C22.6514 27.7655 22.3385 28.1496 22.1538 28.5991C21.969 29.0485 21.9207 29.5431 22.0149 30.0202C22.109 30.4973 22.3415 30.9356 22.6829 31.2796C23.0242 31.6236 23.4592 31.8578 23.9327 31.9527C24.4061 32.0476 24.8969 31.9989 25.3429 31.8128C25.789 31.6266 26.1702 31.3113 26.4384 30.9068C26.7066 30.5024 26.8497 30.0268 26.8497 29.5403C26.8497 28.888 26.5926 28.2624 26.1348 27.8011C25.6771 27.3398 25.0562 27.0807 24.4089 27.0807ZM12.2044 27.0807C11.7217 27.0807 11.2497 27.2249 10.8483 27.4952C10.4469 27.7655 10.1341 28.1496 9.94934 28.5991C9.7646 29.0485 9.71626 29.5431 9.81044 30.0202C9.90462 30.4973 10.1371 30.9356 10.4785 31.2796C10.8198 31.6236 11.2547 31.8578 11.7282 31.9527C12.2017 32.0476 12.6925 31.9989 13.1385 31.8128C13.5845 31.6266 13.9657 31.3113 14.2339 30.9068C14.5022 30.5024 14.6453 30.0268 14.6453 29.5403C14.6453 28.888 14.3881 28.2624 13.9304 27.8011C13.4726 27.3398 12.8518 27.0807 12.2044 27.0807ZM9.20214 9.86316H29.0221L27.2647 18.7179C27.2128 18.9978 27.0642 19.2502 26.8453 19.4303C26.6264 19.6104 26.3512 19.7066 26.0687 19.7017H10.3005L9.20214 9.86316Z" fill="#989998"/>
</g>
<defs>
<clipPath id="clip0_2002_551">
<rect width="32" height="32" fill="white"/>
</clipPath>
</defs>
</svg>
