<svg width="169" height="42" viewBox="0 0 169 42" fill="none" xmlns="http://www.w3.org/2000/svg">
<path d="M57.48 15.04L52.76 24.14V29H49.96V24.14L45.22 15.04H48.38L51.38 21.42L54.36 15.04H57.48ZM69.3948 23.22C69.3948 23.62 69.3682 23.98 69.3148 24.3H61.2148C61.2815 25.1 61.5615 25.7267 62.0548 26.18C62.5482 26.6333 63.1548 26.86 63.8748 26.86C64.9148 26.86 65.6548 26.4133 66.0948 25.52H69.1148C68.7948 26.5867 68.1815 27.4667 67.2748 28.16C66.3682 28.84 65.2548 29.18 63.9348 29.18C62.8682 29.18 61.9082 28.9467 61.0548 28.48C60.2148 28 59.5548 27.3267 59.0748 26.46C58.6082 25.5933 58.3748 24.5933 58.3748 23.46C58.3748 22.3133 58.6082 21.3067 59.0748 20.44C59.5415 19.5733 60.1948 18.9067 61.0348 18.44C61.8748 17.9733 62.8415 17.74 63.9348 17.74C64.9882 17.74 65.9282 17.9667 66.7548 18.42C67.5948 18.8733 68.2415 19.52 68.6948 20.36C69.1615 21.1867 69.3948 22.14 69.3948 23.22ZM66.4948 22.42C66.4815 21.7 66.2215 21.1267 65.7148 20.7C65.2082 20.26 64.5882 20.04 63.8548 20.04C63.1615 20.04 62.5748 20.2533 62.0948 20.68C61.6282 21.0933 61.3415 21.6733 61.2348 22.42H66.4948ZM75.6786 29.18C74.7719 29.18 73.9586 29.02 73.2386 28.7C72.5186 28.3667 71.9453 27.92 71.5186 27.36C71.1053 26.8 70.8786 26.18 70.8386 25.5H73.6586C73.7119 25.9267 73.9186 26.28 74.2786 26.56C74.6519 26.84 75.1119 26.98 75.6586 26.98C76.1919 26.98 76.6053 26.8733 76.8986 26.66C77.2053 26.4467 77.3586 26.1733 77.3586 25.84C77.3586 25.48 77.1719 25.2133 76.7986 25.04C76.4386 24.8533 75.8586 24.6533 75.0586 24.44C74.2319 24.24 73.5519 24.0333 73.0186 23.82C72.4986 23.6067 72.0453 23.28 71.6586 22.84C71.2853 22.4 71.0986 21.8067 71.0986 21.06C71.0986 20.4467 71.2719 19.8867 71.6186 19.38C71.9786 18.8733 72.4853 18.4733 73.1386 18.18C73.8053 17.8867 74.5853 17.74 75.4786 17.74C76.7986 17.74 77.8519 18.0733 78.6386 18.74C79.4253 19.3933 79.8586 20.28 79.9386 21.4H77.2586C77.2186 20.96 77.0319 20.6133 76.6986 20.36C76.3786 20.0933 75.9453 19.96 75.3986 19.96C74.8919 19.96 74.4986 20.0533 74.2186 20.24C73.9519 20.4267 73.8186 20.6867 73.8186 21.02C73.8186 21.3933 74.0053 21.68 74.3786 21.88C74.7519 22.0667 75.3319 22.26 76.1186 22.46C76.9186 22.66 77.5786 22.8667 78.0986 23.08C78.6186 23.2933 79.0653 23.6267 79.4386 24.08C79.8253 24.52 80.0253 25.1067 80.0386 25.84C80.0386 26.48 79.8586 27.0533 79.4986 27.56C79.1519 28.0667 78.6453 28.4667 77.9786 28.76C77.3253 29.04 76.5586 29.18 75.6786 29.18ZM91.837 15.04V17.3H88.117V29H85.317V17.3H81.597V15.04H91.837ZM98.8 29.18C97.7333 29.18 96.7733 28.9467 95.92 28.48C95.0667 28 94.3933 27.3267 93.9 26.46C93.42 25.5933 93.18 24.5933 93.18 23.46C93.18 22.3267 93.4267 21.3267 93.92 20.46C94.4267 19.5933 95.1133 18.9267 95.98 18.46C96.8467 17.98 97.8133 17.74 98.88 17.74C99.9467 17.74 100.913 17.98 101.78 18.46C102.647 18.9267 103.327 19.5933 103.82 20.46C104.327 21.3267 104.58 22.3267 104.58 23.46C104.58 24.5933 104.32 25.5933 103.8 26.46C103.293 27.3267 102.6 28 101.72 28.48C100.853 28.9467 99.88 29.18 98.8 29.18ZM98.8 26.74C99.3067 26.74 99.78 26.62 100.22 26.38C100.673 26.1267 101.033 25.7533 101.3 25.26C101.567 24.7667 101.7 24.1667 101.7 23.46C101.7 22.4067 101.42 21.6 100.86 21.04C100.313 20.4667 99.64 20.18 98.84 20.18C98.04 20.18 97.3667 20.4667 96.82 21.04C96.2867 21.6 96.02 22.4067 96.02 23.46C96.02 24.5133 96.28 25.3267 96.8 25.9C97.3333 26.46 98 26.74 98.8 26.74ZM116.814 19.36C116.814 20.1067 116.634 20.8067 116.274 21.46C115.927 22.1133 115.374 22.64 114.614 23.04C113.867 23.44 112.921 23.64 111.774 23.64H109.434V29H106.634V15.04H111.774C112.854 15.04 113.774 15.2267 114.534 15.6C115.294 15.9733 115.861 16.4867 116.234 17.14C116.621 17.7933 116.814 18.5333 116.814 19.36ZM111.654 21.38C112.427 21.38 113.001 21.2067 113.374 20.86C113.747 20.5 113.934 20 113.934 19.36C113.934 18 113.174 17.32 111.654 17.32H109.434V21.38H111.654ZM121.602 14.2V29H118.802V14.2H121.602ZM123.648 23.42C123.648 22.3 123.868 21.3067 124.308 20.44C124.762 19.5733 125.368 18.9067 126.128 18.44C126.902 17.9733 127.762 17.74 128.708 17.74C129.535 17.74 130.255 17.9067 130.868 18.24C131.495 18.5733 131.995 18.9933 132.368 19.5V17.92H135.188V29H132.368V27.38C132.008 27.9 131.508 28.3333 130.868 28.68C130.242 29.0133 129.515 29.18 128.688 29.18C127.755 29.18 126.902 28.94 126.128 28.46C125.368 27.98 124.762 27.3067 124.308 26.44C123.868 25.56 123.648 24.5533 123.648 23.42ZM132.368 23.46C132.368 22.78 132.235 22.2 131.968 21.72C131.702 21.2267 131.342 20.8533 130.888 20.6C130.435 20.3333 129.948 20.2 129.428 20.2C128.908 20.2 128.428 20.3267 127.988 20.58C127.548 20.8333 127.188 21.2067 126.908 21.7C126.642 22.18 126.508 22.7533 126.508 23.42C126.508 24.0867 126.642 24.6733 126.908 25.18C127.188 25.6733 127.548 26.0533 127.988 26.32C128.442 26.5867 128.922 26.72 129.428 26.72C129.948 26.72 130.435 26.5933 130.888 26.34C131.342 26.0733 131.702 25.7 131.968 25.22C132.235 24.7267 132.368 24.14 132.368 23.46ZM144.063 17.76C145.383 17.76 146.45 18.18 147.263 19.02C148.076 19.8467 148.483 21.0067 148.483 22.5V29H145.683V22.88C145.683 22 145.463 21.3267 145.023 20.86C144.583 20.38 143.983 20.14 143.223 20.14C142.45 20.14 141.836 20.38 141.383 20.86C140.943 21.3267 140.723 22 140.723 22.88V29H137.923V17.92H140.723V19.3C141.096 18.82 141.57 18.4467 142.143 18.18C142.73 17.9 143.37 17.76 144.063 17.76ZM154.406 20.22V25.58C154.406 25.9533 154.492 26.2267 154.666 26.4C154.852 26.56 155.159 26.64 155.586 26.64H156.886V29H155.126C152.766 29 151.586 27.8533 151.586 25.56V20.22H150.266V17.92H151.586V15.18H154.406V17.92H156.886V20.22H154.406ZM163.14 29.18C162.233 29.18 161.42 29.02 160.7 28.7C159.98 28.3667 159.406 27.92 158.98 27.36C158.566 26.8 158.34 26.18 158.3 25.5H161.12C161.173 25.9267 161.38 26.28 161.74 26.56C162.113 26.84 162.573 26.98 163.12 26.98C163.653 26.98 164.066 26.8733 164.36 26.66C164.666 26.4467 164.82 26.1733 164.82 25.84C164.82 25.48 164.633 25.2133 164.26 25.04C163.9 24.8533 163.32 24.6533 162.52 24.44C161.693 24.24 161.013 24.0333 160.48 23.82C159.96 23.6067 159.506 23.28 159.12 22.84C158.746 22.4 158.56 21.8067 158.56 21.06C158.56 20.4467 158.733 19.8867 159.08 19.38C159.44 18.8733 159.946 18.4733 160.6 18.18C161.266 17.8867 162.046 17.74 162.94 17.74C164.26 17.74 165.313 18.0733 166.1 18.74C166.886 19.3933 167.32 20.28 167.4 21.4H164.72C164.68 20.96 164.493 20.6133 164.16 20.36C163.84 20.0933 163.406 19.96 162.86 19.96C162.353 19.96 161.96 20.0533 161.68 20.24C161.413 20.4267 161.28 20.6867 161.28 21.02C161.28 21.3933 161.466 21.68 161.84 21.88C162.213 22.0667 162.793 22.26 163.58 22.46C164.38 22.66 165.04 22.8667 165.56 23.08C166.08 23.2933 166.526 23.6267 166.9 24.08C167.286 24.52 167.486 25.1067 167.5 25.84C167.5 26.48 167.32 27.0533 166.96 27.56C166.613 28.0667 166.106 28.4667 165.44 28.76C164.786 29.04 164.02 29.18 163.14 29.18Z" fill="#3F5028"/>
<g clip-path="url(#clip0_156_1711)">
<path fill-rule="evenodd" clip-rule="evenodd" d="M17.5303 17.1483V16.7505C17.4631 13.6004 20.9789 12.2269 20.9789 7.47754C20.9795 6.00029 20.617 4.54557 19.9233 3.24158C19.2296 1.9376 18.2261 0.824368 17.0012 0C15.7754 0.823721 14.7711 1.93674 14.0769 3.24083C13.3828 4.54491 13.02 5.99996 13.0208 7.47754C13.0208 12.2269 16.5365 13.6004 16.4721 16.7505V17.1483C16.4533 18.9384 15.8382 19.9087 13.8238 22.3305C13.1713 23.0975 12.81 24.0701 12.8032 25.0774C12.8032 26.1916 13.2455 27.2602 14.0328 28.048C14.82 28.8359 15.8878 29.2785 17.0012 29.2785C18.1146 29.2785 19.1823 28.8359 19.9696 28.048C20.7569 27.2602 21.1991 26.1916 21.1991 25.0774C21.1914 24.0699 20.8291 23.0972 20.1758 22.3305C18.1695 19.9087 17.5464 18.9384 17.5303 17.1483Z" fill="#758963"/>
<path fill-rule="evenodd" clip-rule="evenodd" d="M17.0012 33.5977C16.1709 33.5977 15.3593 33.844 14.6689 34.3057C13.9786 34.7673 13.4405 35.4234 13.1228 36.191C12.805 36.9587 12.7219 37.8034 12.8839 38.6183C13.0459 39.4332 13.4457 40.1818 14.0328 40.7693C14.6199 41.3569 15.3679 41.757 16.1822 41.9191C16.9965 42.0812 17.8406 41.998 18.6077 41.68C19.3748 41.362 20.0304 40.8236 20.4917 40.1327C20.9529 39.4419 21.1991 38.6296 21.1991 37.7987C21.1991 36.6845 20.7569 35.616 19.9696 34.8281C19.1823 34.0403 18.1146 33.5977 17.0012 33.5977Z" fill="#3F5028"/>
<path fill-rule="evenodd" clip-rule="evenodd" d="M24.7556 24.4002V24.0454C24.6938 21.242 27.8228 20.0136 27.8228 15.7937C27.8237 14.4789 27.5012 13.1841 26.8839 12.0235C26.2665 10.8629 25.3733 9.87216 24.2829 9.13867C23.1925 9.87216 22.2992 10.8629 21.6819 12.0235C21.0645 13.1841 20.7421 14.4789 20.7429 15.7937C20.7429 20.019 23.8719 21.242 23.8128 24.0454V24.4002C23.794 25.9914 23.2488 26.8541 21.4574 29.0098C20.8753 29.6911 20.5527 30.5566 20.5469 31.453C20.5469 32.4446 20.9405 33.3956 21.6411 34.0967C22.3418 34.7979 23.292 35.1918 24.2829 35.1918C25.2737 35.1918 26.224 34.7979 26.9246 34.0967C27.6253 33.3956 28.0189 32.4446 28.0189 31.453C28.013 30.5566 27.6905 29.6911 27.1084 29.0098C25.3169 26.8488 24.769 25.9914 24.7556 24.4002Z" fill="#3F5028"/>
<path fill-rule="evenodd" clip-rule="evenodd" d="M10.1903 24.4002V24.0454C10.1312 21.242 13.2575 20.0136 13.2575 15.7937C13.2584 14.4789 12.9359 13.1841 12.3186 12.0235C11.7012 10.8629 10.8079 9.87216 9.71756 9.13867C8.62718 9.87216 7.73392 10.8629 7.11657 12.0235C6.49922 13.1841 6.17676 14.4789 6.17763 15.7937C6.17763 20.019 9.30663 21.242 9.24754 24.0454V24.4002C9.23143 25.9914 8.68352 26.8541 6.89206 29.0098C6.31192 29.6921 5.99051 30.5571 5.98425 31.453C5.97087 31.9523 6.05758 32.4491 6.23924 32.9143C6.42091 33.3794 6.69386 33.8034 7.04198 34.1613C7.3901 34.5191 7.80633 34.8036 8.2661 34.9978C8.72587 35.192 9.21986 35.292 9.71891 35.292C10.218 35.292 10.7119 35.192 11.1717 34.9978C11.6315 34.8036 12.0477 34.5191 12.3958 34.1613C12.744 33.8034 13.0169 33.3794 13.1986 32.9143C13.3802 32.4491 13.4669 31.9523 13.4536 31.453C13.4473 30.5571 13.1259 29.6921 12.5457 29.0098C10.7516 26.8488 10.2064 25.9914 10.1903 24.4002Z" fill="#758963"/>
<path fill-rule="evenodd" clip-rule="evenodd" d="M3.25792 20.8442C2.61356 20.8442 1.98368 21.0355 1.44792 21.3937C0.912157 21.752 0.494582 22.2611 0.247998 22.8569C0.00141368 23.4526 -0.0631068 24.1082 0.0626007 24.7406C0.188308 25.3731 0.498598 25.954 0.954226 26.41C1.40985 26.8659 1.99036 27.1765 2.62233 27.3023C3.25431 27.4281 3.90937 27.3635 4.50467 27.1167C5.09998 26.87 5.6088 26.4521 5.96678 25.9159C6.32477 25.3798 6.51584 24.7494 6.51584 24.1046C6.51584 23.2399 6.1726 22.4106 5.56162 21.7992C4.95064 21.1877 4.12197 20.8442 3.25792 20.8442Z" fill="#758963"/>
<path fill-rule="evenodd" clip-rule="evenodd" d="M30.7423 20.8442C30.0979 20.8442 29.4681 21.0355 28.9323 21.3937C28.3965 21.752 27.979 22.2611 27.7324 22.8569C27.4858 23.4526 27.4213 24.1082 27.547 24.7406C27.6727 25.3731 27.983 25.954 28.4386 26.41C28.8942 26.8659 29.4747 27.1765 30.1067 27.3023C30.7387 27.4281 31.3937 27.3635 31.989 27.1167C32.5844 26.87 33.0932 26.4521 33.4512 25.9159C33.8091 25.3798 34.0002 24.7494 34.0002 24.1046C34.0002 23.2399 33.657 22.4106 33.046 21.7992C32.435 21.1877 31.6063 20.8442 30.7423 20.8442Z" fill="#3F5028"/>
<path fill-rule="evenodd" clip-rule="evenodd" d="M17.5305 17.1483V16.7505C17.4634 13.6004 20.9792 12.2269 20.9792 7.4775C20.9812 5.98834 20.6119 4.5222 19.9048 3.21191C17.523 5.56557 15.4915 8.24946 13.8724 11.1813C14.9092 13.294 16.5126 14.6137 16.4696 16.7505V17.1483C16.4508 18.9384 15.8358 19.9087 13.8214 22.3304C13.1689 23.0974 12.8075 24.0701 12.8008 25.0774C12.8008 26.1916 13.2431 27.2602 14.0303 28.048C14.8176 28.8359 15.8854 29.2785 16.9987 29.2785C18.1121 29.2785 19.1799 28.8359 19.9672 28.048C20.7544 27.2602 21.1967 26.1916 21.1967 25.0774C21.189 24.0698 20.8267 23.0972 20.1734 22.3304C18.1698 19.9087 17.5467 18.9384 17.5305 17.1483Z" fill="#626C57"/>
<path fill-rule="evenodd" clip-rule="evenodd" d="M17.0012 33.5977C16.1709 33.5977 15.3593 33.844 14.6689 34.3057C13.9786 34.7673 13.4405 35.4234 13.1228 36.191C12.805 36.9587 12.7219 37.8034 12.8839 38.6183C13.0459 39.4332 13.4457 40.1818 14.0328 40.7693C14.6199 41.3569 15.3679 41.757 16.1822 41.9191C16.9965 42.0812 17.8406 41.998 18.6077 41.68C19.3748 41.362 20.0304 40.8236 20.4917 40.1327C20.9529 39.4419 21.1991 38.6296 21.1991 37.7987C21.1991 36.6845 20.7569 35.616 19.9696 34.8281C19.1823 34.0403 18.1146 33.5977 17.0012 33.5977Z" fill="#626C57"/>
<path fill-rule="evenodd" clip-rule="evenodd" d="M24.7529 24.4002V24.0454C24.6938 21.242 27.8228 20.0136 27.8228 15.7937C27.8237 14.4789 27.5012 13.1841 26.8839 12.0235C26.2665 10.8629 25.3733 9.87216 24.2829 9.13867C23.1925 9.87216 22.2992 10.8629 21.6819 12.0235C21.0645 13.1841 20.7421 14.4789 20.7429 15.7937C20.7429 20.019 23.8719 21.242 23.8128 24.0454V24.4002C23.794 25.9914 23.2488 26.8541 21.4574 29.0098C20.8753 29.6911 20.5527 30.5566 20.5469 31.453C20.5469 32.4446 20.9405 33.3956 21.6411 34.0967C22.3418 34.7979 23.292 35.1918 24.2829 35.1918C25.2737 35.1918 26.224 34.7979 26.9246 34.0967C27.6253 33.3956 28.0189 32.4446 28.0189 31.453C28.013 30.5566 27.6905 29.6911 27.1084 29.0098C25.3169 26.8488 24.769 25.9914 24.7529 24.4002Z" fill="#626C57"/>
<path fill-rule="evenodd" clip-rule="evenodd" d="M10.19 24.3999V24.0451C10.1309 21.2417 13.2572 20.0133 13.2572 15.7934C13.2585 14.9187 13.1161 14.0497 12.8355 13.2212C9.64574 20.0632 8.75258 27.7541 10.2894 35.1458C11.1705 35.0097 11.9739 34.5626 12.5542 33.8852C13.1345 33.2078 13.4534 32.345 13.4533 31.4527C13.447 30.5569 13.1256 29.6918 12.5455 29.0095C10.7513 26.8485 10.2061 25.9911 10.19 24.3999Z" fill="#626C57"/>
<path fill-rule="evenodd" clip-rule="evenodd" d="M30.7423 20.8442C30.0979 20.8442 29.4681 21.0355 28.9323 21.3937C28.3965 21.752 27.979 22.2611 27.7324 22.8569C27.4858 23.4526 27.4213 24.1082 27.547 24.7406C27.6727 25.3731 27.983 25.954 28.4386 26.41C28.8942 26.8659 29.4747 27.1765 30.1067 27.3023C30.7387 27.4281 31.3937 27.3635 31.989 27.1167C32.5844 26.87 33.0932 26.4521 33.4512 25.9159C33.8091 25.3798 34.0002 24.7494 34.0002 24.1046C34.0002 23.2399 33.657 22.4106 33.046 21.7992C32.435 21.1877 31.6063 20.8442 30.7423 20.8442Z" fill="#3F5028"/>
<path fill-rule="evenodd" clip-rule="evenodd" d="M16.6494 29.2678C16.7649 29.2678 16.8831 29.2839 17.0013 29.2839C18.1146 29.2839 19.1824 28.8413 19.9697 28.0534C20.7569 27.2656 21.1992 26.197 21.1992 25.0828C21.192 24.1184 20.8598 23.1847 20.2565 22.4326C18.8041 24.5698 17.5943 26.8624 16.6494 29.2678Z" fill="#3F5028"/>
<path fill-rule="evenodd" clip-rule="evenodd" d="M17.0015 33.5977C16.367 33.5965 15.7406 33.7399 15.1698 34.017C14.6368 36.3049 14.3354 38.6408 14.27 40.9892C14.7839 41.4297 15.3966 41.7394 16.0559 41.8919C16.7152 42.0444 17.4015 42.0351 18.0565 41.8649C18.7114 41.6947 19.3155 41.3685 19.8173 40.9143C20.3191 40.46 20.7038 39.891 20.9385 39.2559C21.1732 38.6208 21.251 37.9383 21.1653 37.2666C21.0796 36.5949 20.8329 35.9539 20.4462 35.3981C20.0595 34.8424 19.5444 34.3885 18.9446 34.075C18.3448 33.7615 17.6782 33.5977 17.0015 33.5977Z" fill="#3F5028"/>
<path fill-rule="evenodd" clip-rule="evenodd" d="M24.7529 24.4003V24.0455C24.6938 21.2421 27.8228 20.0137 27.8228 15.7938C27.8231 15.3498 27.7862 14.9066 27.7127 14.4688C25.6148 16.1033 23.7099 17.9717 22.0348 20.0379C22.8862 21.4114 23.8451 22.4812 23.8128 24.0455V24.4003C23.794 25.9915 23.2488 26.8543 21.4574 29.0099C20.8753 29.6913 20.5527 30.5567 20.5469 31.4531C20.5469 32.4447 20.9405 33.3957 21.6411 34.0968C22.3418 34.798 23.292 35.1919 24.2829 35.1919C25.2737 35.1919 26.224 34.798 26.9246 34.0968C27.6253 33.3957 28.0189 32.4447 28.0189 31.4531C28.013 30.5567 27.6905 29.6913 27.1084 29.0099C25.3169 26.8489 24.769 25.9915 24.7529 24.4003Z" fill="#3F5028"/>
<path fill-rule="evenodd" clip-rule="evenodd" d="M30.7423 20.8442C30.0979 20.8442 29.4681 21.0355 28.9323 21.3937C28.3965 21.752 27.979 22.2611 27.7324 22.8569C27.4858 23.4526 27.4213 24.1082 27.547 24.7406C27.6727 25.3731 27.983 25.954 28.4386 26.41C28.8942 26.8659 29.4747 27.1765 30.1067 27.3023C30.7387 27.4281 31.3937 27.3635 31.989 27.1167C32.5844 26.87 33.0932 26.4521 33.4512 25.9159C33.8091 25.3798 34.0002 24.7494 34.0002 24.1046C34.0002 23.2399 33.657 22.4106 33.046 21.7992C32.435 21.1877 31.6063 20.8442 30.7423 20.8442Z" fill="#3F5028"/>
</g>
<defs>
<clipPath id="clip0_156_1711">
<rect width="34" height="42" fill="white"/>
</clipPath>
</defs>
</svg>
