<svg width="448" height="453" viewBox="0 0 448 453" fill="none" xmlns="http://www.w3.org/2000/svg">
<path d="M221.861 44.2762C239.347 20.4294 250.986 12.1272 250.986 12.1272C250.986 12.1272 235.777 18.6061 216.249 44.8423C197.903 69.4845 191.873 98.9861 190.809 105.028L193.742 104.744C195.974 97.1575 205.673 66.3359 221.861 44.2762Z" fill="#626C57"/>
<path d="M204.059 103.746L207.64 103.4C215.944 92.0098 251.595 42.0465 265.383 5.46069C265.371 5.47767 221.432 72.915 204.059 103.746Z" fill="#626C57"/>
<path d="M260.208 8.35045C260.208 8.35045 240.325 25.0104 221.865 53.181C213.701 65.646 203.622 82.9687 197.373 104.388L200.059 104.129C202.917 98.4003 213.1 78.472 227.59 55.6703C236.241 42.0742 247.096 25.9901 260.208 8.35045Z" fill="#626C57"/>
<path d="M230.935 20.5656C228.105 22.9476 225.412 25.4529 222.868 28.0714C216.721 34.4288 211.33 41.3145 206.781 48.6179C202.401 55.5774 194.993 69.3976 190.468 86.429C189.249 90.9969 188.305 95.6129 187.64 100.258C187.395 101.959 187.191 103.677 187.025 105.413L190.812 105.047C191.89 99.008 197.906 69.5039 216.252 44.8617C235.78 18.6255 250.989 12.1465 250.989 12.1465C250.989 12.1465 239.368 20.4548 221.864 44.2956C205.676 66.3552 195.977 97.1768 193.746 104.779L197.435 104.423C203.702 83.0015 213.763 65.6805 221.927 53.2156C240.384 25.0096 260.266 8.34578 260.266 8.34578C247.154 25.9815 236.299 42.0656 227.653 55.6652C213.162 78.4669 202.981 98.4069 200.122 104.124L204.115 103.738C221.489 72.9102 265.428 5.47293 265.428 5.47293C251.641 42.0587 215.989 92.022 207.685 103.412L213.554 102.845C228.876 83.7654 263.991 37.0391 272.015 0.325779C272.015 0.325779 256.828 2.12993 238.694 14.6642C236.17 16.3998 233.557 18.3655 230.935 20.5656Z" fill="#758963"/>
<path d="M264.668 337.96L240.384 435.906L200.768 430.454L203.256 418.36L233.233 423.136L251.151 347.561L264.668 337.96Z" fill="black"/>
<path d="M201.758 336L177.884 435.686L137.836 428.336L140.268 416.004L170.576 422.236L188.17 345.282L201.758 336Z" fill="black"/>
<path d="M33.5469 330.635L54.6185 306.655C56.0469 317.135 57.5469 331.635 57.5469 331.635L63.6424 331.635C63.6424 331.635 63.6418 314.134 63.642 297.7C83.7929 274.84 106.431 252.796 131.317 231.804L120.685 227.225C89.4997 259.634 54.6185 294.074 54.6185 294.074C40.1956 297.555 26.075 302.118 12.5464 307.67L16.259 313.094L45.864 303.901C38.9364 310.898 26.6452 327.532 26.6452 327.532L33.5469 330.635Z" fill="#242424"/>
<path d="M414.223 325.635L393.151 301.655C391.723 312.135 390.223 326.635 390.223 326.635L384.127 326.635C384.127 326.635 384.128 309.134 384.128 292.7C363.977 269.84 341.338 247.796 316.452 226.804L327.084 222.225C358.27 254.634 393.151 289.074 393.151 289.074C407.574 292.555 421.695 297.118 435.223 302.67L431.51 308.094L401.905 298.901C408.833 305.898 421.124 322.532 421.124 322.532L414.223 325.635Z" fill="#242424"/>
<path d="M207.198 95.7439L210.986 95.7018C216.306 88.4666 239.128 57.8081 259.803 35.9139C259.803 35.9139 227.361 63.0042 207.198 95.7439Z" fill="#3F5028"/>
<path d="M212.785 83.1266L215.962 84.2667C223.415 77.9524 255.233 51.2847 281.605 33.6112C281.605 33.6112 243.251 53.3301 212.785 83.1266Z" fill="#3F5028"/>
<path d="M222.035 99.713L218.439 99.6572C213.389 90.0728 191.724 49.4602 172.097 20.4574C172.097 20.4574 202.895 56.3434 222.035 99.713Z" fill="#3F5028"/>
<path d="M218.156 99.713L214.56 99.6572C209.51 90.0728 175.5 44.5 165.5 14C165.5 14 199.015 56.3434 218.156 99.713Z" fill="#3F5028"/>
<path d="M238.674 60.453C242.688 56.0389 247.331 51.9354 252.528 48.2087C260.748 38.2637 266.823 31.015 266.823 31.015C264.551 35.3222 262.008 39.6325 259.295 43.8615C261.478 42.598 263.626 41.4835 265.717 40.5006C268.362 35.4249 270.621 30.2505 272.485 25C272.485 25 241.931 32.619 216.374 66.474C216.032 66.9513 215.639 67.4544 215.253 67.9826C212.475 73.4303 209.062 78.7007 205.05 83.738C202.756 87.6888 200.767 91.7269 199.091 95.8341L201.976 95.8021C205.377 89.4143 215.06 72.3675 228.579 58.3083C248.646 37.4107 264.323 30.481 264.323 30.481C264.323 30.481 254.427 36.5531 234.222 56.9106C218.475 72.7729 208.445 89.2643 204.787 95.7759L207.222 95.7488C227.384 63.0092 259.826 35.9188 259.826 35.9188C239.151 57.8105 216.326 88.4715 211.01 95.7067L214.113 95.6723C216.694 92.3112 219.926 88.1998 223.554 83.6936C228.154 73.0734 234.815 64.657 238.674 60.453Z" fill="#626C57"/>
<path d="M238.674 55.453C242.688 51.0389 247.331 46.9354 252.528 43.2087C260.748 33.2637 266.823 26.015 266.823 26.015C264.551 30.3222 262.008 34.6325 259.295 38.8615C261.478 37.598 263.626 36.4835 265.717 35.5006C268.362 30.4249 270.621 25.2505 272.485 20C272.485 20 241.931 27.619 216.374 61.474C216.032 61.9513 215.639 62.4544 215.253 62.9826C212.475 68.4303 209.062 73.7007 205.05 78.738C202.756 82.6888 200.767 86.7269 199.091 90.8341L201.976 90.8021C205.377 84.4143 215.06 67.3675 228.579 53.3083C248.646 32.4107 264.323 25.481 264.323 25.481C264.323 25.481 254.427 31.5531 234.222 51.9106C218.475 67.7729 208.445 84.2643 204.787 90.7759L207.222 90.7488C227.384 58.0092 259.826 30.9188 259.826 30.9188C239.151 52.8105 216.326 83.4715 211.01 90.7067L214.113 90.6723C216.694 87.3112 219.926 83.1998 223.554 78.6936C228.154 68.0734 234.815 59.657 238.674 55.453Z" fill="#626C57"/>
<path d="M255.706 55.3112C260.893 51.7001 264.528 47.3872 270.415 44.905C281.415 36.511 289.501 30.4189 289.501 30.4189C285.812 34.458 281.895 38.4157 277.87 42.2304C280.218 41.5209 282.474 40.9647 284.627 40.5358C288.947 35.7656 292.988 30.7658 296.73 25.5584C296.73 25.5584 268.071 24.3871 232.649 53.7224C232.166 54.142 231.628 54.5737 231.086 55.0355C226.5 60.1741 221.457 64.9181 216.012 69.2173C212.453 72.8564 209.111 76.6874 206.002 80.6928L208.422 81.5615C213.92 75.5812 229.098 59.8118 246.232 48.5402C271.676 31.7773 287.639 29.0464 287.639 29.0464C287.639 29.0464 276.855 32.6429 251.521 48.7668C231.777 61.3291 216.542 76.3774 210.777 82.4137L212.82 83.147C243.276 53.3511 281.622 33.6353 281.622 33.6353C255.257 51.3044 223.445 77.9726 215.997 84.2877L218.599 85.2221C222.152 82.3234 226.561 78.8012 231.465 74.9675C239.726 64.694 250.735 58.739 255.706 55.3112Z" fill="#626C57"/>
<path d="M193.536 54.9638C189.725 49.1165 185.318 43.6808 180.384 38.744C172.58 25.5701 166.813 15.9679 166.813 15.9679C168.971 21.6736 171.385 27.3833 173.96 32.9855C171.887 31.3117 169.848 29.8353 167.863 28.5333C165.353 21.8097 163.208 14.9552 161.438 8.00001C161.438 8.00001 190.444 18.0927 214.707 62.9397C215.031 63.572 215.404 64.2385 215.77 64.9382C218.408 72.1546 221.648 79.1362 225.457 85.8089C227.634 91.0425 229.523 96.3917 231.114 101.832L228.375 101.79C225.146 93.3283 215.954 70.7468 203.12 52.1228C184.069 24.4402 169.187 15.2606 169.187 15.2606C169.187 15.2606 178.582 23.3041 197.763 50.2713C212.712 71.2838 222.233 93.1296 225.706 101.755L223.395 101.719C204.254 58.3499 173.456 22.4639 173.456 22.4639C193.083 51.4634 214.752 92.0793 219.799 101.664L216.853 101.618C214.403 97.1657 211.334 91.7194 207.89 85.7501C203.524 71.6818 197.2 60.5328 193.536 54.9638Z" fill="#626C57"/>
<path d="M264.298 30.4812C264.298 30.4812 248.632 37.4108 228.554 58.3085C215.053 72.3675 205.369 89.4143 201.951 95.8023L204.762 95.771C208.42 89.2645 218.45 72.7731 234.197 56.9058C254.395 36.5533 264.298 30.4812 264.298 30.4812Z" fill="#3F5028"/>
<path d="M264.298 25.4812C264.298 25.4812 248.632 32.4108 228.554 53.3085C215.053 67.3675 205.369 84.4143 201.951 90.8023L204.762 90.771C208.42 84.2645 218.45 67.7731 234.197 51.9058C254.395 31.5533 264.298 25.4812 264.298 25.4812Z" fill="#3F5028"/>
<path d="M233.417 95.713L229.821 95.6572C224.771 86.0728 203.105 45.4602 183.479 16.4574C183.479 16.4574 214.277 52.3434 233.417 95.713Z" fill="#3F5028"/>
<path d="M203.536 48.9639C199.725 43.1166 195.318 37.6808 190.384 32.744C182.58 19.5701 176.813 9.96788 176.813 9.96788C178.971 15.6736 181.385 21.3834 183.96 26.9855C181.887 25.3117 179.848 23.8353 177.863 22.5333C175.353 15.8097 173.208 8.95526 171.438 2.00005C171.438 2.00005 200.444 12.0927 224.707 56.9397C225.031 57.572 225.404 58.2385 225.77 58.9382C228.408 66.1546 231.648 73.1362 235.457 79.809C237.634 85.0425 239.523 90.3918 241.114 95.8325L238.375 95.79C235.146 87.3283 225.954 64.7468 213.12 46.1228C194.069 18.4403 179.187 9.26061 179.187 9.26061C179.187 9.26061 188.582 17.3041 207.763 44.2714C222.712 65.2838 232.233 87.1296 235.706 95.7553L233.395 95.7195C214.254 52.3499 183.456 16.4639 183.456 16.4639C203.083 45.4634 224.752 86.0794 229.799 95.6637L226.853 95.6181C224.403 91.1657 221.334 85.7194 217.89 79.7501C213.524 65.6818 207.2 54.5328 203.536 48.9639Z" fill="#626C57"/>
<path d="M179.21 9.26083C179.21 9.26083 194.083 18.4403 213.143 46.1231C225.96 64.7468 235.153 87.3283 238.398 95.7903L235.73 95.7489C232.257 87.1299 222.735 65.284 207.786 44.2649C188.611 17.3045 179.21 9.26083 179.21 9.26083Z" fill="#3F5028"/>
<path d="M176.5 9.5C176.5 9.5 182.44 18.8172 201.5 46.5C214.318 65.1237 225.27 87.3282 228.516 95.7902L225.847 95.7489C222.374 87.1298 211.949 66.0191 197 45C177.5 18.5 176.5 9.5 176.5 9.5Z" fill="#3F5028"/>
<path d="M287.621 29.0273C287.621 29.0273 271.664 31.7635 246.205 48.5248C229.082 59.8028 213.898 75.5723 208.384 81.5474L210.741 82.3934C216.506 76.3628 231.746 61.3142 251.496 48.745C276.829 32.6229 287.621 29.0273 287.621 29.0273Z" fill="#3F5028"/>
<path d="M168 14.5C168 14.5 183.2 23.1795 202.26 50.8622C215.078 69.4859 224.27 92.0674 227.516 100.529L224.847 100.488C221.374 91.869 211.853 70.0232 196.903 49.0041C177.729 22.0436 168 14.5 168 14.5Z" fill="#3F5028"/>
<path d="M167.327 14C167.327 14 182.2 23.1795 201.26 50.8622C214.078 69.4859 223.27 92.0674 226.516 100.529L223.847 100.488C220.374 91.869 210.853 70.0232 195.903 49.0041C176.729 22.0436 167.327 14 167.327 14Z" fill="#3F5028"/>
<path d="M289.656 30.4947C289.656 30.4947 277.292 39.5981 253.312 56.3062C237.184 67.5483 221.467 82.6263 216.234 88.523L218.415 89.3055C223.881 83.3507 240.148 69.6374 258.46 57.2883C282.311 41.2032 289.656 30.4947 289.656 30.4947Z" fill="#3F5028"/>
<path d="M172.324 44.6509C152.927 23.4584 140.641 16.5162 140.641 16.5162C140.641 16.5162 156.334 21.453 177.964 44.746C198.284 66.6235 206.733 94.0659 208.292 99.6993L205.347 99.6614C202.495 92.6575 190.281 64.254 172.324 44.6509Z" fill="#626C57"/>
<path d="M194.982 99.5269L191.384 99.4806C182.167 89.3543 142.506 44.8753 125.741 11.3383C125.754 11.3535 175.118 71.7167 194.982 99.5269Z" fill="#626C57"/>
<path d="M131.137 13.6666C131.137 13.6666 152.329 27.8702 173.055 53.0775C182.222 64.2315 193.699 79.8319 201.697 99.6097L198.998 99.5749C195.676 94.3787 183.881 76.3209 167.555 55.8824C157.81 43.6962 145.662 29.3287 131.137 13.6666Z" fill="#626C57"/>
<path d="M161.32 22.927C164.338 24.9588 167.229 27.1181 169.981 29.3962C176.632 34.9293 182.574 41.0217 187.712 47.5753C192.651 53.817 201.177 66.3128 207.095 82.0734C208.687 86.3002 210.009 90.594 211.056 94.9368C211.441 96.5274 211.787 98.1374 212.095 99.7669L208.291 99.7179C206.718 94.088 198.283 66.642 177.962 44.7645C156.332 21.4715 140.639 16.5348 140.639 16.5348C140.639 16.5348 152.907 23.4842 172.323 44.6694C190.279 64.2726 202.493 92.6761 205.345 99.6949L201.639 99.6471C193.623 79.8691 182.164 64.2689 172.998 53.1149C152.272 27.874 131.08 13.6666 131.08 13.6666C145.605 29.325 157.753 43.6925 167.494 55.8824C183.82 76.3209 195.615 94.3899 198.937 99.5749L194.925 99.5231C175.062 71.7167 125.698 11.3534 125.698 11.3534C142.463 44.8904 182.123 89.3694 191.341 99.4956L185.445 99.4196C168.598 82.5682 129.74 41.1101 118.708 7.00005C118.708 7.00005 133.992 7.51494 153.1 17.952C155.759 19.3961 158.526 21.0511 161.32 22.927Z" fill="#758963"/>
<path d="M166.177 63.4769C155.597 49.1368 148.895 44.4393 148.895 44.4393C148.895 44.4393 157.455 47.7798 169.253 63.5412C180.337 78.3449 184.946 96.9141 185.797 100.726L184.19 100.7C182.634 95.9611 175.972 76.7416 166.177 63.4769Z" fill="#626C57"/>
<path d="M178.536 100.609L176.573 100.578C171.546 93.7259 149.912 63.6287 140.767 40.9356C140.775 40.9459 167.701 81.7913 178.536 100.609Z" fill="#626C57"/>
<path d="M143.711 42.511C143.711 42.511 155.271 52.122 166.577 69.1788C171.577 76.7263 177.837 87.2825 182.2 100.665L180.728 100.642C178.916 97.1258 172.482 84.9068 163.577 71.0768C158.261 62.8309 151.635 53.109 143.711 42.511Z" fill="#626C57"/>
<path d="M160.175 48.7772C161.822 50.152 163.398 51.6131 164.899 53.1546C168.527 56.8986 171.769 61.0211 174.571 65.4557C177.265 69.6792 181.916 78.1347 185.144 88.7993C186.012 91.6593 186.734 94.5648 187.305 97.5034C187.514 98.5796 187.703 99.6691 187.871 100.772L185.796 100.739C184.938 96.929 180.337 78.3574 169.253 63.5538C157.454 47.7923 148.894 44.4518 148.894 44.4518C148.894 44.4518 155.586 49.1542 166.177 63.4894C175.971 76.7541 182.634 95.9736 184.189 100.723L182.168 100.691C177.795 87.3077 171.545 76.7516 166.545 69.2041C155.24 52.1246 143.68 42.511 143.68 42.511C151.603 53.1065 158.229 62.8284 163.543 71.0768C172.448 84.9068 178.882 97.1333 180.694 100.642L178.506 100.607C167.671 81.7912 140.744 40.9458 140.744 40.9458C149.889 63.6389 171.523 93.7361 176.55 100.588L173.334 100.537C164.145 89.1341 142.949 61.0809 136.931 38C136.931 38 145.269 38.3484 155.692 45.4108C157.142 46.388 158.651 47.5078 160.175 48.7772Z" fill="#758963"/>
<path d="M249.135 64.2884C265.566 49.4915 275.974 44.6444 275.974 44.6444C275.974 44.6444 262.681 48.0913 244.358 64.3549C227.145 79.6301 219.988 98.7909 218.667 102.724L221.163 102.698C223.578 97.8075 233.925 77.9757 249.135 64.2884Z" fill="#626C57"/>
<path d="M229.943 102.604L232.991 102.571C240.799 95.5011 274.394 64.4451 288.596 41.0291C288.585 41.0396 246.769 83.1863 229.943 102.604Z" fill="#626C57"/>
<path d="M284.025 42.6547C284.025 42.6547 266.074 52.5719 248.517 70.172C240.752 77.96 231.03 88.8525 224.255 102.662L226.541 102.637C229.355 99.0093 239.346 86.401 253.176 72.1305C261.431 63.6219 271.721 53.5903 284.025 42.6547Z" fill="#626C57"/>
<path d="M258.457 49.1205C255.9 50.5391 253.452 52.0467 251.121 53.6373C245.487 57.5007 240.453 61.7545 236.101 66.3303C231.917 70.6884 224.695 79.4132 219.682 90.4175C218.333 93.3687 217.213 96.3667 216.326 99.3989C216.001 100.509 215.708 101.634 215.446 102.771L218.669 102.737C220.001 98.8063 227.147 79.643 244.36 64.3678C262.683 48.1042 275.976 44.6573 275.976 44.6573C275.976 44.6573 265.584 49.5095 249.137 64.3014C233.926 77.9886 223.58 97.8204 221.165 102.721L224.304 102.688C231.094 88.8784 240.801 77.9861 248.565 70.1982C266.122 52.5745 284.073 42.6547 284.073 42.6547C271.769 53.5877 261.479 63.6193 253.227 72.1305C239.398 86.401 229.407 99.0171 226.593 102.637L229.991 102.601C246.817 83.1862 288.632 41.0396 288.632 41.0396C274.431 64.4556 240.835 95.5116 233.027 102.582L238.022 102.529C252.292 90.763 285.208 61.8162 294.554 38C294.554 38 281.606 38.3595 265.42 45.6468C263.168 46.6551 260.824 47.8107 258.457 49.1205Z" fill="#758963"/>
<path d="M208.546 69.9754C210.347 47.9369 214.592 37.2698 214.592 37.2698C214.592 37.2698 207.287 48.8983 205.117 73.3013C203.076 96.2242 211.016 115.074 212.754 118.841L214.551 117.11C212.953 111.895 206.872 90.3689 208.546 69.9754Z" fill="#626C57"/>
<path d="M220.874 111.017L223.069 108.903C223.897 98.4021 227.028 52.7586 221.293 25.9798C221.292 25.9952 219.791 85.3468 220.874 111.017Z" fill="#626C57"/>
<path d="M219.084 30.2985C219.084 30.2985 212.829 49.8302 212.133 74.6802C211.828 85.6735 212.23 100.268 216.776 114.962L218.422 113.376C217.98 108.806 216.597 92.7786 216.866 72.9084C217.034 61.0543 217.636 46.6962 219.084 30.2985Z" fill="#626C57"/>
<path d="M204.92 52.5454C204.034 55.3315 203.287 58.1083 202.683 60.8648C201.235 67.5411 200.492 74.0893 200.466 80.404C200.412 86.4454 201.145 97.7475 205.048 109.193C206.092 112.265 207.334 115.214 208.769 118.029C209.295 119.06 209.853 120.079 210.443 121.086L212.764 118.85C211.036 115.076 203.086 96.2326 205.127 73.3098C207.297 48.9067 214.602 37.2783 214.602 37.2783C214.602 37.2783 210.372 47.9385 208.556 69.9839C206.883 90.3774 212.963 111.904 214.569 117.126L216.829 114.948C212.294 100.243 211.882 85.659 212.187 74.6657C212.866 49.799 219.119 30.2653 219.119 30.2653C217.669 46.6613 217.067 61.0193 216.904 72.8726C216.635 92.7428 218.023 108.776 218.46 113.341L220.907 110.983C219.826 85.3139 221.327 25.9623 221.327 25.9623C227.063 52.741 223.932 98.3846 223.103 108.885L226.7 105.42C229.008 87.0687 233.092 43.4262 223.549 19.6883C223.549 19.6883 214.377 28.8336 207.602 45.2407C206.656 47.5195 205.743 49.9684 204.92 52.5454Z" fill="#758963"/>
<path d="M361 96H67L92.2959 351H319.18L361 96Z" fill="#948F7C"/>
<path d="M360.999 96H297.628L282.999 351H338.451L360.999 96Z" fill="#716D64"/>
<path d="M161.316 144.969C164.056 148.049 167.236 156.149 164.136 161.179C160.586 166.949 152.766 167.719 145.266 160.639C137.766 153.559 143.206 142.639 149.266 140.569C155.326 138.499 159.196 142.569 161.316 144.969Z" fill="black"/>
<path d="M249.778 155.905C249.088 152.015 250.568 143.775 255.638 141.215C261.448 138.285 268.828 140.445 271.398 150.005C273.968 159.565 265.678 166.615 259.658 165.305C253.638 163.995 250.328 158.965 249.778 155.905Z" fill="black"/>
<path d="M141.619 304.843L267.345 304.17C267.345 304.17 255.087 217.658 205.694 224.144C162.479 229.823 141.619 304.843 141.619 304.843Z" fill="black"/>
<path d="M190.362 195.587C205.051 200.323 210.326 214.171 211.018 230.093C189.545 241.884 168.593 245.695 151.049 241C138.377 237.749 129.512 231.364 123.412 223.376C142.308 206.951 169.26 188.796 190.362 195.587Z" fill="#9A4D19"/>
<path d="M223.371 195.587C208.682 200.323 203.408 214.171 202.716 230.093C224.188 241.884 245.14 245.695 262.685 241C275.357 237.749 284.221 231.364 290.322 223.376C271.426 206.951 244.473 188.796 223.371 195.587Z" fill="#9A4D19"/>
</svg>
