<svg width="738" height="481" viewBox="0 0 738 481" fill="none" xmlns="http://www.w3.org/2000/svg">
<path d="M202.737 453.202C202.738 453.639 202.609 454.065 202.367 454.428C202.125 454.792 201.781 455.075 201.378 455.242C200.975 455.41 200.532 455.454 200.104 455.369C199.676 455.284 199.282 455.075 198.974 454.766C198.665 454.458 198.455 454.065 198.369 453.637C198.284 453.209 198.327 452.766 198.494 452.363C198.661 451.959 198.944 451.615 199.306 451.372C199.669 451.13 200.096 451 200.532 451C201.116 451 201.677 451.232 202.09 451.645C202.504 452.058 202.736 452.618 202.737 453.202Z" fill="#242424"/>
<path d="M432.748 453.202C432.749 453.639 432.62 454.065 432.378 454.428C432.136 454.792 431.792 455.075 431.389 455.242C430.986 455.41 430.542 455.454 430.114 455.369C429.686 455.284 429.293 455.075 428.984 454.766C428.676 454.458 428.465 454.065 428.38 453.637C428.295 453.209 428.338 452.766 428.505 452.363C428.672 451.959 428.954 451.615 429.317 451.372C429.68 451.13 430.106 451 430.543 451C431.127 451 431.687 451.232 432.101 451.645C432.514 452.058 432.747 452.618 432.748 453.202Z" fill="#242424"/>
<path d="M573.581 159.111C575.67 159.108 577.362 157.414 577.359 155.326C577.357 153.239 575.661 151.548 573.571 151.551C571.482 151.554 569.79 153.248 569.793 155.336C569.795 157.423 571.491 159.114 573.581 159.111Z" fill="white"/>
<path d="M545.867 161.708C545.578 160.438 545.773 159.106 546.415 157.973C547.057 156.84 548.099 155.987 549.336 155.582L571.512 148.323C572.498 148 573.54 147.888 574.572 147.994C575.603 148.1 576.601 148.422 577.5 148.938C578.399 149.455 579.18 150.155 579.791 150.992C580.402 151.83 580.83 152.787 581.047 153.801C581.261 154.798 581.265 155.829 581.06 156.828C580.856 157.828 580.446 158.774 579.858 159.607C579.27 160.44 578.515 161.143 577.642 161.67C576.769 162.198 575.797 162.539 574.785 162.672L551.652 165.725C550.36 165.896 549.051 165.58 547.981 164.836C546.911 164.093 546.157 162.978 545.867 161.708Z" fill="#E47D25"/>
<path d="M731.131 364.292C731.228 363.114 730.494 361.132 730.197 360.388C732.579 361.376 734.909 362.483 737.18 363.704C738.251 360.915 735.559 356.365 728.713 354.593C719.371 352.194 712.719 356.018 712.719 356.018C715.032 356.102 717.332 356.407 719.588 356.928C721.54 359.244 725.386 364.452 725.373 363.714C725.34 361.656 723.742 358.627 723.351 357.919C724.582 358.29 725.783 358.693 726.924 359.11C728.462 361.256 731.075 364.939 731.131 364.292Z" fill="#B9D2C1"/>
<path d="M712.686 356.021C723.128 356.285 735.072 362.553 737.18 363.694C737.16 363.744 737.144 363.798 737.12 363.848C736.219 365.87 729.52 367.394 723.315 365.222C718.743 363.596 714.95 360.312 712.686 356.021Z" fill="#758963"/>
<path d="M146.835 35.5577C145.687 35.2707 143.609 35.6778 142.831 35.8512C144.833 32.6384 146.611 30.2897 147.229 29.5124C144.646 28.0111 139.702 29.9327 136.87 36.4017C133.003 45.2261 135.708 52.4157 135.708 52.4157C136.164 50.1475 136.834 47.9278 137.71 45.7866C140.309 44.2319 146.071 41.276 145.34 41.1692C143.302 40.8723 140.052 41.9632 139.292 42.2335C139.855 41.0791 140.446 39.9615 141.04 38.8972C143.405 37.7029 147.465 35.7245 146.835 35.5577Z" fill="#B9D2C1"/>
<path d="M135.705 52.4225C137.64 42.1669 145.751 31.4042 147.225 29.4958L147.365 29.5826C149.22 30.7936 149.651 37.6463 146.508 43.4147C144.164 47.6661 140.308 50.8813 135.705 52.4225Z" fill="#758963"/>
<path d="M623.725 308.366C622.664 307.121 620.011 305.907 618.994 305.473C623.828 303.472 627.711 302.277 629.043 301.884C627.358 298.124 619.034 296.929 610.633 301.904C599.193 308.686 597.692 318.288 597.692 318.288H597.709C600.045 316.109 602.585 314.159 605.292 312.463C609.459 312.796 618.303 314.131 617.566 313.42C615.517 311.452 610.997 310.061 609.926 309.75C611.487 308.906 613.052 308.129 614.573 307.415C618.15 308.016 624.305 309.05 623.725 308.366Z" fill="#B9D2C1"/>
<path d="M597.662 318.325C608.091 308.383 625.863 302.821 629.043 301.884C629.073 301.954 629.106 302.024 629.133 302.094C630.234 304.943 625.2 312.97 617.029 316.913C606.977 321.764 597.662 318.325 597.662 318.325Z" fill="#758963"/>
<path d="M24.1412 425.622C24.4415 424.017 23.7175 421.191 23.4173 420.127C28.008 422.629 31.3876 424.888 32.5286 425.675C34.3969 422.005 30.0831 414.776 20.9351 411.389C8.46089 406.772 0.046875 411.643 0.046875 411.643C3.21138 412.087 6.32607 412.833 9.34833 413.871C11.6837 417.324 16.2343 425.018 16.3244 424.004C16.568 421.174 14.8064 416.791 14.3727 415.763C16.0108 416.43 17.5989 417.171 19.1102 417.905C20.9118 421.061 23.9744 426.506 24.1412 425.622Z" fill="#B9D2C1"/>
<path d="M0 411.646C14.2958 413.491 29.7994 423.797 32.5284 425.658C32.495 425.725 32.4617 425.795 32.425 425.862C30.9003 428.507 21.4854 429.648 13.2816 425.782C3.17944 421.041 0 411.646 0 411.646Z" fill="#758963"/>
<path d="M42.0734 75.7327C40.839 74.6618 38.0332 73.8611 36.9622 73.5842C41.4361 70.8852 45.096 69.1103 46.3504 68.5197C44.1185 65.0567 36.8355 64.3294 29.2955 70.5215C19.0099 78.9522 17.8389 89.4714 17.8389 89.4714H17.8555C19.8368 86.9658 22.0521 84.6545 24.4713 82.5687C28.6416 82.2851 37.5828 82.2551 36.7487 81.6679C34.4133 80.0265 29.7426 79.3325 28.6416 79.1924C30.0595 78.1215 31.4875 77.1173 32.8853 76.1898C36.5118 76.2231 42.754 76.3199 42.0734 75.7327Z" fill="#B9D2C1"/>
<path d="M17.8159 89.5048C26.6236 78.1048 43.3516 69.9277 46.3508 68.5198C46.3942 68.5865 46.4376 68.6466 46.4743 68.7133C47.9956 71.3623 44.229 80.0565 36.7491 85.1877C27.5411 91.4999 17.8159 89.5048 17.8159 89.5048Z" fill="#758963"/>
<path d="M69.544 136.633C69.544 136.633 73.7744 153.918 90.8093 147.589C90.8093 147.589 86.649 133.019 68.79 134.317L69.544 136.633Z" fill="#758963"/>
<path d="M86.8525 133.033C86.4989 131.511 86.8959 128.235 88.8342 127.114C91.0562 125.826 93.8052 126.977 95.0296 130.687C96.254 134.397 92.4874 137.05 90.0853 136.666C87.6832 136.282 87.1327 134.214 86.8525 133.033Z" fill="#CB6628"/>
<path d="M68.7769 134.317C68.7769 134.317 74.5886 125.106 88.7943 129.553L87.4865 132.305C87.4865 132.305 76.567 127.998 70.4116 136.526L68.7769 134.317Z" fill="#3F5028"/>
<path d="M466.027 299.875C461.9 292.242 454.928 294.808 454.928 294.808C460.382 288.539 466.227 295.475 466.227 295.475L468.506 292.499C468.506 292.499 459.925 283.788 451.671 293.733C451.671 293.733 436.515 293.26 422.8 289.97L422.032 294.331C438.2 297.493 450.12 297.493 450.12 297.493C457.697 301.303 455.458 306.351 455.458 306.351C455.458 306.351 458.838 306.591 458.838 306.598C460.309 299.755 454.971 297.313 454.971 297.313C460.005 295.838 463.378 302.241 463.378 302.241C463.378 302.241 466.031 299.879 466.027 299.875Z" fill="#242424"/>
<path d="M244.123 353.715L225.7 384.215L211.745 378.711L213.726 374.53L224.232 378.931L238.958 353.715H244.123Z" fill="#242424"/>
<path d="M381.226 353.769C381.226 353.769 379.665 361.893 382.861 365.579C386.775 370.093 399.125 372.212 399.125 372.212L395.669 386.798L391.242 385.436L394.101 374.427C394.101 374.427 384.129 372.852 379.832 368.118C375.034 362.833 376.496 353.772 376.496 353.772L381.226 353.769Z" fill="#242424"/>
<path d="M360.719 353.732L332.004 378.394L321.067 368.128L324.457 364.972L332.591 372.942L354.497 353.732H360.719Z" fill="#242424"/>
<path d="M567.439 152.303L518.146 163.543C513.393 164.614 508.986 166.867 505.335 170.094C501.684 173.321 498.906 177.417 497.258 182.002L490.959 199.427L129.54 214.194L154.182 362.527H412.741L437.279 418.686C437.706 419.665 437.882 420.736 437.792 421.8C437.702 422.865 437.348 423.891 436.763 424.785C436.177 425.679 435.378 426.413 434.438 426.92C433.497 427.428 432.446 427.694 431.377 427.693H161.808C160.64 427.693 159.52 428.157 158.694 428.983C157.868 429.809 157.404 430.929 157.404 432.097C157.404 433.265 157.868 434.385 158.694 435.211C159.52 436.037 160.64 436.501 161.808 436.501H183.734L197.793 456.362C199.861 459.281 204.465 457.82 204.465 454.24V436.501H413.755L427.814 456.362C429.879 459.281 434.486 457.82 434.486 454.24V436.501H454.317C456.85 436.504 459.345 435.875 461.574 434.672C463.804 433.468 465.698 431.728 467.086 429.609C468.474 427.489 469.312 425.057 469.523 422.533C469.735 420.008 469.314 417.47 468.299 415.149L443.064 357.389L505.558 184.978C506.706 181.782 508.642 178.928 511.187 176.679C513.731 174.43 516.802 172.86 520.114 172.114L569.391 160.887L567.439 152.303ZM460.312 283.751L452.188 306.227H416.2V308.87H451.231L443.104 331.346H425.952V319.279H423.307V331.346H399.506V319.279H396.863V331.346H370.787V319.279H368.142V331.346H303.719V319.279H301.077V331.346H277.723V326.135H275.077V331.346H258.119V333.985H275.087V353.719H251.733V341.288H249.111V353.719H225.894V341.288H223.249V353.719H180.051V333.985H200.238V331.343H180.051V319.275H177.409V331.343H157.935L154.202 308.866H175.554V306.224H153.761L152.804 300.442V283.761H175.584V281.105H152.804V258.629H177.429V265.926H180.071V258.629H204.696V265.926H207.341V258.629H234.395V255.987H207.341V233.511H301.09V264.741H303.732V233.511H343.527V248.16H346.173V233.511H423.3V255.987H416.207V258.629H423.3V271.264H425.946V258.629H450.183V271.264H452.829V258.629H469.39L461.266 281.105H416.2V283.748L460.312 283.751ZM442.15 333.985L435.017 353.719H425.952V333.985H442.15ZM303.719 333.985H368.142V353.719H303.719V333.985ZM301.077 353.719H277.723V333.985H301.077V353.719ZM370.804 333.985H396.88V353.719H370.804V333.985ZM141.684 233.511H150.158V255.987H145.417L141.684 233.511ZM425.949 230.868V210.897L450.187 209.897V230.858L425.949 230.868ZM450.187 233.511V255.987H425.949V233.511H450.187ZM423.303 230.868H346.176V214.157L423.303 211.004V230.868ZM343.53 230.868H303.722V215.882L343.527 214.264L343.53 230.868ZM301.08 230.868H207.331V219.829L301.08 215.999V230.868ZM204.696 230.868H180.071V220.943L204.696 219.942V230.868ZM204.696 233.511V255.987H180.071V233.511H204.696ZM177.429 230.868H152.804V222.057L177.429 221.056V230.868ZM177.429 233.511V255.987H152.804V233.511H177.429ZM150.158 258.629V281.105H149.591L145.858 258.629H150.158ZM150.158 283.748V284.522L150.028 283.748H150.158ZM452.832 255.987V233.511H478.475L470.351 255.987H452.832ZM452.832 230.868V209.797L477.074 208.796V230.855L452.832 230.868ZM150.158 222.164V230.868H141.244L139.869 222.584L150.158 222.164ZM158.365 333.985H177.402V353.719H161.651L158.365 333.985ZM399.496 353.719V333.985H423.297V353.719H399.496ZM460.215 418.686C460.643 419.665 460.819 420.736 460.729 421.8C460.639 422.865 460.285 423.891 459.699 424.785C459.114 425.679 458.315 426.413 457.374 426.92C456.434 427.428 455.382 427.694 454.314 427.693H445.219C446.137 425.737 446.626 423.606 446.653 421.445C446.68 419.284 446.245 417.142 445.376 415.163L422.379 362.523H435.681L460.215 418.686ZM479.726 230.078V208.699L487.569 208.365L479.726 230.078Z" fill="#989998"/>
<path d="M328.644 281.109H278.18V283.751H328.644V281.109Z" fill="white"/>
<path d="M328.647 306.228H278.183V308.87H328.647V306.228Z" fill="white"/>
<path d="M524.418 45.2696C529.756 37.6596 530.533 28.3281 527.594 25.9894C523.157 22.453 506.379 31.1372 507.94 55.0314C507.94 55.0314 518.493 53.717 524.418 45.2696Z" fill="#626C57"/>
<path d="M621.533 21.7123C620.198 20.9917 617.349 19.7106 615.881 19.1034C616.832 18.2893 618.12 17.1016 617.933 16.8514C617.746 16.6012 612.765 17.8956 610.329 18.5862C611.497 17.522 613.893 15.25 613.666 14.7796C613.379 14.1691 605.732 16.9748 604.324 17.4786C605.389 16.4777 607.994 13.9389 607.731 13.4418C607.417 12.8179 598.019 16.2776 597.055 16.6479C596.965 16.6813 596.951 16.7313 597.021 16.8014C597.779 17.5153 605.312 24.4247 605.839 23.9709C606.286 23.5839 604.665 19.8507 604.171 18.713C605.028 19.4904 611.324 25.3421 611.844 24.8784C612.234 24.5248 610.9 21.5255 610.233 20.0909C612.235 21.6656 616.238 24.8117 616.572 24.6115C616.832 24.448 616.181 23.0134 615.631 21.9125C619.788 22.4129 623.374 22.6998 621.546 21.7123H621.533Z" fill="#B9D2C1"/>
<path d="M434.229 164.107C432.784 163.643 429.745 162.896 428.194 162.582C428.978 161.608 430.025 160.217 429.792 159.993C429.558 159.77 424.908 161.968 422.639 163.096C423.593 161.838 425.531 159.169 425.221 158.759C424.828 158.212 417.831 162.375 416.547 163.132C417.408 161.945 419.486 158.979 419.149 158.535C418.729 157.981 410.141 163.116 409.241 163.656C409.157 163.706 409.154 163.76 409.241 163.813C410.115 164.377 418.796 169.778 419.229 169.234C419.6 168.771 417.314 165.401 416.604 164.377C417.605 164.984 424.861 169.575 425.278 169.021C425.612 168.601 423.733 165.898 422.809 164.614C425.051 165.795 429.598 168.147 429.879 167.89C430.105 167.68 429.211 166.389 428.457 165.411C432.634 165.134 436.211 164.744 434.232 164.123L434.229 164.107Z" fill="#B9D2C1"/>
<path d="M594.022 14.0688C584.347 16.8245 579.873 24.0775 578.258 27.4838C572.736 26.8723 567.192 28.4377 562.805 31.8477C554.968 37.8529 551.872 47.0843 550.748 51.8051C544.102 48.8392 526.42 42.9173 509.318 54.0837C496.64 62.371 489.944 73.901 482.872 86.1117C475.889 98.1622 468.673 110.62 454.934 121.176C447.08 127.211 441.145 130.674 434.863 134.34C428.928 137.804 422.789 141.383 414.675 147.352C394.501 162.188 387.652 185.565 385.904 192.985C383.128 192.591 378.541 192.862 374.43 197.359C366.683 205.826 362.583 227.745 360.958 238.728H365.429C367.06 227.992 370.924 207.725 377.683 200.335C381.837 195.794 386.551 197.622 386.731 197.696L389.287 198.777L389.764 196.048C389.814 195.761 395.025 167.276 417.288 150.905C425.215 145.077 431.25 141.563 437.085 138.147C443.494 134.411 449.546 130.877 457.623 124.672C472.049 113.586 479.489 100.744 486.685 88.327C493.488 76.58 499.917 65.4904 511.73 57.7736C530.593 45.4595 551.065 56.8595 551.265 56.9763L554.141 58.6244L554.551 55.3382C554.551 55.2114 556.262 42.4002 565.484 35.3507C572.076 30.313 578.755 32.0145 579.022 32.0812L581.047 32.645L581.715 30.6433C581.745 30.5499 584.924 21.2417 595.24 18.2992C602.102 16.3441 607.584 18.2091 607.637 18.2258L609.125 14.0821C608.842 13.9887 602.306 11.7034 594.022 14.0688Z" fill="#758963"/>
<path d="M431.113 238.722H332.934L341.381 353.739H417.148L431.113 238.722Z" fill="#FFCC05"/>
<path d="M372.976 302.504C367.231 303.232 362.86 301.12 359.607 298.087C364.45 293.368 370.637 290.266 377.316 289.209C382.114 288.419 386.251 288.669 389.78 289.543C386.668 294.878 381.226 301.457 372.976 302.504Z" fill="#9A4D19"/>
<path d="M393.077 282.423L351.44 283.858C351.44 283.858 356.705 304.566 372.976 302.504C387.212 300.699 393.077 282.423 393.077 282.423Z" fill="#242424"/>
<path d="M392.72 269.575C392.489 268.277 392.983 265.528 394.675 264.674C396.613 263.697 399.075 264.417 399.933 267.607C400.79 270.796 398.024 273.148 396.016 272.711C394.007 272.274 392.903 270.596 392.72 269.575Z" fill="#242424"/>
<path d="M351.8 265.148C352.714 266.176 353.775 268.878 352.741 270.556C351.557 272.481 348.948 272.738 346.446 270.376C343.943 268.014 345.758 264.371 347.78 263.68C349.802 262.99 351.093 264.347 351.8 265.148Z" fill="#242424"/>
<path d="M431.186 238.722H410.015L405.127 353.739H423.653L431.186 238.722Z" fill="#FCB912"/>
<path d="M499.997 110.42C498.996 111.327 497.021 113.346 496.073 114.406C495.673 113.356 495.072 111.911 494.789 111.988C494.455 112.081 494.121 116.658 493.951 118.94C493.408 117.633 492.216 114.92 491.743 114.964C491.139 115.02 491.196 122.333 491.196 123.678C490.665 122.474 489.304 119.518 488.81 119.578C488.186 119.651 488.27 128.646 488.286 129.586C488.286 129.673 488.326 129.703 488.406 129.663C489.241 129.239 497.374 124.966 497.151 124.382C496.957 123.885 493.304 124.125 492.186 124.212C493.104 123.721 499.967 120.175 499.73 119.601C499.546 119.161 496.604 119.381 495.186 119.511C497.121 118.31 501.011 115.841 500.937 115.507C500.877 115.237 499.466 115.354 498.369 115.487C500.037 112.121 501.371 109.179 499.99 110.426L499.997 110.42Z" fill="#B9D2C1"/>
<path d="M499.75 124.802C504.337 117.816 504.774 109.412 502.085 107.39C498.002 104.338 483.169 112.602 485.231 134.024C485.214 134.014 494.659 132.542 499.75 124.802Z" fill="#758963"/>
<path d="M684.091 78.6387C682.829 77.7946 680.114 76.2366 678.709 75.5093C679.73 74.792 681.125 73.741 680.961 73.4608C680.771 73.1272 675.72 74.018 673.231 74.4617C674.492 73.5142 677.091 71.4824 676.901 70.9853C676.671 70.3514 668.797 72.4266 667.346 72.7969C668.5 71.8928 671.316 69.6141 671.116 69.097C670.862 68.4464 661.181 71.012 660.176 71.2889C660.083 71.3156 660.063 71.3623 660.13 71.439C660.814 72.2231 667.666 79.8064 668.237 79.4027C668.717 79.069 667.453 75.189 667.052 74.008C667.836 74.862 673.555 81.2776 674.108 80.8639C674.529 80.5303 673.485 77.4376 672.951 75.9463C674.779 77.7012 678.502 81.2109 678.843 81.0408C679.12 80.904 678.602 79.4127 678.175 78.2683C682.269 79.1558 685.812 79.7763 684.084 78.622L684.091 78.6387Z" fill="#B9D2C1"/>
<path d="M668.511 82.3152C677.312 85.3345 686.496 83.4862 687.934 80.0198C690.103 74.7786 677.105 61.08 654.572 69.2037C654.558 69.2037 658.745 78.9689 668.511 82.3152Z" fill="#758963"/>
<path d="M658.702 92.7744C657.347 92.1072 654.458 90.8861 652.973 90.3356C653.901 89.4982 655.152 88.2838 654.955 88.0236C654.758 87.7634 649.824 89.2247 647.409 89.9887C648.543 88.891 650.872 86.5557 650.631 86.0819C650.328 85.4814 642.771 88.5174 641.377 89.0645C642.411 88.0236 644.923 85.4147 644.66 84.9242C644.326 84.3104 635.038 88.057 634.077 88.454C633.987 88.4907 633.974 88.5407 634.047 88.6075C634.824 89.3014 642.564 95.9772 643.078 95.5068C643.515 95.1065 641.78 91.4232 641.237 90.3023C642.121 91.0529 648.576 96.7112 649.087 96.2308C649.467 95.8638 648.042 92.8945 647.332 91.4933C649.364 93.008 653.491 96.0306 653.807 95.8304C654.064 95.6603 653.37 94.2424 652.787 93.1614C656.957 93.5351 660.55 93.7119 658.692 92.7811L658.702 92.7744Z" fill="#B9D2C1"/>
<path d="M643.699 98.3525C652.804 100.258 661.691 97.2883 662.689 93.6818C664.19 88.2137 649.594 76.2299 628.226 87.0793C628.226 87.066 633.594 96.2407 643.699 98.3525Z" fill="#626C57"/>
<path d="M619.158 64.7833C618.307 66.0344 616.729 68.7368 615.988 70.1213C615.278 69.0938 614.237 67.6959 613.957 67.856C613.676 68.0162 614.474 73.0973 614.914 75.5894C613.973 74.3183 611.962 71.7094 611.461 71.8829C610.827 72.1064 612.846 79.9899 613.206 81.4412C612.309 80.2835 610.05 77.4377 609.536 77.6479C608.869 77.8948 611.381 87.5866 611.651 88.5941C611.678 88.6875 611.725 88.7076 611.798 88.6408C612.589 87.9736 620.229 81.171 619.828 80.6005C619.495 80.1167 615.608 81.3511 614.424 81.7448C615.285 80.9708 621.763 75.3059 621.336 74.7387C621.023 74.3117 617.9 75.3359 616.406 75.8563C618.174 74.0414 621.717 70.3482 621.547 70.0079C621.413 69.731 619.915 70.2348 618.764 70.6752C619.685 66.5916 620.332 63.0585 619.161 64.7767L619.158 64.7833Z" fill="#B9D2C1"/>
<path d="M622.727 80.3733C625.813 71.6023 624.032 62.411 620.569 60.953C615.341 58.7444 601.535 71.629 609.499 94.2188C609.499 94.2188 619.304 90.1052 622.727 80.3733Z" fill="#758963"/>
<path d="M613.502 126.704C613.139 125.233 612.168 122.254 611.631 120.772C612.868 120.926 614.607 121.089 614.677 120.772C614.757 120.399 610.426 117.66 608.274 116.322C609.846 116.468 613.135 116.715 613.339 116.228C613.599 115.604 606.376 111.844 605.052 111.144C606.516 111.251 610.133 111.461 610.333 110.94C610.586 110.29 601.695 105.679 600.764 105.209C600.678 105.165 600.631 105.185 600.631 105.285C600.611 106.326 600.571 116.545 601.262 116.629C601.849 116.702 603.52 112.989 604.021 111.844C604.021 113.002 603.934 121.593 604.621 121.66C605.148 121.71 606.469 118.704 607.08 117.246C607.25 119.771 607.64 124.872 608.004 124.976C608.301 125.059 608.925 123.608 609.369 122.464C611.797 125.87 613.999 128.713 613.499 126.697C613.139 125.233 614.003 128.719 613.502 126.704Z" fill="#B9D2C1"/>
<path d="M599.501 118.947C603.978 127.098 612.018 131.909 615.414 130.31C620.552 127.892 620.162 109.019 598.016 99.8672C598.016 99.8672 594.533 109.906 599.501 118.947Z" fill="#626C57"/>
<path d="M443.227 93.8687C442.326 95.0864 440.638 97.7221 439.844 99.0899C439.177 98.0323 438.176 96.5911 437.902 96.7546C437.629 96.918 438.206 102.012 438.546 104.518C437.655 103.214 435.754 100.515 435.247 100.678C434.603 100.875 436.297 108.832 436.581 110.3C435.734 109.102 433.578 106.183 433.065 106.36C432.397 106.576 434.503 116.368 434.733 117.369C434.756 117.463 434.803 117.486 434.88 117.426C435.697 116.779 443.607 110.303 443.22 109.716C442.887 109.219 438.973 110.296 437.772 110.64C438.666 109.899 445.352 104.501 444.965 103.927C444.668 103.49 441.509 104.385 439.994 104.845C441.836 103.103 445.526 99.557 445.372 99.21C445.245 98.9298 443.731 99.3702 442.563 99.7605C443.647 95.717 444.438 92.2139 443.2 93.882C442.326 95.0864 444.465 92.2006 443.227 93.8687Z" fill="#B9D2C1"/>
<path d="M446.156 109.592C449.596 100.955 448.191 91.6998 444.795 90.0984C439.657 87.6797 425.342 99.9971 432.374 122.887C432.374 122.887 442.34 119.177 446.156 109.592Z" fill="#758963"/>
<path d="M416.197 108.942C407.659 105.248 398.355 106.376 396.653 109.722C394.081 114.777 405.971 129.443 429.085 123.104C429.085 123.104 425.672 113.042 416.197 108.942Z" fill="#758963"/>
<path d="M445.035 68.0062C443.547 68.3131 440.534 69.1539 439.03 69.6443C439.237 68.4132 439.464 66.685 439.15 66.6016C438.783 66.5082 435.87 70.7252 434.449 72.8204C434.659 71.2557 435.036 67.9828 434.553 67.7593C433.942 67.4757 429.898 74.5419 429.145 75.833C429.308 74.3784 429.662 70.7753 429.145 70.5551C428.504 70.2782 423.543 78.9724 423.036 79.8966C422.989 79.98 423.009 80.0267 423.106 80.0334C424.147 80.0934 434.366 80.5338 434.476 79.8465C434.569 79.2627 430.919 77.4511 429.805 76.9073C430.963 76.9507 439.55 77.3777 439.644 76.6904C439.714 76.1667 436.761 74.7321 435.323 74.0648C437.859 73.9948 442.973 73.8046 443.09 73.4443C443.187 73.1507 441.756 72.4701 440.631 71.983C444.134 69.691 447.063 67.6058 445.028 68.0262L445.035 68.0062Z" fill="#B9D2C1"/>
<path d="M436.731 81.6814C445.072 77.5311 450.183 69.6943 448.715 66.2379C446.5 61.0167 427.61 60.6664 417.588 82.4187C417.591 82.4321 427.493 86.2855 436.731 81.6814Z" fill="#626C57"/>
<path d="M463.388 4.08018C462.637 5.39799 461.279 8.21712 460.652 9.67173C459.861 8.70421 458.714 7.38973 458.447 7.57322C458.113 7.78674 459.378 12.7544 460.018 15.2066C458.977 14.0155 456.765 11.5734 456.282 11.7869C455.664 12.0605 458.307 19.7572 458.78 21.1751C457.779 20.0908 455.317 17.4485 454.814 17.6854C454.183 17.9856 457.446 27.4472 457.793 28.4281C457.826 28.5182 457.876 28.5349 457.946 28.4648C458.677 27.7242 465.753 20.3477 465.309 19.8106C464.932 19.3535 461.162 20.8949 460.011 21.3819C460.805 20.5412 466.797 14.3758 466.35 13.8587C466.017 13.4584 462.974 14.7261 461.523 15.3634C463.144 13.415 466.38 9.45153 466.194 9.12458C466.037 8.86102 464.585 9.48156 463.474 10.0087C464.065 5.86507 464.429 2.28861 463.401 4.09352L463.388 4.08018Z" fill="#B9D2C1"/>
<path d="M468.185 19.3401C470.561 10.3523 468.055 1.32437 464.489 0.153352C459.097 -1.63154 446.366 12.314 456.105 34.1831C456.105 34.1931 465.55 29.3122 468.185 19.3401Z" fill="#758963"/>
<path d="M508.401 87.3797C517.612 88.6742 526.283 85.1211 527.034 81.4412C528.171 75.8864 512.808 64.9001 492.21 77.1441C492.21 77.1441 498.175 85.9418 508.401 87.3797Z" fill="#626C57"/>
<path d="M465.25 77.5111C465.04 79.0124 464.823 82.1318 464.783 83.7131C463.689 83.1093 462.134 82.3153 461.954 82.5822C461.774 82.8491 464.74 87.0494 466.241 89.0912C464.836 88.3705 461.874 86.9193 461.503 87.2963C461.03 87.77 466.338 93.9521 467.302 95.1098C465.967 94.4692 462.701 92.9312 462.324 93.3382C461.847 93.8453 468.383 101.432 469.07 102.213C469.133 102.286 469.187 102.283 469.224 102.193C469.631 101.232 473.471 91.7635 472.86 91.4299C472.34 91.1463 469.41 93.9721 468.523 94.8462C468.953 93.7686 472.236 85.8383 471.619 85.5047C471.149 85.2645 468.803 87.5598 467.696 88.6908C468.476 86.2821 470.014 81.4011 469.697 81.1709C469.454 80.9841 468.333 82.0951 467.495 82.9958C466.511 78.929 465.524 75.4726 465.237 77.5311C465.04 79.0124 465.537 75.4526 465.25 77.5111Z" fill="#B9D2C1"/>
<path d="M438.82 18.3761C438.466 19.8507 437.943 22.9334 437.746 24.5048C436.718 23.7942 435.25 22.8367 435.043 23.1002C434.837 23.3638 437.379 27.821 438.67 29.9963C437.335 29.1422 434.536 27.4073 434.133 27.7476C433.615 28.1813 438.29 34.8438 439.137 36.0882C437.886 35.3209 434.773 33.4693 434.356 33.8363C433.832 34.2967 439.594 42.4872 440.201 43.3312C440.258 43.4113 440.308 43.4113 440.355 43.3312C440.855 42.4171 445.606 33.3692 445.025 32.9889C444.538 32.6552 441.356 35.1808 440.355 35.9648C440.885 34.9372 444.932 27.3573 444.358 26.9803C443.914 26.6934 441.356 28.7518 440.138 29.7661C441.139 27.4307 443.164 22.7399 442.887 22.4797C442.66 22.2695 441.439 23.267 440.515 24.0811C439.934 19.9375 439.29 16.4077 438.803 18.4095C438.466 19.8441 439.307 16.351 438.82 18.3761Z" fill="#B9D2C1"/>
<path d="M498.866 55.2851C498.652 45.9903 493.741 38.02 489.985 37.8732C484.313 37.653 475.949 54.5778 491.376 72.9038C491.376 72.9005 499.099 65.5974 498.866 55.2851Z" fill="#758963"/>
<path d="M555.068 8.2371C554.714 9.71172 554.191 12.7944 553.994 14.3625C552.966 13.6552 551.498 12.711 551.291 12.9612C551.085 13.2114 553.627 17.682 554.918 19.8573C553.583 19.0032 550.784 17.2683 550.381 17.6086C549.864 18.039 554.538 24.7048 555.385 25.9492C554.137 25.1819 551.025 23.3303 550.607 23.6973C550.084 24.1577 555.845 32.3448 556.453 33.1922C556.506 33.269 556.559 33.2723 556.606 33.1922C557.107 32.2781 561.857 23.2302 561.277 22.8499C560.79 22.5162 557.607 25.0418 556.606 25.8258C557.137 24.7949 561.183 17.2149 560.61 16.8413C560.166 16.5544 557.607 18.6095 556.389 19.6237C557.39 17.2883 559.415 12.5976 559.135 12.3407C558.911 12.1305 557.69 13.128 556.766 13.9387C556.186 9.79513 555.542 6.26538 555.055 8.26713C554.711 9.70171 555.555 6.21867 555.068 8.2371Z" fill="#B9D2C1"/>
<path d="M563.916 21.5688C563.702 12.274 558.791 4.30371 555.035 4.15691C549.363 3.93672 540.999 20.8615 556.426 39.1875C556.426 39.1842 564.149 31.8811 563.916 21.5688Z" fill="#758963"/>
<path d="M585.825 54.0238C584.56 53.1797 581.845 51.6283 580.44 50.901C581.461 50.1804 582.852 49.1295 582.692 48.8492C582.532 48.569 577.451 49.4097 574.959 49.8701C576.22 48.9193 578.819 46.8909 578.629 46.3904C578.402 45.7566 570.528 47.8417 569.077 48.212C570.231 47.3079 573.044 45.0259 572.843 44.5088C572.59 43.8415 562.911 46.4338 561.907 46.7107C561.814 46.7374 561.794 46.7841 561.861 46.8575C562.528 47.6415 569.404 55.2181 569.974 54.8145C570.455 54.4808 569.187 50.6041 568.783 49.4231C569.564 50.2772 575.289 56.6861 575.843 56.2724C576.266 55.9388 575.216 52.8461 574.682 51.3548C576.513 53.1096 580.24 56.616 580.58 56.4459C580.854 56.3058 580.337 54.8178 579.893 53.6701C583.987 54.5542 587.53 55.1714 585.801 54.0204L585.825 54.0238Z" fill="#B9D2C1"/>
<path d="M570.248 57.717C579.049 60.7196 588.233 58.8713 589.668 55.4016C591.833 50.157 578.822 36.4717 556.282 44.6155C556.282 44.6155 560.479 54.3774 570.248 57.717Z" fill="#758963"/>
<path d="M551.615 85.4847C550.327 86.2887 547.795 88.127 546.554 89.1078C546.317 87.8834 545.93 86.1819 545.606 86.2153C545.229 86.2553 543.968 91.2197 543.368 93.6785C543.034 92.1405 542.23 88.941 541.7 88.8976C541.032 88.8476 539.698 96.8746 539.444 98.3492C539.091 96.928 538.163 93.4283 537.609 93.3982C536.912 93.3615 535.274 103.24 535.134 104.268C535.134 104.361 535.154 104.401 535.247 104.371C536.248 104.068 545.977 100.925 545.84 100.241C545.723 99.6604 541.673 99.24 540.428 99.1132C541.529 98.7529 549.727 96.164 549.576 95.4901C549.46 94.9763 546.19 94.656 544.612 94.5292C546.947 93.5817 551.692 91.6267 551.675 91.2464C551.675 90.9394 550.09 90.796 548.862 90.7326C551.348 87.3663 553.366 84.3937 551.605 85.4947L551.615 85.4847Z" fill="#B9D2C1"/>
<path d="M548.596 101.192C554.955 94.4057 557.03 85.2744 554.448 82.5453C550.551 78.4217 532.722 84.6638 530.907 108.541C530.907 108.541 541.543 108.722 548.596 101.192Z" fill="#758963"/>
<path d="M553.113 130.894C552.112 129.767 549.85 127.592 548.669 126.541C549.837 126.094 551.445 125.42 551.358 125.109C551.255 124.742 546.14 124.359 543.611 124.192C545.069 123.581 548.088 122.254 548.038 121.726C547.972 121.059 539.828 121.133 538.33 121.136C539.664 120.542 542.964 119.027 542.897 118.467C542.814 117.773 532.795 117.88 531.754 117.903C531.657 117.903 531.627 117.946 531.671 118.033C532.141 118.964 536.919 127.999 537.569 127.745C538.12 127.532 537.846 123.471 537.749 122.227C538.297 123.248 542.26 130.871 542.897 130.604C543.388 130.401 543.137 127.128 542.991 125.553C544.325 127.705 547.074 132.022 547.445 131.942C547.745 131.875 547.615 130.304 547.465 129.083C551.215 130.951 554.494 132.419 553.103 130.878L553.113 130.894Z" fill="#B9D2C1"/>
<path d="M537.109 130.631C544.896 135.718 554.254 136.186 556.499 133.176C559.892 128.632 550.664 112.158 526.807 114.493C526.81 114.493 528.468 124.986 537.109 130.631Z" fill="#758963"/>
<path d="M492.14 166.682C492.246 165.171 492.25 162.041 492.186 160.463C493.317 160.994 494.919 161.681 495.082 161.401C495.246 161.121 492 157.13 490.365 155.199C491.816 155.823 494.869 157.07 495.212 156.667C495.649 156.153 489.938 150.355 488.897 149.28C490.255 149.831 493.631 151.145 493.981 150.711C494.422 150.171 487.386 143.038 486.642 142.314C486.572 142.244 486.521 142.251 486.488 142.344C486.154 143.328 482.958 153.02 483.592 153.33C484.129 153.577 486.862 150.561 487.692 149.627C487.339 150.731 484.603 158.875 485.24 159.149C485.724 159.359 487.909 156.907 488.94 155.706C488.323 158.161 487.119 163.132 487.436 163.343C487.692 163.516 488.733 162.342 489.507 161.374C490.769 165.378 491.986 168.744 492.133 166.672C492.246 165.171 491.99 168.754 492.14 166.682Z" fill="#B9D2C1"/>
<path d="M481.207 154.999C482.955 164.127 489.121 171.179 492.847 170.702C498.479 169.982 503.923 151.909 485.678 136.386C485.678 136.386 479.269 144.866 481.207 154.999Z" fill="#626C57"/>
<path d="M417.004 222.855C415.616 222.248 412.667 221.187 411.156 220.73C412.033 219.842 413.218 218.561 413.007 218.314C412.797 218.067 407.95 219.789 405.578 220.683C406.652 219.525 408.85 217.066 408.58 216.609C408.247 216.025 400.86 219.462 399.499 220.086C400.473 218.991 402.835 216.249 402.552 215.775C402.188 215.178 393.117 219.422 392.176 219.872C392.089 219.912 392.079 219.962 392.156 220.026C392.97 220.693 401.06 226.925 401.547 226.425C401.961 226.004 400.029 222.421 399.426 221.33C400.346 222.034 407.116 227.335 407.586 226.828C407.946 226.441 406.365 223.562 405.584 222.191C407.696 223.595 411.983 226.391 412.287 226.161C412.534 225.977 411.763 224.603 411.122 223.552C415.309 223.702 418.906 223.685 416.998 222.855H417.004Z" fill="#B9D2C1"/>
<path d="M402.328 229.227C411.523 230.635 420.237 227.192 421.035 223.522C422.239 217.981 407.022 206.804 386.268 218.791C386.268 218.801 392.123 227.672 402.328 229.227Z" fill="#758963"/>
<path d="M469.774 178.332C468.269 178.519 465.196 179.116 463.655 179.483C463.959 178.272 464.322 176.568 464.019 176.461C463.662 176.337 460.419 180.304 458.834 182.279C459.168 180.738 459.805 177.505 459.345 177.245C458.757 176.911 454.157 183.63 453.303 184.858C453.583 183.42 454.223 179.854 453.733 179.594C453.116 179.26 447.471 187.537 446.894 188.401C446.84 188.481 446.857 188.531 446.954 188.545C447.985 188.688 458.134 189.949 458.297 189.272C458.437 188.698 454.961 186.603 453.87 185.966C455.021 186.099 463.545 187.217 463.695 186.54C463.809 186.026 460.979 184.354 459.602 183.574C462.134 183.707 467.248 183.931 467.395 183.574C467.512 183.29 466.147 182.499 465.06 181.922C468.729 179.921 471.822 178.072 469.76 178.329L469.774 178.332Z" fill="#B9D2C1"/>
<path d="M460.395 191.297C469.03 187.827 474.771 180.428 473.587 176.865C471.795 171.483 452.996 169.618 441.255 190.493C441.255 190.493 450.817 195.144 460.395 191.297Z" fill="#758963"/>
<path d="M660.803 68.1428C649.163 68.8968 639.725 75.249 629.733 81.9749C622.263 87.0026 614.54 92.2005 605.542 95.1864C592.283 99.5803 580.727 100.151 569.554 100.701C557.119 101.315 545.376 101.896 532.431 107.527C519.917 112.969 509.834 122.813 504.096 135.195C498.925 132.899 485.72 129.063 470.037 140.012C451.614 152.873 442.139 178.099 439.677 185.469C433.859 184.36 427.839 185.605 422.939 188.932C410.094 197.583 398.444 228.419 394.831 238.722H399.502C403.505 227.612 414.298 200.051 425.384 192.585C432.798 187.58 440.084 190.076 440.398 190.179L442.606 190.98L443.273 188.728C443.363 188.418 452.581 157.568 472.559 143.622C489.907 131.515 503.479 139.755 504.043 140.106L506.408 141.614L507.313 138.961C507.376 138.778 513.835 120.418 534.189 111.564C546.393 106.253 557.747 105.692 569.767 105.102C581.237 104.535 593.098 103.951 606.926 99.3668C616.498 96.1906 624.475 90.8193 632.192 85.6281C641.677 79.2425 650.634 73.2139 661.084 72.5367L660.803 68.1428Z" fill="#758963"/>
<path d="M222.902 229.607L222.952 229.624L224.016 225.09H223.986L217.54 225.08H217.537L210.471 225.073L216.84 227.395H216.843L222.902 229.607Z" fill="#242424"/>
<path d="M266.723 228.206L266.736 228.176L268.738 224.005L268.725 224.002L259.677 221.997L255.513 221.076L258.896 223.228L266.723 228.206Z" fill="#242424"/>
<path d="M260.427 245.564L260.437 245.571L261.925 241.157L261.902 241.154L251.569 240.156H251.566L248.443 239.856L251.256 241.194L260.427 245.564Z" fill="#242424"/>
<path d="M281.859 229.003L282.563 228.91L295.281 227.195L282.99 224.516L282.3 224.366L281.859 229.003Z" fill="#242424"/>
<path d="M276.178 247.586L276.064 247.846L289.369 250.379L277.973 243.596L277.953 243.586L276.178 247.586Z" fill="#242424"/>
<path d="M232.79 243.986L232.77 243.976L231.495 248.46L231.552 248.464L243.682 249.044H243.686L245.024 249.107L243.836 248.61L232.79 243.986Z" fill="#242424"/>
<path d="M238.442 219.288L237.591 223.869L248.851 223.358L251.123 223.255L248.854 222.544L238.442 219.288Z" fill="#242424"/>
<path d="M225.77 208.916L228.996 205.553L228.963 205.533L228.956 205.529L217.346 198.65L225.744 208.882V208.886L225.77 208.916Z" fill="#242424"/>
<path d="M241.438 255.069L241.688 254.442C241.818 254.109 241.948 253.775 242.075 253.441L242.312 252.824L242.682 251.843L242.902 251.243C243.023 250.909 243.143 250.576 243.256 250.272C243.326 250.075 243.396 249.882 243.463 249.688L243.693 249.021L231.559 248.437C230.775 251.223 229.991 253.959 229.25 256.507H240.837C240.901 256.357 240.961 256.204 241.024 256.054L241.438 255.069Z" fill="#758963"/>
<path d="M237.1 226.398C236.253 230.865 234.602 237.354 232.79 243.986L243.836 248.61C243.886 248.464 243.933 248.32 243.983 248.177L244.317 247.206C244.373 247.036 244.427 246.872 244.48 246.695C244.59 246.362 244.697 246.028 244.814 245.694C244.861 245.551 244.904 245.404 244.947 245.261C245.057 244.927 245.164 244.567 245.281 244.223L245.368 243.936C245.879 242.215 246.331 240.547 246.722 238.932L246.782 238.695C246.859 238.361 246.932 238.054 247.006 237.738L247.096 237.347C247.163 237.05 247.226 236.76 247.289 236.466C247.319 236.32 247.353 236.173 247.383 236.026C247.439 235.749 247.496 235.472 247.55 235.199C247.583 235.042 247.613 234.885 247.643 234.728C247.693 234.465 247.743 234.201 247.79 233.941C247.82 233.781 247.85 233.607 247.877 233.46C247.923 233.204 247.967 232.95 248.007 232.696L248.087 232.219C248.123 231.969 248.163 231.722 248.2 231.475C248.224 231.319 248.247 231.158 248.267 230.998C248.305 230.758 248.338 230.518 248.367 230.278L248.427 229.811C248.457 229.574 248.484 229.337 248.51 229.103L248.56 228.646C248.584 228.416 248.611 228.182 248.631 227.956L248.671 227.512C248.691 227.285 248.711 227.055 248.727 226.845L248.757 226.424C248.757 226.197 248.787 225.971 248.801 225.757L248.821 225.367C248.821 225.137 248.844 224.906 248.854 224.699C248.854 224.586 248.854 224.476 248.854 224.366C248.854 224.126 248.854 223.885 248.871 223.649C248.871 223.588 248.871 223.535 248.871 223.475V223.388L237.611 223.902L238.435 219.288L248.854 222.554C248.854 222.007 248.854 221.473 248.821 220.946V220.679C248.821 220.479 248.797 220.279 248.787 220.082L248.767 219.728C248.767 219.542 248.737 219.358 248.724 219.175C248.724 219.051 248.704 218.924 248.691 218.801C248.691 218.624 248.657 218.467 248.641 218.281L248.6 217.897C248.58 217.733 248.557 217.563 248.537 217.406L248.487 217.019L248.417 216.549L248.357 216.169L248.277 215.718L248.207 215.341C248.18 215.194 248.15 215.051 248.12 214.908L248.04 214.541C248.01 214.4 247.98 214.26 247.947 214.124L247.857 213.763C247.823 213.63 247.79 213.496 247.753 213.363C247.716 213.229 247.69 213.129 247.656 213.029C247.623 212.929 247.586 212.772 247.546 212.646C247.506 212.519 247.476 212.415 247.439 212.312C247.403 212.209 247.363 212.065 247.323 211.945C247.283 211.825 247.246 211.721 247.209 211.611C247.173 211.501 247.126 211.378 247.086 211.278L246.956 210.944C246.916 210.834 246.876 210.727 246.832 210.61C246.789 210.494 246.736 210.38 246.685 210.277L246.565 209.987C246.482 209.803 246.399 209.623 246.312 209.443C246.265 209.346 246.218 209.249 246.168 209.156C246.118 209.062 246.052 208.919 245.992 208.802C245.932 208.685 245.898 208.635 245.855 208.552C245.811 208.469 245.741 208.342 245.681 208.242C245.621 208.142 245.585 208.075 245.535 207.992L245.361 207.705C245.311 207.625 245.258 207.544 245.204 207.464C245.151 207.384 245.087 207.284 245.027 207.194L244.864 206.964C244.804 206.877 244.744 206.79 244.68 206.707C244.617 206.624 244.57 206.56 244.514 206.49L244.323 206.247L244.153 206.04L243.953 205.81C243.896 205.743 243.84 205.68 243.78 205.616L243.576 205.396L243.399 205.216L243.186 205.009L243.006 204.842C242.936 204.775 242.862 204.712 242.789 204.649L242.605 204.492L242.378 204.308L242.198 204.168L241.958 203.995L241.781 203.871C241.698 203.811 241.611 203.758 241.528 203.704L241.358 203.594L241.071 203.431L240.924 203.347C240.78 203.267 240.634 203.194 240.487 203.124C240.28 203.024 240.073 202.937 239.866 202.854L239.759 202.814C239.549 202.734 239.339 202.664 239.129 202.6H239.092C238.646 202.471 238.189 202.378 237.728 202.323C241.541 203.634 239.643 212.993 237.1 226.398Z" fill="#758963"/>
<path d="M222.901 229.604L216.843 227.395C216.82 227.472 216.796 227.545 216.776 227.622C216.756 227.699 216.746 227.732 216.729 227.785C216.599 228.259 216.469 228.736 216.346 229.22V229.263C214.447 236.666 212.779 244.89 211.365 256.53H218.271C218.521 254.512 218.795 252.427 219.055 250.649C219.889 244.907 221.17 237.204 222.901 229.604Z" fill="#758963"/>
<path d="M223.985 225.087C224.146 224.459 224.319 223.832 224.476 223.212C228.106 209.733 233.454 203.494 237.717 202.253C235.402 201.976 233.047 202.674 230.735 204.185C230.481 204.349 230.231 204.519 229.981 204.712H229.961C229.627 204.962 229.293 205.233 228.96 205.516L228.993 205.536L225.757 208.916V208.876C225.69 208.953 225.627 209.029 225.563 209.109L225.537 209.143C225.072 209.73 224.617 210.349 224.172 211.001L224.156 211.024C223.942 211.338 223.732 211.658 223.522 211.985L223.458 212.082C223.255 212.416 223.055 212.726 222.854 213.056L222.784 213.173C222.589 213.507 222.392 213.847 222.194 214.194L222.144 214.287C221.74 215.008 221.346 215.758 220.963 216.532L220.919 216.623C220.736 216.993 220.559 217.37 220.382 217.75L220.306 217.91C220.135 218.287 219.972 218.664 219.798 219.051L219.722 219.228C219.555 219.619 219.388 220.012 219.228 220.413C219.208 220.459 219.191 220.506 219.171 220.556C218.838 221.393 218.504 222.257 218.197 223.138L218.147 223.282C218 223.705 217.857 224.129 217.713 224.559L217.643 224.773C217.613 224.87 217.583 224.97 217.55 225.07L223.985 225.087Z" fill="#758963"/>
<path d="M251.256 241.194V241.244C251.179 241.514 251.099 241.788 251.022 242.062C250.972 242.228 250.922 242.395 250.876 242.569C250.798 242.842 250.721 243.119 250.645 243.399C250.599 243.573 250.549 243.733 250.502 243.926C250.429 244.203 250.352 244.487 250.278 244.771L250.138 245.314L249.918 246.178C249.875 246.359 249.828 246.545 249.785 246.729C249.711 247.023 249.641 247.319 249.568 247.62C249.524 247.803 249.484 247.987 249.441 248.17C249.368 248.477 249.298 248.784 249.227 249.098C249.187 249.274 249.147 249.458 249.107 249.638C249.037 249.972 248.967 250.279 248.897 250.606L248.787 251.126L248.577 252.15C248.547 252.294 248.52 252.441 248.49 252.587C248.413 252.964 248.34 253.345 248.267 253.728C248.15 254.16 248.069 254.601 248.023 255.046C247.971 255.538 247.958 256.033 247.983 256.527H256.944C258.005 253.118 259.21 249.325 260.447 245.561L251.256 241.194Z" fill="#758963"/>
<path d="M261.902 241.151C263.627 236.07 265.335 231.375 266.736 228.176V228.203L258.896 223.222L258.716 223.515C258.656 223.622 258.592 223.725 258.529 223.829L258.238 224.323L258.048 224.656L257.761 225.163C257.701 225.277 257.638 225.39 257.575 225.497C257.478 225.67 257.384 225.831 257.288 226.024C257.228 226.141 257.168 226.258 257.104 226.374L256.821 226.922L256.637 227.279L256.354 227.849C256.297 227.969 256.237 228.089 256.177 228.209C256.083 228.406 255.987 228.603 255.893 228.803L255.726 229.164L255.436 229.791L255.283 230.124C255.182 230.348 255.082 230.571 254.986 230.792C254.942 230.892 254.896 230.995 254.852 231.099C254.749 231.342 254.642 231.589 254.539 231.839L254.459 232.029C253.943 233.286 253.437 234.606 252.941 235.99L252.85 236.24C252.754 236.513 252.657 236.794 252.56 237.074C252.52 237.194 252.477 237.314 252.437 237.437C252.347 237.704 252.257 237.975 252.17 238.245L252.03 238.668C251.943 238.932 251.86 239.202 251.776 239.469C251.726 239.623 251.679 239.773 251.633 239.93C251.609 239.996 251.589 240.066 251.569 240.133L261.902 241.151Z" fill="#758963"/>
<path d="M268.725 223.999C272.728 215.958 275.397 212.562 278.243 212.028L278.183 211.998C278.093 211.948 277.999 211.902 277.903 211.855L277.569 211.708L277.292 211.595C277.165 211.545 277.032 211.501 276.902 211.461L276.665 211.384C276.448 211.324 276.228 211.271 275.998 211.228C275.864 211.204 275.731 211.181 275.597 211.164H275.464C275.374 211.164 275.28 211.141 275.19 211.134H275.023H274.773H274.353H274.163C274.083 211.134 274.003 211.134 273.922 211.134H273.726L273.485 211.158L273.285 211.184L273.045 211.218L272.838 211.251L272.598 211.298L272.388 211.341L272.144 211.398L271.931 211.451L271.684 211.521L271.47 211.585L271.223 211.668L271.003 211.741L270.753 211.835L270.533 211.918L270.279 212.025L270.059 212.118L269.796 212.242L269.579 212.342L269.295 212.489L269.035 212.622C268.897 212.696 268.76 212.772 268.624 212.852L268.394 212.989L268.137 213.143L267.894 213.299L267.647 213.46L267.397 213.63L267.157 213.797L266.9 213.987L266.663 214.16L266.403 214.364L266.169 214.551L265.905 214.767L265.672 214.961L265.405 215.191L265.175 215.398L264.908 215.645L264.678 215.858L264.407 216.122L264.181 216.345L263.907 216.622C263.834 216.699 263.757 216.776 263.684 216.856L263.407 217.15C263.333 217.23 263.263 217.31 263.19 217.386C263.116 217.463 263 217.597 262.906 217.72C262.813 217.843 262.769 217.877 262.703 217.954C262.636 218.03 262.502 218.18 262.406 218.287C262.309 218.394 262.282 218.434 262.222 218.511C262.162 218.587 262.012 218.761 261.889 218.894L261.755 219.061C261.344 219.582 260.933 220.129 260.524 220.703L260.434 220.829L260.1 221.31L259.944 221.54L259.633 222.007L268.725 223.999Z" fill="#758963"/>
<path d="M282.564 228.893L281.86 228.99L282.3 224.353L282.991 224.503C283.191 218.497 281.606 213.903 278.243 212.015C275.401 212.549 272.738 215.945 268.725 223.986L266.723 228.159C265.322 231.359 263.614 236.053 261.889 241.134H261.912L260.454 245.574C259.216 249.338 258.012 253.131 256.951 256.541H271.721C273.172 253.825 274.723 250.796 276.205 247.596L277.983 243.593C278.454 242.505 278.91 241.409 279.351 240.303C280.842 236.631 281.92 232.804 282.564 228.893Z" fill="#B9D2C1"/>
<path d="M248.003 255.049C247.913 255.536 247.826 256.05 247.74 256.531H247.963C247.938 256.037 247.951 255.541 248.003 255.049Z" fill="#B9D2C1"/>
<path d="M251.633 239.953C251.609 240.02 251.589 240.086 251.569 240.156C251.589 240.09 251.609 240.02 251.633 239.953Z" fill="#B9D2C1"/>
<path d="M251.78 239.493C251.863 239.226 251.947 238.955 252.033 238.692C251.943 238.955 251.86 239.236 251.78 239.493Z" fill="#B9D2C1"/>
<path d="M252.941 236.013C253.435 234.627 253.941 233.307 254.459 232.052C253.943 233.311 253.437 234.631 252.941 236.013Z" fill="#B9D2C1"/>
<path d="M248.881 250.605C248.951 250.272 249.021 249.958 249.091 249.638C249.021 249.958 248.951 250.279 248.881 250.605Z" fill="#B9D2C1"/>
<path d="M247.743 213.353C247.78 213.486 247.813 213.62 247.847 213.753C247.813 213.62 247.777 213.486 247.743 213.353Z" fill="#B9D2C1"/>
<path d="M245.845 208.492C245.888 208.575 245.938 208.659 245.982 208.742C245.935 208.659 245.888 208.575 245.845 208.492Z" fill="#B9D2C1"/>
<path d="M222.845 213.066C223.045 212.732 223.245 212.399 223.449 212.092C223.245 212.409 223.045 212.732 222.845 213.066Z" fill="#B9D2C1"/>
<path d="M222.184 214.214C222.38 213.867 222.577 213.526 222.775 213.193C222.578 213.516 222.378 213.857 222.184 214.214Z" fill="#B9D2C1"/>
<path d="M220.953 216.549C221.337 215.775 221.73 215.024 222.134 214.304C221.73 215.018 221.337 215.768 220.953 216.549Z" fill="#B9D2C1"/>
<path d="M219.789 219.061C219.955 218.674 220.122 218.297 220.296 217.92C220.126 218.297 219.955 218.674 219.789 219.061Z" fill="#B9D2C1"/>
<path d="M224.163 211.011C224.607 210.362 225.062 209.742 225.527 209.153C225.062 209.74 224.607 210.359 224.163 211.011Z" fill="#B9D2C1"/>
<path d="M223.512 211.995C223.722 211.661 223.932 211.348 224.146 211.034C223.932 211.348 223.722 211.668 223.512 211.995Z" fill="#B9D2C1"/>
<path d="M248.847 223.615C248.847 223.852 248.847 224.092 248.831 224.333C248.837 224.092 248.844 223.852 248.847 223.615Z" fill="#B9D2C1"/>
<path d="M219.218 220.423C219.381 220.022 219.551 219.629 219.712 219.238C219.545 219.629 219.381 220.022 219.218 220.423Z" fill="#B9D2C1"/>
<path d="M243.456 249.695C243.533 249.478 243.613 249.258 243.686 249.028L243.456 249.695Z" fill="#B9D2C1"/>
<path d="M242.068 253.448C241.941 253.782 241.811 254.115 241.681 254.449C241.811 254.109 241.941 253.778 242.068 253.448Z" fill="#B9D2C1"/>
<path d="M244.794 245.705C244.69 246.038 244.583 246.372 244.46 246.705C244.583 246.365 244.69 246.032 244.794 245.705Z" fill="#B9D2C1"/>
<path d="M247.076 211.211C247.116 211.325 247.156 211.441 247.199 211.545C247.156 211.455 247.109 211.338 247.076 211.211Z" fill="#B9D2C1"/>
<path d="M243.249 250.279C243.136 250.612 243.016 250.923 242.896 251.25C243.016 250.913 243.136 250.599 243.249 250.279Z" fill="#B9D2C1"/>
<path d="M229.961 204.729C229.625 204.98 229.291 205.247 228.96 205.529C229.294 205.249 229.627 204.979 229.961 204.729Z" fill="#B9D2C1"/>
<path d="M239.119 202.537C239.329 202.6 239.54 202.67 239.75 202.75C239.54 202.674 239.329 202.604 239.119 202.537Z" fill="#B9D2C1"/>
<path d="M216.839 227.395C216.819 227.468 216.796 227.545 216.776 227.622C216.796 227.545 216.819 227.472 216.843 227.395H216.839Z" fill="#B9D2C1"/>
<path d="M229.98 204.716C230.231 204.529 230.481 204.352 230.734 204.188C230.481 204.355 230.231 204.539 229.98 204.716Z" fill="#B9D2C1"/>
<path d="M248.854 222.554C248.854 222.007 248.854 221.473 248.82 220.946C248.84 221.473 248.854 222.007 248.854 222.554Z" fill="#B9D2C1"/>
<path d="M243.772 205.556C243.833 205.62 243.889 205.683 243.946 205.75C243.886 205.683 243.829 205.62 243.772 205.556Z" fill="#B9D2C1"/>
<path d="M245.248 244.24C245.144 244.574 245.038 244.931 244.914 245.278C245.038 244.924 245.144 244.574 245.248 244.24Z" fill="#B9D2C1"/>
<path d="M217.633 224.783C217.603 224.88 217.57 224.98 217.537 225.08C217.573 224.98 217.603 224.89 217.633 224.783Z" fill="#B9D2C1"/>
<path d="M239.856 202.794C240.063 202.877 240.27 202.964 240.477 203.064C240.27 202.964 240.063 202.871 239.856 202.794Z" fill="#B9D2C1"/>
<path d="M225.757 208.876L225.567 209.113C225.63 209.033 225.694 208.956 225.76 208.879L225.757 208.876Z" fill="#B9D2C1"/>
<path d="M316.86 106.249H320.457C325.655 96.7442 347.948 56.4724 368.022 27.7773C368.022 27.7773 336.671 63.1816 316.86 106.249Z" fill="#3F5028"/>
<path d="M332.61 90.5225C329.091 96.4376 325.938 101.836 323.402 106.25H326.432C327.366 104.958 328.39 103.52 329.494 101.952C330.331 98.0902 331.371 94.2749 332.61 90.5225Z" fill="#3F5028"/>
<path d="M360.875 43.9582C362.947 41.9575 365.121 40.0645 367.387 38.2866C370.056 32.7117 372.552 27.0535 374.797 21.3818C374.787 21.3952 368.882 30.9068 360.875 43.9582Z" fill="#3F5028"/>
<path d="M326.432 106.249H328.657C328.908 104.799 329.187 103.367 329.494 101.952C328.39 103.52 327.366 104.958 326.432 106.249Z" fill="#626C57"/>
<path d="M347.463 59.9691C351.364 54.1816 355.855 48.8148 360.865 43.9551C368.872 30.9037 374.787 21.3921 374.787 21.3921C372.542 27.0637 370.04 32.7353 367.377 38.2969C369.476 36.6554 371.538 35.2108 373.543 33.9397C376.157 27.2558 378.408 20.4355 380.285 13.5085C380.285 13.5085 351.126 23.1503 326.171 67.6158C325.838 68.243 325.454 68.9036 325.077 69.5975C322.328 76.7722 318.98 83.7027 315.068 90.3156C312.81 95.5148 310.838 100.834 309.163 106.25H311.902C315.262 97.8389 324.803 75.4026 337.925 56.9798C357.402 29.5959 372.425 20.6481 372.425 20.6481C372.425 20.6481 362.907 28.545 343.31 55.2116C328.036 75.9898 318.178 97.6854 314.571 106.256H316.883C336.694 63.1886 368.044 27.7843 368.044 27.7843C347.97 56.4761 325.674 96.7512 320.48 106.256H323.426C325.944 101.842 329.097 96.4443 332.634 90.5291C337.218 76.5302 343.713 65.4806 347.463 59.9691Z" fill="#626C57"/>
<path d="M380.295 127.181L372.739 136.776C374.073 132.079 373.653 125.526 373.653 125.526L371.157 125.416C371.157 125.416 369.86 131.475 369.015 139.482C360.841 148.231 351.944 156.277 342.419 163.533L345.422 167.076C358.123 156.597 371.584 142.361 371.584 142.361C376.421 142.415 381.247 141.901 385.964 140.829L385.216 137.717L375.127 138.611C377.87 136.025 383.068 129.369 383.068 129.369L380.295 127.181Z" fill="#242424"/>
<path d="M365.105 106.253H261.201L279.624 208.169L341.955 207.912L365.105 106.253Z" fill="white"/>
<path d="M302.854 180.017C297.113 180.744 292.742 178.632 289.489 175.596C294.334 170.88 300.52 167.78 307.198 166.722C311.996 165.931 316.129 166.182 319.662 167.056C316.546 172.387 311.108 178.969 302.854 180.017Z" fill="#9A4D19"/>
<path d="M322.955 159.933L281.319 161.368C281.319 161.368 286.583 182.079 302.858 180.017C317.093 178.212 322.955 159.933 322.955 159.933Z" fill="#242424"/>
<path d="M322.598 147.088C322.371 145.787 322.865 143.042 324.557 142.187C326.495 141.207 328.954 141.927 329.811 145.12C330.669 148.313 327.906 150.662 325.898 150.225C323.889 149.787 322.775 148.099 322.598 147.088Z" fill="#242424"/>
<path d="M281.683 142.658C282.593 143.685 283.654 146.391 282.623 148.069C281.439 149.994 278.83 150.248 276.328 147.886C273.826 145.524 275.641 141.881 277.662 141.19C279.684 140.499 280.972 141.857 281.683 142.658Z" fill="#242424"/>
<path d="M361.343 123H264.225L265.019 127.364H360.335L361.343 123Z" fill="#FFCC05"/>
<path d="M363.281 114.573H262.696L263.47 118.937H362.277L363.281 114.573Z" fill="#FFCC05"/>
<path d="M365.106 106.253H341.072L328.688 207.912H341.956L365.106 106.253Z" fill="#E6E7E8"/>
<path d="M270.286 156.497C262.165 149.757 256.941 144.463 256.941 144.459C255.75 136.479 254.192 130.487 254.192 130.487L251.703 130.707C251.703 130.707 251.553 137.27 253.101 141.904L245.137 132.646L242.468 134.961C242.468 134.961 247.946 141.383 250.809 143.852L240.69 143.392L240.076 146.531C244.835 147.4 249.679 147.707 254.509 147.445C254.509 147.445 262.139 154.849 271.407 162.712L270.286 156.497Z" fill="#242424"/>
<path d="M358.917 57.5538C373.596 38.8708 382.804 32.8188 382.804 32.8188C382.804 32.8188 371.097 37.0425 354.733 57.5738C339.36 76.8573 332.714 101.242 331.479 106.25H333.665C335.877 100.034 345.328 74.8355 358.917 57.5538Z" fill="#626C57"/>
<path d="M292.969 206.694C292.969 206.694 291.408 214.821 294.604 218.507C298.517 223.021 310.868 225.137 310.868 225.137L307.412 239.726L302.984 238.361L305.844 227.352C305.844 227.352 295.872 225.781 291.574 221.046C286.777 215.762 288.238 206.701 288.238 206.701L292.969 206.694Z" fill="#242424"/>
<path d="M314.124 205.813C314.124 205.813 312.566 213.94 315.759 217.627C319.673 222.141 332.023 224.256 332.023 224.256L328.567 238.845L324.14 237.481L326.999 226.471C326.999 226.471 317.027 224.9 312.73 220.166C307.932 214.881 309.393 205.82 309.393 205.82L314.124 205.813Z" fill="#242424"/>
<path d="M372.402 20.6479C372.402 20.6479 357.389 29.5958 337.902 56.9797C324.797 75.4024 315.255 97.8387 311.879 106.249H314.548C318.154 97.6852 328.013 75.9896 343.286 55.2048C362.877 28.5449 372.402 20.6479 372.402 20.6479Z" fill="#3F5028"/>
<path d="M330.255 21.8823C330.255 21.8823 317.931 42.0866 305.67 70.4581C300.843 81.6312 294.898 100.217 292.993 106.249H294.994C296.439 102.736 300.096 94.0287 306.004 81.1508C313.888 64.0458 330.255 21.8823 330.255 21.8823Z" fill="#626C57"/>
<path d="M341.395 106.25H344.064C351.04 97.3218 381.07 58.0975 393.968 28.3716C393.958 28.3849 356.512 81.6681 341.395 106.25Z" fill="#626C57"/>
<path d="M334.519 15.5503C334.519 15.5503 290.063 35.8247 283.728 106.249H287.544C288.652 99.4202 292.732 76.27 299.068 63.5756C310.935 39.7981 327.426 22.9968 327.426 22.9968C327.426 22.9968 313.774 41.0125 303.231 64.2862C296.769 78.552 291.221 99.7338 289.586 106.249H292.999C294.891 100.218 300.836 81.6313 305.677 70.4582C317.937 42.1001 330.262 21.8825 330.262 21.8825C330.262 21.8825 313.894 64.046 306.037 81.1509C300.125 94.0288 296.469 102.736 295.027 106.249H297.983C300.125 101.702 305.967 89.3447 314.371 71.9229C325.107 49.6634 332.12 19.2102 332.12 19.2102C326.315 67.4823 305.457 98.2792 299.478 106.263H303.815C308.012 101.28 311.78 95.9508 315.078 90.3323C318.99 83.7194 322.338 76.7888 325.087 69.6142C330.625 55.1782 334.852 37.0591 334.519 15.5503Z" fill="#758963"/>
<path d="M314.361 71.9228C305.957 89.3447 300.116 101.702 297.974 106.249H299.468C305.447 98.2692 326.305 67.4689 332.11 19.1968C332.11 19.1968 325.097 49.6634 314.361 71.9228Z" fill="#626C57"/>
<path d="M247.536 212.619C247.576 212.746 247.61 212.872 247.646 213.003C247.61 212.879 247.576 212.746 247.536 212.619Z" fill="#B9D2C1"/>
<path d="M327.433 22.9966C327.433 22.9966 310.942 39.7979 299.075 63.5754C292.736 76.2531 288.659 99.42 287.551 106.249H289.593C291.228 99.7336 296.776 78.5584 303.238 64.286C313.781 41.019 327.433 22.9966 327.433 22.9966Z" fill="#626C57"/>
<path d="M389.934 30.3865C389.934 30.3865 374.02 42.814 358.3 65.0634C351.347 74.9087 342.619 88.6941 336.414 106.246H338.416C340.951 101.649 349.949 85.6748 362.34 67.629C369.736 56.8696 378.945 44.1919 389.934 30.3865Z" fill="#626C57"/>
<path d="M367.378 38.3002C365.111 40.0781 362.938 41.9711 360.865 43.9718C355.856 48.8315 351.364 54.1983 347.464 59.9858C343.714 65.4973 337.218 76.5469 332.611 90.5391C331.371 94.2916 330.331 98.1069 329.495 101.969C329.188 103.384 328.909 104.816 328.657 106.266H331.48C332.724 101.262 339.36 76.8739 354.733 57.5904C371.098 37.0591 382.804 32.8354 382.804 32.8354C382.804 32.8354 373.61 38.894 358.917 57.5704C345.328 74.8521 335.877 100.051 333.665 106.28H336.414C342.633 88.7276 351.347 74.9422 358.3 65.0969C374.02 42.8175 389.934 30.3866 389.934 30.3866C378.944 44.1887 369.736 56.8664 362.343 67.6291C349.952 85.6749 340.955 101.659 338.419 106.246H341.395C356.512 81.6681 393.958 28.3849 393.958 28.3849C381.06 58.1108 351.03 97.3351 344.054 106.263H348.428C361.156 91.4232 390.548 54.8847 399.202 24.5815C399.202 24.5815 387.859 24.8651 373.543 33.9564C371.551 35.2142 369.476 36.6588 367.378 38.3002Z" fill="#758963"/>
<path d="M447.668 31.7011C447.454 22.4097 442.543 14.436 438.79 14.2892C433.118 14.069 424.751 30.9938 440.178 49.3198C440.178 49.3198 447.901 42.0134 447.668 31.7011Z" fill="#758963"/>
<path d="M420.26 171.934C429.549 172.411 437.873 168.104 438.296 164.374C438.943 158.739 422.669 149.157 403.246 163.169C403.246 163.169 409.958 171.406 420.26 171.934Z" fill="#626C57"/>
<path d="M158.125 113.215C158.125 113.215 155.593 99.3466 144.25 100.488C144.25 100.488 142.998 114.386 158.208 114.607L158.125 113.215Z" fill="#758963"/>
<path d="M248.777 225.74C248.777 225.967 248.751 226.194 248.734 226.408C248.741 226.194 248.754 225.967 248.777 225.74Z" fill="#B9D2C1"/>
<path d="M490.018 41.9534C489.665 43.428 489.141 46.5107 488.944 48.0787C487.916 47.3714 486.448 46.4273 486.242 46.6775C486.035 46.9277 488.577 51.3983 489.868 53.5735C488.534 52.7194 485.735 50.9846 485.331 51.3249C484.814 51.7552 489.488 58.4211 490.335 59.6655C489.087 58.8982 485.975 57.0465 485.558 57.4135C485.034 57.8739 490.796 66.0611 491.403 66.9085C491.46 66.9852 491.51 66.9885 491.556 66.9085C492.057 65.9943 496.808 56.9464 496.227 56.5661C495.74 56.2325 492.557 58.758 491.556 59.5421C492.087 58.5112 496.134 50.9312 495.56 50.5575C495.116 50.2706 492.557 52.3257 491.339 53.34C492.34 51.0213 494.365 46.3138 494.088 46.0569C493.862 45.8468 492.641 46.8443 491.716 47.655C491.136 43.5114 490.492 39.9816 490.005 41.9834C489.655 43.428 490.505 39.9349 490.018 41.9534Z" fill="#B9D2C1"/>
<path d="M454.811 30.5767C451.114 41.1259 442.663 46.7041 434.486 52.1021C426.206 57.5702 418.382 62.7347 416.1 72.4532C413.481 83.6063 417.291 92.6108 421.328 102.146C425.415 111.801 429.639 121.79 428.785 135.989C427.56 156.263 415.506 175.283 395.089 201.282C383.185 216.449 378.441 231.469 376.716 238.712H381.283C384.63 226.095 390.506 214.291 398.555 204.015C419.5 177.325 431.877 157.691 433.168 136.266C434.089 121.036 429.459 110.096 425.372 100.444C421.462 91.2063 418.085 83.226 420.367 73.4741C422.252 65.4471 429.042 60.9665 436.895 55.792C445.269 50.2638 454.761 43.9984 458.948 32.0479L454.811 30.5767Z" fill="#758963"/>
<path d="M28.802 352.578C31.4343 352.084 33.3093 349.842 34.5003 347.824C34.1951 348.955 34.1775 350.145 34.449 351.286C34.7205 352.426 35.2726 353.48 36.055 354.353C37.6364 356.168 40.8792 357.075 43.0144 354.326C46.5175 349.815 42.7008 345.198 39.1644 343.874C41.0227 343.323 43.2112 342.142 44.1687 339.593C45.6934 335.53 43.725 332.397 40.1986 333.171C36.8624 333.905 34.6037 338.586 34.6037 338.586C34.6037 338.586 35.341 335.203 33.8864 333.087C33.2734 332.273 32.3821 331.712 31.3823 331.512C30.3826 331.312 29.3443 331.487 28.465 332.003C23.047 335.283 26.7702 341.181 28.7253 341.138C27.4954 341.251 26.3191 341.695 25.3208 342.422C24.3224 343.149 23.5391 344.132 23.0536 345.268C21.2654 349.475 23.7976 353.512 28.802 352.578Z" fill="white"/>
<path d="M338.599 315.302L338.145 309.354C333.767 314.803 329.066 319.985 324.066 324.87C311.275 322.979 310.721 335.186 310.721 335.186L314.391 335.88C314.391 335.88 314.094 326.805 322.345 327.833C322.345 327.833 315.439 330.575 317.47 339.009H321.024C321.024 339.009 319.255 332.003 323.989 329.735C323.989 329.735 321.654 335.113 327.326 339.22L329.661 336.784C329.661 336.784 324.63 334.515 327.719 326.622C327.736 326.619 332.33 322.498 338.599 315.302Z" fill="#242424"/>
<path d="M379.088 481C495.786 481 590.389 475.816 590.389 469.42C590.389 463.024 495.786 457.84 379.088 457.84C262.389 457.84 167.787 463.024 167.787 469.42C167.787 475.816 262.389 481 379.088 481Z" fill="#989998" fill-opacity="0.5"/>
<path d="M248.527 217.396C248.547 217.56 248.57 217.73 248.59 217.887C248.57 217.723 248.547 217.55 248.527 217.396Z" fill="#B9D2C1"/>
<path d="M248.714 219.165C248.714 219.348 248.744 219.532 248.757 219.718C248.744 219.532 248.727 219.348 248.714 219.165Z" fill="#B9D2C1"/>
<path d="M248.477 229.117C248.45 229.35 248.424 229.587 248.394 229.824C248.424 229.587 248.444 229.35 248.477 229.117Z" fill="#B9D2C1"/>
<path d="M247.756 233.954C247.709 234.215 247.659 234.478 247.609 234.742C247.659 234.478 247.709 234.231 247.756 233.954Z" fill="#B9D2C1"/>
<path d="M246.973 237.751C246.899 238.085 246.826 238.385 246.749 238.708C246.826 238.385 246.899 238.068 246.973 237.751Z" fill="#B9D2C1"/>
<path d="M522.997 80.814C521.599 80.2268 518.64 79.2126 517.122 78.7622C517.989 77.8648 519.157 76.5703 518.943 76.3234C518.73 76.0765 513.905 77.8648 511.543 78.7856C512.604 77.6145 514.773 75.1157 514.503 74.6753C514.169 74.0948 506.829 77.6246 505.465 78.2651C506.426 77.1575 508.761 74.3884 508.467 73.928C508.097 73.3375 499.076 77.6913 498.125 78.155C498.038 78.1984 498.028 78.2484 498.125 78.3085C498.946 78.949 507.113 85.0977 507.597 84.5906C508.004 84.1636 506.025 80.6072 505.411 79.5229C506.342 80.2135 513.171 85.4314 513.639 84.9176C513.992 84.5272 512.377 81.6714 511.57 80.3069C513.699 81.6848 518.019 84.4272 518.323 84.1936C518.566 84.0068 517.779 82.6423 517.125 81.6014C521.312 81.6948 524.908 81.6347 522.99 80.8273L522.997 80.814Z" fill="#B9D2C1"/>
<path d="M525.202 29.2956C524.041 30.2731 521.789 32.4483 520.701 33.596C520.294 32.415 519.67 30.7869 519.367 30.8636C518.997 30.9537 518.446 36.0481 518.196 38.567C517.635 37.0924 516.404 34.033 515.86 34.0697C515.193 34.1098 515.003 42.2469 514.956 43.7448C514.406 42.387 512.998 39.0507 512.441 39.1008C511.747 39.1608 511.53 49.1696 511.52 50.2072C511.52 50.3039 511.557 50.3373 511.647 50.2972C512.591 49.8535 521.786 45.3796 521.552 44.719C521.359 44.1619 517.285 44.3053 516.041 44.3621C517.082 43.8483 524.835 40.1384 524.591 39.4911C524.401 38.9974 521.122 39.1408 519.54 39.2376C521.736 37.9698 526.143 35.3675 526.073 34.9939C526.016 34.6936 524.441 34.7737 523.217 34.8804C525.219 31.2106 526.783 27.9711 525.195 29.3089L525.202 29.2956Z" fill="#B9D2C1"/>
<path d="M219.239 76.8074C217.757 76.6206 216.379 77.4947 215.405 78.3655C215.76 77.8161 215.971 77.187 216.021 76.5352C216.072 75.8834 215.958 75.2293 215.692 74.6322C215.162 73.4011 213.59 72.3669 211.992 73.4645C209.363 75.2628 210.604 78.3655 212.256 79.6666C211.175 79.6466 209.814 79.9002 208.873 81.0912C207.372 82.9895 207.872 84.9879 209.874 85.1748C211.765 85.3516 213.767 83.2531 213.767 83.2531C213.767 83.2531 212.8 84.9212 213.21 86.2924C213.398 86.829 213.776 87.2778 214.273 87.5535C214.77 87.8291 215.351 87.9122 215.906 87.787C219.342 86.9663 218.365 83.203 217.32 82.8961C217.992 83.0426 218.691 83.0053 219.343 82.7881C219.995 82.5708 220.577 82.1817 221.027 81.6617C222.712 79.7333 222.058 77.1611 219.239 76.8074Z" fill="white"/>
<path d="M247.973 232.71C247.933 232.964 247.889 233.217 247.843 233.474C247.889 233.23 247.933 232.964 247.973 232.71Z" fill="#B9D2C1"/>
<path d="M246.688 238.945C246.295 240.56 245.843 242.228 245.334 243.95C245.85 242.226 246.301 240.558 246.688 238.945Z" fill="#B9D2C1"/>
<path d="M217.703 224.556C217.847 224.126 217.99 223.702 218.137 223.278C217.99 223.715 217.847 224.139 217.703 224.556Z" fill="#B9D2C1"/>
<path d="M314.981 287.891L306.798 295.968C308.609 291.738 308.973 285.569 308.973 285.569L306.638 285.172C306.638 285.172 304.716 290.674 302.968 298.07C294.31 305.286 285.059 311.759 275.313 317.421L277.692 321.09C290.784 312.79 305.023 301.073 305.023 301.073C309.533 301.69 314.101 301.776 318.631 301.326L318.298 298.324L308.773 297.99C311.635 295.895 317.27 290.287 317.27 290.287L314.981 287.891Z" fill="#242424"/>
<path d="M309.674 256.531H171.5L177.241 278.133L182.593 278.063L196.835 353.712H280.618L301.406 276.502L305.73 276.448L309.674 256.531Z" fill="#E47D25"/>
<path d="M231.879 316.767C225.633 316.802 219.516 318.554 214.197 321.831C217.377 325.114 222.505 327.503 229.157 326.659C236.62 325.715 240.647 321.474 242.672 318.248C239.177 317.18 235.533 316.68 231.879 316.767Z" fill="#9A4D19"/>
<path d="M208.976 296.756C209.19 295.535 208.726 292.949 207.134 292.145C205.309 291.221 202.994 291.902 202.187 294.904C201.379 297.907 203.982 300.122 205.857 299.708C207.732 299.295 208.809 297.71 208.976 296.756Z" fill="#242424"/>
<path d="M286.814 256.477L282.096 276.698L182.593 278.059L182.91 279.758L274.37 286.911L259.42 353.709L280.628 353.699L301.417 276.508L305.73 276.448L309.674 256.531L286.814 256.477Z" fill="#CB6628"/>
<path d="M188.057 307.085C181.685 302.2 177.692 298.577 177.692 298.574C176.157 291.137 174.379 285.586 174.379 285.586L172.043 285.92C172.043 285.92 172.244 292.098 173.942 296.372L165.975 288.085L163.593 290.4C163.593 290.4 169.074 296.152 171.883 298.32L162.352 298.417L161.938 301.4C166.455 301.968 171.024 302.004 175.55 301.507C175.55 301.507 181.432 306.611 189.078 312.556L188.057 307.085Z" fill="#242424"/>
<path d="M430.543 463.331C436.14 463.331 440.678 458.797 440.678 453.203C440.678 447.609 436.14 443.074 430.543 443.074C424.945 443.074 420.407 447.609 420.407 453.203C420.407 458.797 424.945 463.331 430.543 463.331Z" fill="#555658"/>
<path d="M248.63 218.271C248.647 218.444 248.667 218.604 248.68 218.791C248.667 218.614 248.647 218.444 248.63 218.271Z" fill="#B9D2C1"/>
<path d="M400.377 111.397C401.568 112.338 404.153 114.099 405.498 114.934C404.423 115.571 402.952 116.508 403.092 116.802C403.256 117.135 408.36 116.655 410.879 116.391C409.545 117.239 406.799 119.06 406.936 119.571C407.116 120.221 415.129 118.767 416.611 118.51C415.39 119.321 412.404 121.373 412.564 121.903C412.764 122.57 422.616 120.769 423.64 120.568C423.734 120.552 423.757 120.505 423.7 120.425C423.076 119.591 416.834 111.497 416.237 111.858C415.73 112.161 416.691 116.115 416.998 117.326C416.284 116.415 411.083 109.572 410.499 109.943C410.052 110.226 410.852 113.409 411.266 114.947C409.598 113.055 406.142 109.275 405.791 109.409C405.504 109.522 405.901 111.05 406.255 112.228C402.251 111.023 398.762 110.129 400.393 111.414L400.377 111.397Z" fill="#B9D2C1"/>
<path d="M216.502 353.715L201.056 382.18L187.1 376.675L189.082 372.492L199.588 376.896L211.338 353.715H216.502Z" fill="#242424"/>
<path d="M730.781 195.004C730.781 195.004 722.931 185.592 714.834 191.3C714.834 191.3 719.838 202.35 731.438 196.018L730.781 195.004Z" fill="#758963"/>
<path d="M248.694 226.842C248.694 227.068 248.657 227.299 248.637 227.509C248.657 227.299 248.677 227.068 248.694 226.842Z" fill="#B9D2C1"/>
<path d="M475.362 89.9118C474.238 80.6838 468.566 73.2306 464.816 73.4541C459.144 73.7877 452.472 91.4699 469.64 108.178C469.637 108.178 476.606 100.151 475.362 89.9118Z" fill="#758963"/>
<path d="M606.366 26.8267C615.411 29.0086 624.382 26.3096 625.486 22.7198C627.154 17.2984 612.929 4.8809 591.243 15.0765C591.243 15.0765 596.331 24.408 606.366 26.8267Z" fill="#626C57"/>
<path d="M690.186 172.177C689.699 170.766 688.308 169.918 687.097 169.425C687.746 169.501 688.404 169.413 689.011 169.171C689.618 168.929 690.155 168.539 690.573 168.037C691.447 167.016 691.681 165.154 689.989 164.203C687.214 162.642 684.985 165.124 684.535 167.179C684.078 166.202 683.247 165.094 681.762 164.774C679.394 164.267 677.825 165.608 678.543 167.49C679.21 169.261 681.989 170.129 681.989 170.129C681.989 170.129 680.061 169.998 679.013 170.973C678.614 171.377 678.377 171.914 678.349 172.481C678.32 173.049 678.502 173.607 678.86 174.049C681.115 176.764 684.064 174.229 683.881 173.158C684.045 173.825 684.387 174.435 684.87 174.925C685.352 175.414 685.958 175.764 686.623 175.937C689.092 176.574 691.114 174.846 690.186 172.177Z" fill="white"/>
<path d="M200.528 470.594C210.143 470.594 217.937 462.808 217.937 453.202C217.937 443.597 210.143 435.811 200.528 435.811C190.914 435.811 183.12 443.597 183.12 453.202C183.12 462.808 190.914 470.594 200.528 470.594Z" fill="#242424"/>
<path d="M248.82 224.666C248.82 224.89 248.8 225.12 248.787 225.334C248.8 225.12 248.81 224.89 248.82 224.666Z" fill="#B9D2C1"/>
<path d="M200.529 463.331C206.126 463.331 210.664 458.797 210.664 453.203C210.664 447.609 206.126 443.074 200.529 443.074C194.931 443.074 190.393 447.609 190.393 453.203C190.393 458.797 194.931 463.331 200.529 463.331Z" fill="#555658"/>
<path d="M244.487 314.421C240.091 312.309 235.513 310.601 230.808 309.317C222.938 307.285 214.354 306.835 211.495 310.651C207.772 315.606 215.014 328.46 229.177 326.665C241.561 325.087 244.487 314.421 244.487 314.421Z" fill="#242424"/>
<path d="M237.718 202.253C238.179 202.308 238.636 202.4 239.082 202.53C236.337 201.733 233.487 202.373 230.742 204.198C233.037 202.674 235.402 201.976 237.718 202.253Z" fill="#B9D2C1"/>
<path d="M231.496 248.457L232.763 243.977H232.783C234.595 237.344 236.246 230.855 237.094 226.388C239.636 212.983 241.534 203.625 237.711 202.243C233.454 203.495 228.093 209.733 224.476 223.222C224.309 223.842 224.143 224.469 223.986 225.097H224.016L222.952 229.634L222.901 229.614C221.17 237.214 219.899 244.911 219.045 250.659C218.785 252.437 218.511 254.522 218.261 256.541H229.244C229.984 253.992 230.768 251.256 231.552 248.47L231.496 248.457Z" fill="#B9D2C1"/>
<path d="M430.543 470.594C440.157 470.594 447.951 462.808 447.951 453.202C447.951 443.597 440.157 435.811 430.543 435.811C420.928 435.811 413.134 443.597 413.134 453.202C413.134 462.808 420.928 470.594 430.543 470.594Z" fill="#242424"/>
<path d="M247.486 292.589C246.629 293.556 245.631 296.099 246.602 297.68C247.716 299.492 250.172 299.732 252.527 297.51C254.883 295.288 253.175 291.872 251.273 291.208C249.371 290.544 248.153 291.835 247.486 292.589Z" fill="#242424"/>
</svg>
