<svg width="123" height="82" viewBox="0 0 123 82" fill="none" xmlns="http://www.w3.org/2000/svg">
<path d="M22.5375 0.149017C27.3449 -0.0381172 32.1503 -0.0508774 37.2326 0.121372C40.9572 0.121372 44.9503 0.351038 48.9413 0.574324C53.5034 0.829507 58.0634 1.12937 62.6107 1.57807C66.0201 1.91618 69.4379 2.18411 72.841 2.57327C77.1895 3.07088 81.5316 3.62023 85.8674 4.22133C89.8816 4.73518 93.8443 5.59606 97.7115 6.79442C100.298 7.61739 102.84 8.55094 105.235 9.85663C107.18 10.8796 108.916 12.2627 110.351 13.9332C111.563 15.3566 112.414 17.0536 112.832 18.8795C113.399 21.3335 113.434 23.8088 113.215 26.3011C112.902 29.6359 112.313 32.9386 111.453 36.1746C108.974 45.7036 106.089 55.1007 102.965 64.4574C102.633 65.4526 102.318 66.4564 102.035 67.4686C101.783 68.3702 102.035 69.1698 102.669 69.8503C103.22 70.4481 103.844 70.9733 104.526 71.4133C105.956 72.3617 107.367 73.3442 108.841 74.2182C112.612 76.4511 116.442 78.5712 120.632 79.9407C121.173 80.1172 121.708 80.3192 122.241 80.5255C122.774 80.7318 123.064 81.0039 122.988 81.2506C122.859 81.6759 122.474 81.7908 122.119 81.9099C121.889 81.9702 121.652 81.9995 121.414 81.997C120.846 82.0134 120.278 81.962 119.722 81.8439C118.453 81.6164 117.184 81.3655 115.915 81.2613C110.605 80.8211 105.287 80.4383 99.9745 80.0215C97.3646 79.8089 94.7547 79.6175 92.149 79.358C89.0716 79.0518 85.9985 78.7009 82.9254 78.3415C79.4758 77.9354 76.0283 77.5186 72.5851 77.0656C68.7174 76.5553 64.8526 76.0208 60.9906 75.4622C56.8473 74.8668 52.7061 74.2607 48.5691 73.6121C44.1529 72.9168 39.741 72.1789 35.3333 71.4324C30.5005 70.618 25.6889 69.6993 20.928 68.5319C18.7528 68.0155 16.6191 67.3359 14.5449 66.4989C12.2789 65.5647 10.3856 63.9005 9.16212 61.7674C8.65487 60.9558 8.22974 60.0953 7.89311 59.1985C7.49761 58.0736 7.09368 56.9465 6.77432 55.7961C4.95963 49.2549 3.32893 42.669 1.98378 36.0193C1.07432 31.5175 0.279101 26.9965 0.0527945 22.3947C-0.139672 18.4946 0.175449 14.6541 1.30487 10.9114C2.46812 7.0475 4.9596 4.38507 8.59531 2.75827C10.3851 1.97672 12.2588 1.40586 14.179 1.05705C16.9383 0.542523 19.7325 0.238974 22.5375 0.149017ZM9.91508 5.36966C6.99848 6.64558 5.01247 8.74658 4.09244 11.8471C3.59377 13.5453 3.26922 15.2903 3.1238 17.0549C2.91543 19.5848 2.94516 22.1288 3.21261 24.653C3.84712 30.9476 5.22821 37.1081 6.64104 43.2581C7.6351 47.5898 8.70953 51.9024 9.92567 56.1767C10.3027 57.5616 10.8453 58.8954 11.5415 60.1491C12.4631 61.8428 13.9346 63.1676 15.7103 63.9024C18.1362 64.9125 20.6573 65.6036 23.2037 66.1991C28.21 67.3623 33.2606 68.2916 38.3303 69.1252C42.6957 69.8439 47.0547 70.5925 51.4244 71.2836C55.5585 71.9385 59.6983 72.5616 63.8437 73.1528C68.4587 73.812 73.0779 74.4401 77.7013 75.0369C82.0899 75.5983 86.4828 76.1427 90.8821 76.5978C96.9881 77.2357 103.103 77.7737 109.213 78.3564C110.302 78.4606 111.389 78.5691 112.478 78.6839C112.591 78.8038 112.746 78.8751 112.91 78.8826C113.074 78.8901 113.235 78.8334 113.358 78.7243C113.066 78.5712 112.851 78.2756 112.478 78.3266C109.546 76.9552 106.693 75.4196 103.932 73.727C103.069 73.223 102.245 72.6543 101.468 72.0257C99.744 70.5776 99.0587 68.7807 99.5219 66.5329C99.8307 65.0443 100.194 63.5558 100.643 62.0885C103.041 54.2777 105.349 46.4415 107.466 38.5499C108.445 34.9008 109.333 31.2283 109.769 27.4664C110.063 24.9444 110.192 22.4159 109.689 19.8939C109.376 18.3377 108.644 16.8975 107.574 15.7301C106.377 14.4243 104.957 13.3441 103.382 12.5403C100.806 11.1708 98.0668 10.216 95.2792 9.39732C92.1225 8.49024 88.904 7.81643 85.6495 7.38135C81.5041 6.79868 77.3566 6.2224 73.1984 5.7418C68.9938 5.2527 64.7743 4.89119 60.5591 4.46588C55.9653 4.01293 51.3567 3.7216 46.7481 3.46217C38.6666 3.00284 30.5766 2.85185 22.4846 3.11767C19.4897 3.21549 16.5012 3.47918 13.5698 4.18094C12.3199 4.47103 11.0972 4.86873 9.91508 5.36966Z" fill="#989998"/>
</svg>
