<svg xmlns="http://www.w3.org/2000/svg" xmlns:xlink="http://www.w3.org/1999/xlink" width="80" zoomAndPan="magnify" viewBox="0 0 60 56.999997" height="76" preserveAspectRatio="xMidYMid meet" version="1.0"><path fill="#242424" d="M 29.484375 50.953125 C 29.484375 50.953125 29.203125 52.441406 29.777344 53.117188 C 30.484375 53.941406 32.710938 54.328125 32.710938 54.328125 L 32.089844 57 L 31.289062 56.75 L 31.804688 54.734375 C 31.804688 54.734375 30.007812 54.445312 29.230469 53.578125 C 28.367188 52.613281 28.628906 50.953125 28.628906 50.953125 Z M 29.484375 50.953125 " fill-opacity="1" fill-rule="nonzero"/><path fill="#242424" d="M 33.347656 50.863281 C 33.347656 50.863281 33.066406 52.332031 33.640625 52.996094 C 34.347656 53.8125 36.574219 54.195312 36.574219 54.195312 L 35.949219 56.824219 L 35.152344 56.578125 L 35.667969 54.59375 C 35.667969 54.59375 33.871094 54.308594 33.09375 53.453125 C 32.230469 52.5 32.492188 50.863281 32.492188 50.863281 Z M 33.347656 50.863281 " fill-opacity="1" fill-rule="nonzero"/><path fill="#242424" d="M 25.796875 46.496094 C 24.371094 46.105469 23.398438 45.730469 23.398438 45.730469 C 22.78125 44.78125 22.230469 44.105469 22.230469 44.105469 L 21.925781 44.277344 C 21.925781 44.277344 22.292969 45.121094 22.757812 45.625 L 21.207031 44.898438 L 21 45.347656 C 21 45.347656 22.074219 45.851562 22.582031 46.003906 L 21.269531 46.523438 L 21.375 46.960938 C 22.03125 46.796875 22.664062 46.558594 23.261719 46.25 C 23.261719 46.25 24.664062 46.753906 26.304688 47.226562 Z M 25.796875 46.496094 " fill-opacity="1" fill-rule="nonzero"/><path fill="#242424" d="M 43.957031 44.164062 L 42.582031 45.210938 C 42.929688 44.617188 43.101562 43.707031 43.101562 43.707031 L 42.761719 43.605469 C 42.761719 43.605469 42.371094 44.386719 41.972656 45.453125 C 40.542969 46.363281 39.035156 47.15625 37.472656 47.816406 L 37.761719 48.402344 C 39.875 47.414062 42.226562 45.9375 42.226562 45.9375 C 42.890625 46.113281 43.570312 46.210938 44.257812 46.226562 L 44.261719 45.777344 L 42.84375 45.546875 C 43.3125 45.289062 44.261719 44.5625 44.261719 44.5625 Z M 43.957031 44.164062 " fill-opacity="1" fill-rule="nonzero"/><path fill="#3f5028" d="M 52.3125 35.527344 C 52.3125 35.527344 52.492188 35.804688 52.503906 36.335938 C 52.582031 39.867188 52.644531 53.347656 51.871094 52.636719 C 50.980469 51.816406 49.105469 36.433594 47.257812 35.066406 C 45.414062 33.703125 52.3125 35.527344 52.3125 35.527344 Z M 52.3125 35.527344 " fill-opacity="1" fill-rule="nonzero"/><path fill="#626c57" d="M 52.464844 35.703125 C 52.464844 35.703125 46.144531 34.617188 43.449219 35.039062 C 43.105469 35.09375 42.820312 35.171875 42.609375 35.28125 C 41.851562 35.691406 40.0625 37.238281 38.253906 38.894531 C 38.09375 39.039062 37.933594 39.1875 37.773438 39.332031 L 37.773438 39.339844 C 37.769531 39.34375 37.769531 39.34375 37.765625 39.34375 C 37.445312 39.644531 37.121094 39.945312 36.8125 40.234375 C 36.683594 40.179688 36.550781 40.125 36.417969 40.058594 C 36.300781 40.007812 36.179688 39.953125 36.054688 39.894531 C 36.453125 39.371094 36.871094 38.824219 37.296875 38.277344 C 39.117188 35.949219 41.03125 33.625 41.820312 33.117188 C 42.015625 32.992188 42.222656 32.886719 42.445312 32.8125 C 43.273438 32.492188 44.449219 32.308594 45.613281 32.261719 C 47.355469 32.1875 49.078125 32.40625 49.636719 32.90625 C 50.675781 33.847656 52.464844 35.703125 52.464844 35.703125 Z M 52.464844 35.703125 " fill-opacity="1" fill-rule="nonzero"/><path fill="#626c57" d="M 33.910156 36.585938 C 33.929688 37.316406 33.945312 38.027344 33.964844 38.695312 L 33.523438 38.75 L 33.484375 38.753906 C 33.296875 38.773438 33.113281 38.789062 32.933594 38.808594 L 32.917969 38.808594 L 32.785156 38.820312 C 32.664062 38.15625 32.527344 37.460938 32.390625 36.761719 C 31.816406 33.882812 31.132812 30.925781 30.59375 29.964844 C 29.425781 27.898438 25.949219 23.390625 25.117188 22.113281 C 24.285156 20.835938 23.816406 -1.347656 24.324219 0.75 C 24.707031 2.324219 26.738281 17.691406 27.980469 19.765625 C 28.53125 20.691406 30.398438 22.882812 31.753906 24.105469 C 32.210938 24.523438 32.613281 24.828125 32.878906 24.933594 C 33.507812 25.179688 33.765625 31.433594 33.910156 36.585938 Z M 33.910156 36.585938 " fill-opacity="1" fill-rule="nonzero"/><path fill="#758963" d="M 30.480469 38.265625 C 30.050781 38.246094 29.644531 38.21875 29.265625 38.183594 C 28.996094 38.160156 28.738281 38.128906 28.5 38.101562 C 28.253906 37.628906 28.003906 37.144531 27.75 36.664062 C 26.761719 34.792969 25.734375 32.914062 24.992188 31.742188 C 24.578125 31.082031 24.25 30.648438 24.074219 30.550781 C 23.886719 30.453125 23.53125 30.328125 23.050781 30.1875 C 20.910156 29.550781 16.3125 28.519531 13.410156 27.707031 C 9.851562 26.714844 0.433594 31.570312 0.132812 31.5625 C -1.304688 31.527344 10.003906 25.902344 11.542969 25.445312 C 13.078125 24.988281 21.238281 25.859375 24.480469 27.417969 C 25.175781 27.75 25.917969 28.640625 26.65625 29.835938 C 27.753906 31.617188 28.839844 34.054688 29.742188 36.332031 C 30.003906 37 30.25 37.652344 30.480469 38.265625 Z M 30.480469 38.265625 " fill-opacity="1" fill-rule="nonzero"/><path fill="#b9d2c1" d="M 46.222656 26.664062 C 45.609375 26.667969 44.046875 29.429688 42.445312 31.652344 C 41.980469 32.304688 41.507812 32.910156 41.054688 33.386719 C 40.753906 33.695312 40.453125 34.007812 40.148438 34.324219 C 38.648438 35.863281 37.105469 37.375 35.726562 38.707031 C 35.339844 39.085938 34.960938 39.449219 34.601562 39.792969 C 34.257812 39.65625 33.882812 39.492188 33.484375 39.304688 C 33.726562 39 33.980469 38.679688 34.242188 38.347656 C 34.25 38.347656 34.25 38.347656 34.25 38.34375 L 34.253906 38.339844 C 34.382812 38.175781 34.515625 38.011719 34.644531 37.84375 C 36.0625 36.050781 37.691406 34.003906 39.242188 32.042969 C 42.347656 28.117188 45.164062 24.550781 45.449219 24.164062 C 46.105469 23.277344 58.238281 26.273438 59.539062 27.011719 C 60.839844 27.75 48.867188 26.621094 46.222656 26.664062 Z M 46.222656 26.664062 " fill-opacity="1" fill-rule="nonzero"/><path fill="#b9d2c1" d="M 30.199219 37.957031 C 30.011719 38.050781 29.832031 38.144531 29.648438 38.226562 C 29.617188 38.246094 29.582031 38.257812 29.550781 38.273438 C 29.160156 38.460938 28.789062 38.625 28.4375 38.769531 C 27.988281 38.367188 27.53125 37.949219 27.078125 37.546875 C 25.074219 35.765625 23.167969 34.171875 22.816406 34.265625 C 22.648438 34.308594 22.195312 34.605469 21.570312 35.054688 C 19.292969 36.695312 14.800781 40.347656 14.355469 40.753906 C 11.21875 43.640625 8.355469 50.09375 8.25 49.964844 C 8.160156 49.800781 9.679688 44.214844 13.230469 39.960938 C 15.023438 37.8125 17.203125 35.96875 19.105469 34.585938 C 20.269531 33.730469 21.332031 33.054688 22.132812 32.582031 C 22.824219 32.175781 23.324219 31.925781 23.542969 31.847656 C 24.378906 31.550781 26.695312 33.886719 28.839844 36.347656 C 29.304688 36.882812 29.765625 37.433594 30.199219 37.957031 Z M 30.199219 37.957031 " fill-opacity="1" fill-rule="nonzero"/><path fill="#758963" d="M 46.363281 12.144531 C 45.824219 13.429688 39.214844 24.355469 39.03125 26.121094 C 38.847656 27.890625 37.941406 35.523438 36.820312 36.984375 C 36.359375 37.589844 35.496094 39.566406 34.640625 41.675781 C 34.382812 42.3125 34.121094 42.960938 33.878906 43.585938 C 33.714844 43.550781 33.550781 43.511719 33.386719 43.46875 C 33.375 43.46875 33.367188 43.46875 33.359375 43.464844 L 33.351562 43.464844 C 33.222656 43.433594 33.089844 43.402344 32.960938 43.371094 L 32.535156 43.261719 C 32.699219 42.621094 32.875 41.929688 33.0625 41.210938 C 34.066406 37.34375 35.332031 32.523438 36.296875 28.980469 C 36.949219 26.578125 37.46875 24.769531 37.675781 24.234375 C 38.472656 22.214844 46.894531 10.867188 46.363281 12.144531 Z M 46.363281 12.144531 " fill-opacity="1" fill-rule="nonzero"/><path fill="#626c57" d="M 42.324219 37.328125 L 22.839844 37.328125 L 23.648438 40.355469 L 24.40625 40.347656 L 26.414062 50.953125 L 38.226562 50.953125 L 41.160156 40.128906 L 41.769531 40.121094 Z M 42.324219 37.328125 " fill-opacity="1" fill-rule="nonzero"/><path fill="#3f5028" d="M 39.097656 37.328125 L 38.433594 40.160156 L 24.382812 40.351562 L 24.429688 40.589844 L 37.339844 41.59375 L 35.230469 50.953125 L 38.226562 50.953125 L 41.160156 40.136719 L 41.769531 40.125 L 42.324219 37.335938 Z M 39.097656 37.328125 " fill-opacity="1" fill-rule="nonzero"/><path fill="#242424" d="M 29.070312 42.527344 C 29.210938 42.691406 29.371094 43.121094 29.214844 43.386719 C 29.035156 43.691406 28.640625 43.734375 28.261719 43.359375 C 27.882812 42.984375 28.15625 42.40625 28.460938 42.296875 C 28.769531 42.183594 28.964844 42.402344 29.070312 42.527344 Z M 29.070312 42.527344 " fill-opacity="1" fill-rule="nonzero"/><path fill="#242424" d="M 35.378906 43.234375 C 35.347656 43.039062 35.421875 42.628906 35.675781 42.5 C 35.964844 42.351562 36.335938 42.460938 36.464844 42.941406 C 36.59375 43.417969 36.179688 43.773438 35.875 43.707031 C 35.574219 43.640625 35.40625 43.386719 35.378906 43.234375 Z M 35.378906 43.234375 " fill-opacity="1" fill-rule="nonzero"/><path fill="#242424" d="M 29.363281 48.226562 L 35.800781 48.003906 C 35.800781 48.003906 34.988281 44.777344 32.472656 45.097656 C 30.269531 45.378906 29.363281 48.226562 29.363281 48.226562 Z M 29.363281 48.226562 " fill-opacity="1" fill-rule="nonzero"/></svg>