<svg width="680" height="651" viewBox="0 0 680 651" fill="none" xmlns="http://www.w3.org/2000/svg">
<path d="M334.654 581.087C334.654 581.087 331.457 598.049 337.999 605.748C346.007 615.167 371.294 619.584 371.294 619.584L364.219 650.038L355.156 647.192L361.007 624.194C361.007 624.194 340.594 620.913 331.794 611.03C321.976 600.002 324.936 581.087 324.936 581.087H334.654Z" fill="#242424"/>
<path d="M378.508 580.072C378.508 580.072 375.31 596.795 381.852 604.385C389.861 613.672 415.148 618.032 415.148 618.032L408.073 648.051L399.009 645.246L404.86 622.577C404.86 622.577 384.448 619.336 375.648 609.593C365.83 598.72 368.789 580.072 368.789 580.072H378.508Z" fill="#242424"/>
<path d="M292.814 530.264C276.616 525.78 265.559 521.501 265.556 521.496C258.541 510.673 252.315 502.981 252.315 502.981L248.867 504.93C248.867 504.93 253.005 514.57 258.316 520.294L240.673 512.045L238.353 517.154C238.353 517.154 250.527 522.911 256.299 524.627L241.387 530.578L242.583 535.544C250.031 533.692 257.229 530.968 264.031 527.427C264.031 527.427 279.954 533.195 298.562 538.564L292.814 530.264Z" fill="#242424"/>
<path d="M498.956 503.654L483.334 515.602C487.29 508.812 489.25 498.442 489.25 498.442L485.398 497.276C485.398 497.276 480.953 506.195 476.437 518.362C460.188 528.752 443.092 537.76 425.331 545.289L428.607 552C452.62 540.706 479.307 523.863 479.307 523.863C486.838 525.869 494.58 526.983 502.373 527.182L502.44 522.039L486.332 519.431C491.651 516.486 502.413 508.181 502.413 508.181L498.956 503.654Z" fill="#242424"/>
<path d="M593.809 405.177C593.809 405.177 595.85 408.316 596.001 414.397C596.858 454.67 597.592 608.368 588.806 600.257C578.713 590.926 557.412 415.491 536.449 399.914C515.486 384.337 593.809 405.177 593.809 405.177Z" fill="#3F5028"/>
<path d="M595.558 407.16C595.558 407.16 523.807 394.791 493.217 399.608C489.283 400.226 486.044 401.085 483.653 402.371C475.043 407.039 454.74 424.675 434.196 443.552C432.387 445.204 430.591 446.919 428.782 448.572L428.74 448.646C428.722 448.679 428.722 448.679 428.661 448.7C425.031 452.102 421.347 455.524 417.861 458.853C416.381 458.227 414.901 457.6 413.371 456.854C412.036 456.252 410.658 455.64 409.266 454.964C413.781 448.999 418.528 442.771 423.369 436.529C444.025 409.98 465.736 383.486 474.687 377.675C476.907 376.233 479.292 375.061 481.789 374.186C491.204 370.545 504.531 368.443 517.775 367.907C537.532 367.062 557.079 369.582 563.43 375.291C575.214 386.004 595.558 407.16 595.558 407.16Z" fill="#626C57"/>
<path d="M384.92 417.234C385.131 425.58 385.319 433.682 385.506 441.297L380.524 441.891L380.049 441.935C377.949 442.172 375.876 442.363 373.813 442.591L373.639 442.57L372.133 442.709C370.735 435.153 369.216 427.227 367.65 419.258C361.117 386.384 353.374 352.663 347.275 341.709C334.01 318.165 294.516 266.761 285.08 252.187C275.644 237.612 270.303 -15.3475 276.086 8.54021C280.41 26.5255 303.492 201.77 317.585 225.409C323.824 235.965 345.042 260.969 360.403 274.91C365.622 279.651 370.161 283.155 373.185 284.342C380.356 287.132 383.252 358.487 384.92 417.234Z" fill="#626C57"/>
<path d="M345.957 436.391C341.088 436.177 336.476 435.857 332.169 435.446C329.107 435.19 326.183 434.843 323.463 434.502C320.711 429.123 317.868 423.617 314.977 418.111C303.754 396.768 292.104 375.356 283.661 361.974C278.963 354.451 275.254 349.5 273.234 348.427C271.123 347.307 267.073 345.888 261.6 344.255C237.301 336.988 185.127 325.244 152.17 315.976C111.763 304.659 4.87621 360.016 1.42394 359.936C-14.8595 359.547 113.527 295.375 130.975 290.162C148.423 284.949 241.063 294.895 277.841 312.663C285.729 316.446 294.172 326.642 302.573 340.274C315.02 360.55 327.343 388.365 337.598 414.344C340.57 421.942 343.37 429.38 345.957 436.391Z" fill="#758963"/>
<path d="M524.696 304.067C517.712 304.137 499.98 335.636 481.812 360.977C476.52 368.387 471.138 375.294 466.009 380.735C462.579 384.267 459.172 387.852 455.709 391.434C438.678 409.008 421.192 426.249 405.535 441.443C401.114 445.751 396.813 449.869 392.737 453.787C388.866 452.247 384.577 450.397 380.065 448.258C382.823 444.742 385.708 441.104 388.681 437.326C388.743 437.307 388.743 437.307 388.763 437.276L388.802 437.212C390.253 435.376 391.769 433.474 393.251 431.556C409.32 411.121 427.836 387.776 445.442 365.426C480.685 320.663 512.653 280.001 515.917 275.586C523.37 265.454 661.075 299.609 675.851 308.041C690.627 316.473 554.708 303.574 524.696 304.067Z" fill="#B9D2C1"/>
<path d="M342.782 432.86C340.665 433.933 338.588 434.991 336.535 435.945C336.152 436.15 335.746 436.311 335.406 436.492C330.997 438.598 326.765 440.488 322.759 442.154C317.688 437.542 312.488 432.791 307.336 428.209C284.614 407.883 262.95 389.687 258.955 390.75C257.066 391.263 251.888 394.663 244.819 399.753C218.953 418.502 167.976 460.126 162.929 464.779C127.284 497.682 94.785 571.276 93.5786 569.809C92.5737 567.937 109.805 504.249 150.121 455.731C170.49 431.214 195.237 410.209 216.852 394.414C230.053 384.678 242.098 376.978 251.208 371.58C259.061 366.956 264.723 364.084 267.197 363.211C276.701 359.815 302.995 386.436 327.321 414.509C332.64 420.624 337.859 426.882 342.782 432.86Z" fill="#B9D2C1"/>
<path d="M526.267 138.497C520.155 153.163 445.138 277.751 443.051 297.902C440.964 318.052 430.653 405.102 417.954 421.782C412.721 428.682 402.887 451.224 393.189 475.281C390.269 482.54 387.313 489.921 384.562 497.055C382.707 496.652 380.823 496.196 378.939 495.74C378.838 495.747 378.736 495.732 378.64 495.698L378.558 495.674C377.09 495.338 375.59 494.954 374.118 494.611L369.29 493.353C371.149 486.055 373.157 478.172 375.296 469.971C386.661 425.891 401.027 370.9 411.984 330.506C419.412 303.103 425.311 282.473 427.662 276.388C436.691 253.348 532.327 123.911 526.267 138.497Z" fill="#758963"/>
<path d="M480.441 425.697H259.224L268.416 460.236L276.989 460.124L299.791 581.079H433.923L467.205 457.628L474.128 457.537L480.441 425.697Z" fill="#626C57"/>
<path d="M443.803 425.697L436.242 458.015L276.765 460.185L277.273 462.904L423.858 474.329L399.898 581.079L433.889 581.063L467.207 457.711L474.121 457.61L480.441 425.787L443.803 425.697Z" fill="#3F5028"/>
<path d="M329.966 485.009C331.54 486.87 333.356 491.757 331.582 494.799C329.546 498.278 325.059 498.736 320.762 494.468C316.464 490.2 319.576 483.629 323.05 482.353C326.523 481.078 328.743 483.563 329.966 485.009Z" fill="#242424"/>
<path d="M401.594 493.069C401.204 490.839 402.047 486.128 404.932 484.662C408.239 482.987 412.436 484.223 413.899 489.693C415.363 495.163 410.65 499.198 407.218 498.445C403.786 497.691 401.896 494.801 401.594 493.069Z" fill="#242424"/>
<path d="M333.288 549.988L406.377 547.44C406.377 547.44 397.139 510.647 368.573 514.313C343.581 517.518 333.288 549.988 333.288 549.988Z" fill="#242424"/>
</svg>
