<svg width="611" height="580" viewBox="0 0 611 580" fill="none" xmlns="http://www.w3.org/2000/svg">
<path d="M300.244 518.478C300.244 518.478 297.376 533.612 303.245 540.481C310.429 548.886 333.113 552.827 333.113 552.827L326.766 580L318.635 577.46L323.884 556.94C323.884 556.94 305.573 554.012 297.679 545.195C288.872 535.355 291.527 518.478 291.527 518.478H300.244Z" fill="#242424"/>
<path d="M339.583 517.572C339.583 517.572 336.715 532.493 342.584 539.265C349.768 547.552 372.452 551.442 372.452 551.442L366.105 578.227L357.974 575.723L363.223 555.497C363.223 555.497 344.912 552.606 337.018 543.912C328.211 534.211 330.866 517.572 330.866 517.572H339.583Z" fill="#242424"/>
<path d="M262.712 473.13C248.182 469.13 238.262 465.312 238.26 465.308C231.967 455.651 226.382 448.788 226.382 448.788L223.29 450.527C223.29 450.527 227.001 459.127 231.765 464.235L215.938 456.875L213.857 461.433C213.857 461.433 224.778 466.57 229.956 468.101L216.579 473.411L217.652 477.842C224.333 476.19 230.791 473.759 236.892 470.6C236.892 470.6 251.175 475.746 267.868 480.537L262.712 473.13Z" fill="#242424"/>
<path d="M447.631 449.388L433.618 460.049C437.167 453.99 438.924 444.738 438.924 444.738L435.47 443.697C435.47 443.697 431.482 451.655 427.431 462.511C412.855 471.782 397.519 479.819 381.586 486.537L384.525 492.525C406.066 482.448 430.006 467.42 430.006 467.42C436.761 469.209 443.706 470.203 450.697 470.381L450.757 465.792L436.308 463.465C441.079 460.837 450.733 453.427 450.733 453.427L447.631 449.388Z" fill="#242424"/>
<path d="M532.719 361.521C532.719 361.521 534.551 364.322 534.686 369.748C535.454 405.682 536.113 542.819 528.232 535.582C519.178 527.256 500.07 370.723 481.265 356.825C462.46 342.926 532.719 361.521 532.719 361.521Z" fill="#3F5028"/>
<path d="M534.289 363.291C534.289 363.291 469.924 352.254 442.484 356.552C438.954 357.104 436.049 357.87 433.904 359.017C426.18 363.182 407.968 378.918 389.539 395.761C387.916 397.236 386.305 398.766 384.682 400.24L384.645 400.307C384.628 400.336 384.628 400.336 384.574 400.355C381.317 403.39 378.013 406.443 374.885 409.414C373.558 408.855 372.23 408.295 370.858 407.63C369.66 407.093 368.423 406.546 367.175 405.944C371.225 400.621 375.483 395.065 379.826 389.495C398.355 365.806 417.832 342.167 425.861 336.982C427.853 335.695 429.992 334.65 432.232 333.869C440.678 330.621 452.633 328.745 464.513 328.267C482.236 327.512 499.771 329.761 505.468 334.855C516.039 344.414 534.289 363.291 534.289 363.291Z" fill="#626C57"/>
<path d="M345.336 372.279C345.525 379.726 345.694 386.955 345.861 393.749L341.392 394.279L340.966 394.319C339.082 394.53 337.223 394.701 335.372 394.904L335.216 394.885L333.865 395.009C332.611 388.267 331.248 381.195 329.844 374.085C323.983 344.753 317.037 314.665 311.566 304.891C299.667 283.884 264.238 238.019 255.774 225.015C247.309 212.01 242.518 -13.6939 247.706 7.62003C251.585 23.6675 272.29 180.03 284.933 201.122C290.53 210.541 309.563 232.85 323.343 245.29C328.025 249.52 332.096 252.647 334.809 253.706C341.241 256.195 343.839 319.862 345.336 372.279Z" fill="#626C57"/>
<path d="M310.383 389.372C306.016 389.181 301.879 388.896 298.015 388.529C295.268 388.301 292.646 387.991 290.206 387.686C287.737 382.888 285.187 377.974 282.593 373.061C272.526 354.018 262.075 334.914 254.501 322.974C250.287 316.261 246.96 311.843 245.148 310.886C243.254 309.886 239.62 308.62 234.711 307.163C212.914 300.679 166.111 290.201 136.547 281.931C100.3 271.834 4.41693 321.226 1.32007 321.155C-13.287 320.807 101.882 263.55 117.534 258.899C133.186 254.248 216.289 263.122 249.28 278.975C256.356 282.35 263.93 291.448 271.466 303.612C282.631 321.702 293.686 346.52 302.886 369.7C305.551 376.48 308.063 383.116 310.383 389.372Z" fill="#758963"/>
<path d="M470.722 271.305C464.457 271.368 448.551 299.473 432.253 322.084C427.506 328.695 422.678 334.858 418.077 339.713C414.999 342.864 411.943 346.063 408.837 349.259C393.559 364.939 377.874 380.323 363.828 393.88C359.863 397.724 356.004 401.398 352.348 404.894C348.876 403.52 345.028 401.869 340.98 399.96C343.455 396.824 346.043 393.578 348.71 390.206C348.765 390.19 348.765 390.19 348.783 390.161L348.818 390.105C350.119 388.466 351.48 386.769 352.809 385.058C367.223 366.825 383.834 345.995 399.627 326.053C431.241 286.114 459.918 249.833 462.846 245.893C469.532 236.853 593.061 267.327 606.316 274.851C619.571 282.375 497.644 270.865 470.722 271.305Z" fill="#B9D2C1"/>
<path d="M307.535 386.221C305.636 387.179 303.773 388.123 301.931 388.974C301.588 389.157 301.224 389.301 300.919 389.462C296.964 391.341 293.168 393.028 289.574 394.514C285.025 390.399 280.36 386.16 275.738 382.072C255.356 363.936 235.923 347.7 232.339 348.648C230.644 349.106 225.999 352.14 219.658 356.682C196.455 373.41 150.726 410.549 146.198 414.701C114.223 444.059 85.0697 509.723 83.9875 508.415C83.086 506.745 98.543 449.919 134.709 406.628C152.981 384.753 175.18 366.011 194.57 351.918C206.412 343.231 217.217 336.361 225.389 331.544C232.433 327.418 237.513 324.856 239.732 324.076C248.257 321.047 271.845 344.8 293.667 369.848C298.437 375.303 303.119 380.888 307.535 386.221Z" fill="#B9D2C1"/>
<path d="M472.131 123.575C466.648 136.66 399.354 247.825 397.482 265.804C395.61 283.784 386.36 361.454 374.969 376.337C370.275 382.494 361.453 402.607 352.753 424.072C350.134 430.548 347.482 437.134 345.014 443.5C343.35 443.14 341.661 442.733 339.971 442.326C339.88 442.333 339.788 442.32 339.702 442.289L339.629 442.268C338.311 441.968 336.966 441.625 335.645 441.319L331.314 440.197C332.982 433.685 334.783 426.651 336.702 419.334C346.897 380.003 359.784 330.937 369.613 294.895C376.277 270.445 381.569 252.038 383.677 246.609C391.777 226.051 477.567 110.561 472.131 123.575Z" fill="#758963"/>
<path d="M431.023 379.831H232.58L240.826 410.648L248.516 410.549L268.971 518.471H389.294L419.15 408.321L425.359 408.24L431.023 379.831Z" fill="#626C57"/>
<path d="M398.156 379.831L391.374 408.667L248.315 410.603L248.771 413.029L380.265 423.223L358.772 518.471L389.264 518.456L419.151 408.396L425.353 408.305L431.023 379.911L398.156 379.831Z" fill="#3F5028"/>
<path d="M296.039 432.752C297.451 434.412 299.08 438.772 297.489 441.487C295.662 444.591 291.638 445 287.782 441.191C283.927 437.383 286.718 431.52 289.835 430.382C292.951 429.244 294.942 431.461 296.039 432.752Z" fill="#242424"/>
<path d="M360.293 439.943C359.943 437.954 360.699 433.75 363.287 432.443C366.254 430.948 370.019 432.05 371.332 436.931C372.644 441.812 368.417 445.412 365.338 444.74C362.26 444.067 360.564 441.489 360.293 439.943Z" fill="#242424"/>
<path d="M299.019 490.729L364.584 488.455C364.584 488.455 356.297 455.627 330.672 458.898C308.253 461.758 299.019 490.729 299.019 490.729Z" fill="#242424"/>
</svg>
